<svg width="139" height="46" viewBox="0 0 139 46" fill="none" xmlns="http://www.w3.org/2000/svg">
<path d="M2.52 16.8H0V0H2.52V7.104H10.968V0H13.488V16.8H10.968V9.576H2.52V16.8Z" fill="#B1B5C4"/>
<path d="M21.7397 17.04C20.6197 17.04 19.6037 16.776 18.6917 16.248C17.7797 15.704 17.0597 14.96 16.5317 14.016C16.0197 13.056 15.7637 11.968 15.7637 10.752C15.7637 9.552 16.0197 8.48 16.5317 7.536C17.0597 6.576 17.7797 5.832 18.6917 5.304C19.6037 4.76 20.6197 4.488 21.7397 4.488C22.8597 4.488 23.8677 4.76 24.7637 5.304C25.6757 5.832 26.3877 6.576 26.8997 7.536C27.4277 8.48 27.6917 9.552 27.6917 10.752C27.6917 11.968 27.4277 13.056 26.8997 14.016C26.3877 14.96 25.6757 15.704 24.7637 16.248C23.8677 16.776 22.8597 17.04 21.7397 17.04ZM21.7397 14.832C22.3957 14.832 22.9957 14.664 23.5397 14.328C24.0997 13.992 24.5397 13.512 24.8597 12.888C25.1797 12.264 25.3397 11.552 25.3397 10.752C25.3397 9.952 25.1797 9.248 24.8597 8.64C24.5397 8.016 24.0997 7.536 23.5397 7.2C22.9957 6.864 22.3957 6.696 21.7397 6.696C21.0837 6.696 20.4757 6.864 19.9157 7.2C19.3717 7.536 18.9397 8.016 18.6197 8.64C18.2997 9.248 18.1397 9.952 18.1397 10.752C18.1397 11.552 18.2997 12.264 18.6197 12.888C18.9397 13.512 19.3717 13.992 19.9157 14.328C20.4757 14.664 21.0837 14.832 21.7397 14.832Z" fill="#B1B5C4"/>
<path d="M29.7609 16.8V4.728H31.8009L32.0409 5.976H32.1609C32.4649 5.592 32.9289 5.248 33.5529 4.944C34.1769 4.64 34.8969 4.488 35.7129 4.488C36.6409 4.488 37.4649 4.704 38.1849 5.136C38.9209 5.552 39.4889 6.144 39.8889 6.912C40.3049 7.68 40.5129 8.56 40.5129 9.552V16.8H38.1369V9.744C38.1369 8.88 37.8569 8.16 37.2969 7.584C36.7369 7.008 36.0409 6.72 35.2089 6.72C34.6489 6.72 34.1289 6.856 33.6489 7.128C33.1849 7.4 32.8169 7.768 32.5449 8.232C32.2729 8.696 32.1369 9.2 32.1369 9.744V16.8H29.7609Z" fill="#B1B5C4"/>
<path d="M48.4828 17.04C47.3628 17.04 46.3468 16.776 45.4348 16.248C44.5228 15.704 43.8028 14.96 43.2748 14.016C42.7628 13.056 42.5068 11.968 42.5068 10.752C42.5068 9.552 42.7628 8.48 43.2748 7.536C43.8028 6.576 44.5228 5.832 45.4348 5.304C46.3468 4.76 47.3628 4.488 48.4828 4.488C49.5548 4.488 50.5228 4.744 51.3868 5.256C52.2668 5.768 52.9548 6.472 53.4508 7.368C53.9628 8.264 54.2188 9.272 54.2188 10.392C54.2188 10.952 54.1788 11.376 54.0988 11.664H44.8828C44.9948 12.64 45.3868 13.44 46.0588 14.064C46.7308 14.672 47.5388 14.976 48.4828 14.976C49.1548 14.976 49.7468 14.824 50.2588 14.52C50.7708 14.216 51.1548 13.824 51.4108 13.344H53.8828C53.5148 14.416 52.8668 15.304 51.9388 16.008C51.0108 16.696 49.8588 17.04 48.4828 17.04ZM51.8668 9.84C51.7868 8.88 51.4348 8.088 50.8108 7.464C50.1868 6.84 49.4108 6.528 48.4828 6.528C47.5228 6.528 46.7148 6.84 46.0588 7.464C45.4028 8.088 45.0108 8.88 44.8828 9.84H51.8668Z" fill="#B1B5C4"/>
<path d="M60.3971 17.04C59.3251 17.04 58.4051 16.848 57.6371 16.464C56.8851 16.08 56.3171 15.6 55.9331 15.024C55.5491 14.432 55.3571 13.832 55.3571 13.224H57.7091C57.7091 13.72 57.9411 14.144 58.4051 14.496C58.8851 14.848 59.5491 15.024 60.3971 15.024C61.2451 15.024 61.8851 14.88 62.3171 14.592C62.7651 14.288 62.9891 13.912 62.9891 13.464C62.9891 13.032 62.8451 12.688 62.5571 12.432C62.2691 12.176 61.7971 11.992 61.1411 11.88L59.1731 11.544C56.7571 11.128 55.5491 9.976 55.5491 8.088C55.5491 7.048 55.9571 6.192 56.7731 5.52C57.5891 4.832 58.7571 4.488 60.2771 4.488C61.2851 4.488 62.1571 4.672 62.8931 5.04C63.6451 5.408 64.2131 5.88 64.5971 6.456C64.9971 7.032 65.1971 7.64 65.1971 8.28H62.8691C62.8691 7.784 62.6291 7.368 62.1491 7.032C61.6851 6.68 61.0611 6.504 60.2771 6.504C59.5091 6.504 58.9171 6.656 58.5011 6.96C58.1011 7.264 57.9011 7.64 57.9011 8.088C57.9011 8.456 58.0371 8.76 58.3091 9C58.5971 9.24 59.0531 9.416 59.6771 9.528L61.6691 9.864C62.9171 10.072 63.8371 10.472 64.4291 11.064C65.0371 11.656 65.3411 12.448 65.3411 13.44C65.3411 14.48 64.9091 15.344 64.0451 16.032C63.1971 16.704 61.9811 17.04 60.3971 17.04Z" fill="#B1B5C4"/>
<path d="M70.5437 16.8C69.7277 16.8 69.0877 16.584 68.6237 16.152C68.1757 15.704 67.9517 15.104 67.9517 14.352V6.96H66.0317V4.728H67.9517V1.224H70.3277V4.728H73.0877V6.96H70.3277V13.872C70.3277 14.368 70.5757 14.616 71.0717 14.616H73.0877V16.8H70.5437Z" fill="#B1B5C4"/>
<path d="M0 40.8V24H5.832C7.352 24 8.728 24.36 9.96 25.08C11.192 25.8 12.152 26.8 12.84 28.08C13.544 29.36 13.896 30.8 13.896 32.4C13.896 34 13.544 35.44 12.84 36.72C12.152 38 11.192 39 9.96 39.72C8.728 40.44 7.352 40.8 5.832 40.8H0ZM5.832 38.4C6.872 38.4 7.816 38.152 8.664 37.656C9.512 37.144 10.176 36.432 10.656 35.52C11.136 34.608 11.376 33.568 11.376 32.4C11.376 31.232 11.136 30.192 10.656 29.28C10.176 28.368 9.512 27.664 8.664 27.168C7.816 26.656 6.872 26.4 5.832 26.4H2.52V38.4H5.832Z" fill="#B1B5C4"/>
<path d="M21.435 41.04C20.315 41.04 19.299 40.776 18.387 40.248C17.475 39.704 16.755 38.96 16.227 38.016C15.715 37.056 15.459 35.968 15.459 34.752C15.459 33.552 15.715 32.48 16.227 31.536C16.755 30.576 17.475 29.832 18.387 29.304C19.299 28.76 20.315 28.488 21.435 28.488C22.507 28.488 23.475 28.744 24.339 29.256C25.219 29.768 25.907 30.472 26.403 31.368C26.915 32.264 27.171 33.272 27.171 34.392C27.171 34.952 27.131 35.376 27.051 35.664H17.835C17.947 36.64 18.339 37.44 19.011 38.064C19.683 38.672 20.491 38.976 21.435 38.976C22.107 38.976 22.699 38.824 23.211 38.52C23.723 38.216 24.107 37.824 24.363 37.344H26.835C26.467 38.416 25.819 39.304 24.891 40.008C23.963 40.696 22.811 41.04 21.435 41.04ZM24.819 33.84C24.739 32.88 24.387 32.088 23.763 31.464C23.139 30.84 22.363 30.528 21.435 30.528C20.475 30.528 19.667 30.84 19.011 31.464C18.355 32.088 17.963 32.88 17.835 33.84H24.819Z" fill="#B1B5C4"/>
<path d="M35.2989 40.8H31.8189L27.5709 28.728H30.0669L33.3309 38.112H33.8109L37.0749 28.728H39.5709L35.2989 40.8Z" fill="#B1B5C4"/>
<path d="M45.8813 41.04C44.7613 41.04 43.7453 40.776 42.8333 40.248C41.9213 39.704 41.2013 38.96 40.6733 38.016C40.1613 37.056 39.9053 35.968 39.9053 34.752C39.9053 33.552 40.1613 32.48 40.6733 31.536C41.2013 30.576 41.9213 29.832 42.8333 29.304C43.7453 28.76 44.7613 28.488 45.8813 28.488C46.9533 28.488 47.9212 28.744 48.7853 29.256C49.6653 29.768 50.3533 30.472 50.8493 31.368C51.3613 32.264 51.6173 33.272 51.6173 34.392C51.6173 34.952 51.5773 35.376 51.4973 35.664H42.2812C42.3932 36.64 42.7853 37.44 43.4573 38.064C44.1293 38.672 44.9373 38.976 45.8813 38.976C46.5533 38.976 47.1453 38.824 47.6573 38.52C48.1693 38.216 48.5532 37.824 48.8092 37.344H51.2812C50.9132 38.416 50.2653 39.304 49.3373 40.008C48.4093 40.696 47.2573 41.04 45.8813 41.04ZM49.2653 33.84C49.1852 32.88 48.8333 32.088 48.2093 31.464C47.5853 30.84 46.8093 30.528 45.8813 30.528C44.9213 30.528 44.1133 30.84 43.4573 31.464C42.8013 32.088 42.4092 32.88 42.2812 33.84H49.2653Z" fill="#B1B5C4"/>
<path d="M56.1876 40.8H53.8116V24H56.1876V40.8Z" fill="#B1B5C4"/>
<path d="M64.3275 41.04C63.2075 41.04 62.1915 40.776 61.2795 40.248C60.3675 39.704 59.6475 38.96 59.1195 38.016C58.6075 37.056 58.3515 35.968 58.3515 34.752C58.3515 33.552 58.6075 32.48 59.1195 31.536C59.6475 30.576 60.3675 29.832 61.2795 29.304C62.1915 28.76 63.2075 28.488 64.3275 28.488C65.4475 28.488 66.4555 28.76 67.3515 29.304C68.2635 29.832 68.9755 30.576 69.4875 31.536C70.0155 32.48 70.2795 33.552 70.2795 34.752C70.2795 35.968 70.0155 37.056 69.4875 38.016C68.9755 38.96 68.2635 39.704 67.3515 40.248C66.4555 40.776 65.4475 41.04 64.3275 41.04ZM64.3275 38.832C64.9835 38.832 65.5835 38.664 66.1275 38.328C66.6875 37.992 67.1275 37.512 67.4475 36.888C67.7675 36.264 67.9275 35.552 67.9275 34.752C67.9275 33.952 67.7675 33.248 67.4475 32.64C67.1275 32.016 66.6875 31.536 66.1275 31.2C65.5835 30.864 64.9835 30.696 64.3275 30.696C63.6715 30.696 63.0635 30.864 62.5035 31.2C61.9595 31.536 61.5275 32.016 61.2075 32.64C60.8875 33.248 60.7275 33.952 60.7275 34.752C60.7275 35.552 60.8875 36.264 61.2075 36.888C61.5275 37.512 61.9595 37.992 62.5035 38.328C63.0635 38.664 63.6715 38.832 64.3275 38.832Z" fill="#B1B5C4"/>
<path d="M72.3488 45.6V28.728H74.3888L74.6288 30.264H74.7488C75.6768 29.08 76.9248 28.488 78.4928 28.488C79.5328 28.488 80.4768 28.752 81.3248 29.28C82.1728 29.808 82.8368 30.552 83.3168 31.512C83.8128 32.456 84.0608 33.536 84.0608 34.752C84.0608 35.968 83.8128 37.056 83.3168 38.016C82.8368 38.976 82.1728 39.72 81.3248 40.248C80.4768 40.776 79.5328 41.04 78.4928 41.04C77.6927 41.04 76.9888 40.888 76.3808 40.584C75.7728 40.28 75.2607 39.864 74.8447 39.336H74.7248V45.6H72.3488ZM78.2048 38.832C78.8288 38.832 79.4048 38.664 79.9328 38.328C80.4768 37.992 80.9007 37.512 81.2048 36.888C81.5247 36.264 81.6848 35.552 81.6848 34.752C81.6848 33.952 81.5247 33.248 81.2048 32.64C80.9007 32.016 80.4768 31.536 79.9328 31.2C79.4048 30.864 78.8288 30.696 78.2048 30.696C77.5807 30.696 76.9967 30.864 76.4528 31.2C75.9248 31.536 75.5008 32.016 75.1808 32.64C74.8768 33.248 74.7248 33.952 74.7248 34.752C74.7248 35.552 74.8768 36.264 75.1808 36.888C75.5008 37.512 75.9248 37.992 76.4528 38.328C76.9967 38.664 77.5807 38.832 78.2048 38.832Z" fill="#B1B5C4"/>
<path d="M86.0953 40.8V28.728H88.1353L88.3753 29.976H88.4953C88.7993 29.592 89.2233 29.248 89.7673 28.944C90.3113 28.64 90.9033 28.488 91.5433 28.488C92.3753 28.488 93.0953 28.688 93.7033 29.088C94.3273 29.488 94.7593 29.928 94.9993 30.408H95.1193C95.4393 29.912 95.9433 29.472 96.6313 29.088C97.3353 28.688 98.1193 28.488 98.9833 28.488C99.8153 28.488 100.559 28.696 101.215 29.112C101.887 29.512 102.415 30.072 102.799 30.792C103.183 31.512 103.375 32.336 103.375 33.264V40.8H100.999V33.408C100.999 32.576 100.775 31.92 100.327 31.44C99.8953 30.96 99.3113 30.72 98.5753 30.72C97.8553 30.72 97.2313 30.984 96.7033 31.512C96.1753 32.024 95.9113 32.656 95.9113 33.408V40.8H93.5593V33.408C93.5593 32.592 93.3353 31.944 92.8873 31.464C92.4393 30.968 91.8473 30.72 91.1113 30.72C90.3913 30.72 89.7673 30.984 89.2393 31.512C88.7273 32.024 88.4713 32.656 88.4713 33.408V40.8H86.0953Z" fill="#B1B5C4"/>
<path d="M111.333 41.04C110.213 41.04 109.197 40.776 108.285 40.248C107.373 39.704 106.653 38.96 106.125 38.016C105.613 37.056 105.357 35.968 105.357 34.752C105.357 33.552 105.613 32.48 106.125 31.536C106.653 30.576 107.373 29.832 108.285 29.304C109.197 28.76 110.213 28.488 111.333 28.488C112.405 28.488 113.373 28.744 114.237 29.256C115.117 29.768 115.805 30.472 116.301 31.368C116.813 32.264 117.069 33.272 117.069 34.392C117.069 34.952 117.029 35.376 116.949 35.664H107.733C107.845 36.64 108.237 37.44 108.909 38.064C109.581 38.672 110.389 38.976 111.333 38.976C112.005 38.976 112.597 38.824 113.109 38.52C113.621 38.216 114.005 37.824 114.261 37.344H116.733C116.365 38.416 115.717 39.304 114.789 40.008C113.861 40.696 112.709 41.04 111.333 41.04ZM114.717 33.84C114.637 32.88 114.285 32.088 113.661 31.464C113.037 30.84 112.261 30.528 111.333 30.528C110.373 30.528 109.565 30.84 108.909 31.464C108.253 32.088 107.861 32.88 107.733 33.84H114.717Z" fill="#B1B5C4"/>
<path d="M119.143 40.8V28.728H121.183L121.423 29.976H121.543C121.847 29.592 122.311 29.248 122.935 28.944C123.559 28.64 124.279 28.488 125.095 28.488C126.023 28.488 126.847 28.704 127.567 29.136C128.303 29.552 128.871 30.144 129.271 30.912C129.687 31.68 129.895 32.56 129.895 33.552V40.8H127.519V33.744C127.519 32.88 127.239 32.16 126.679 31.584C126.119 31.008 125.423 30.72 124.591 30.72C124.031 30.72 123.511 30.856 123.031 31.128C122.567 31.4 122.199 31.768 121.927 32.232C121.655 32.696 121.519 33.2 121.519 33.744V40.8H119.143Z" fill="#B1B5C4"/>
<path d="M135.855 40.8C135.039 40.8 134.399 40.584 133.935 40.152C133.487 39.704 133.263 39.104 133.263 38.352V30.96H131.343V28.728H133.263V25.224H135.639V28.728H138.399V30.96H135.639V37.872C135.639 38.368 135.887 38.616 136.383 38.616H138.399V40.8H135.855Z" fill="#B1B5C4"/>
</svg>
