<svg width="24" height="24" viewBox="0 0 24 24" fill="none" xmlns="http://www.w3.org/2000/svg">
<g id="Brush">
<path id="Shape" d="M9.65713 16.4804L6.64419 20.6985C5.7836 21.9033 4.04715 22.047 3.0002 21.0001C1.95325 19.9531 2.09697 18.2167 3.30178 17.3561L7.51991 14.3431C7.77133 14.1636 7.80132 13.8012 7.58284 13.5827L5.41441 11.4143C4.63336 10.6332 4.63336 9.36691 5.41441 8.58586L6.14665 7.85363C6.34191 7.65837 6.65849 7.65837 6.85375 7.85363L16.1466 17.1465C16.3419 17.3418 16.3419 17.6584 16.1466 17.8536L15.4144 18.5859C14.6334 19.3669 13.367 19.3669 12.586 18.5859L10.4176 16.4174C10.1991 16.199 9.83672 16.2289 9.65713 16.4804Z" fill="currentColor"/>
<path id="Shape_2" d="M17.6464 15.6465L8.35348 6.35356C8.15822 6.1583 8.15822 5.84171 8.35348 5.64645L11.0857 2.91422C11.8668 2.13317 13.1331 2.13317 13.9141 2.91422L21.0857 10.0858C21.8668 10.8668 21.8668 12.1332 21.0857 12.9142L18.3535 15.6465C18.1582 15.8417 17.8416 15.8417 17.6464 15.6465Z" fill="currentColor"/>
</g>
</svg>
