<svg width="24" height="24" viewBox="0 0 24 24" fill="none" xmlns="http://www.w3.org/2000/svg">
<g id="Phone">
<path id="Shape" d="M19.5526 18.4475L17.9811 20.019C17.9811 20.019 13.8978 21.769 8.06446 15.9357C2.23112 10.1023 3.98112 6.019 3.98112 6.019L5.55262 4.44751C6.26259 3.73753 7.43679 3.82098 8.03922 4.62423L9.53922 6.62423C10.0319 7.28109 9.96655 8.20025 9.38595 8.78085L8.06446 10.1023C8.06446 10.1023 8.06446 11.269 10.3978 13.6023C12.7311 15.9357 13.8978 15.9357 13.8978 15.9357L15.2193 14.6142C15.7999 14.0336 16.7191 13.9683 17.3759 14.4609L19.3759 15.9609C20.1792 16.5634 20.2626 17.7376 19.5526 18.4475Z" fill="currentColor"/>
</g>
</svg>
