<svg width="24" height="24" viewBox="0 0 24 24" fill="none" xmlns="http://www.w3.org/2000/svg">
<path d="M11.9999 2C12.5411 2 12.9803 2.50196 12.9803 3.12157V5.97647C12.9803 6.59608 12.5411 7.09804 11.9999 7.09804C11.4587 7.09804 11.0195 6.59608 11.0195 5.97647V3.12157C11.0195 2.50196 11.4587 2 11.9999 2Z" fill="currentColor"/>
<path d="M19.0707 4.92944C19.4531 5.31179 19.408 5.97846 18.9707 6.41571L16.9511 8.43532C16.5139 8.87257 15.8472 8.91767 15.4648 8.53532C15.0825 8.15297 15.1276 7.4863 15.5648 7.04904L17.5844 5.02944C18.0217 4.59218 18.6884 4.54708 19.0707 4.92944Z" fill="currentColor"/>
<path d="M21.9999 11.9999C21.9999 12.5411 21.4979 12.9803 20.8783 12.9803H18.0234C17.4038 12.9803 16.9019 12.5411 16.9019 11.9999C16.9019 11.4587 17.4038 11.0195 18.0234 11.0195H20.8783C21.4979 11.0195 21.9999 11.4587 21.9999 11.9999Z" fill="currentColor"/>
<path d="M19.0707 19.0705C18.6884 19.4528 18.0217 19.4077 17.5844 18.9705L15.5648 16.9509C15.1276 16.5136 15.0825 15.8469 15.4648 15.4646C15.8472 15.0822 16.5139 15.1273 16.9511 15.5646L18.9707 17.5842C19.408 18.0215 19.4531 18.6881 19.0707 19.0705Z" fill="currentColor"/>
<path d="M11.9999 21.9999C11.4587 21.9999 11.0195 21.4979 11.0195 20.8783V18.0234C11.0195 17.4038 11.4587 16.9019 11.9999 16.9019C12.5411 16.9019 12.9803 17.4038 12.9803 18.0234V20.8783C12.9803 21.4979 12.5411 21.9999 11.9999 21.9999Z" fill="currentColor"/>
<path d="M4.92919 19.0705C4.54684 18.6881 4.59194 18.0215 5.02919 17.5842L7.0488 15.5646C7.48605 15.1273 8.15272 15.0822 8.53507 15.4646C8.91743 15.8469 8.87233 16.5136 8.43507 16.9509L6.41547 18.9705C5.97821 19.4077 5.31154 19.4528 4.92919 19.0705Z" fill="currentColor"/>
<path d="M2 11.9999C2 11.4587 2.50196 11.0195 3.12157 11.0195H5.97647C6.59608 11.0195 7.09804 11.4587 7.09804 11.9999C7.09804 12.5411 6.59608 12.9803 5.97647 12.9803H3.12157C2.50196 12.9803 2 12.5411 2 11.9999Z" fill="currentColor"/>
<path d="M4.92919 4.92944C5.31154 4.54708 5.97821 4.59218 6.41547 5.02944L8.43507 7.04904C8.87233 7.4863 8.91743 8.15297 8.53507 8.53532C8.15272 8.91767 7.48605 8.87257 7.0488 8.43532L5.02919 6.41571C4.59194 5.97846 4.54684 5.31179 4.92919 4.92944Z" fill="currentColor"/>
</svg>
