<svg width="24" height="24" viewBox="0 0 24 24" fill="none" xmlns="http://www.w3.org/2000/svg">
    <path d="M12.0035 3.00003C7.03906 3.00003 3.00177 7.03584 3.00001 11.9965C2.99756 13.6904 3.47457 15.3504 4.37589 16.7846L4.59002 17.125L3.68066 20.4449L7.08704 19.5517L7.41596 19.7465C8.79744 20.5664 10.3814 21 11.9967 21.0009H12.0001C16.9608 21.0009 20.998 16.9646 21 12.0037C21.0037 10.8213 20.7729 9.64985 20.3208 8.55725C19.8687 7.46465 19.2044 6.47258 18.3664 5.63847C17.5329 4.7998 16.5414 4.13476 15.4492 3.68187C14.357 3.22898 13.1859 2.99723 12.0035 3.00003Z" fill="url(#paint0_linear_2_714)"/>
    <path fill-rule="evenodd" clip-rule="evenodd" d="M9.57178 7.43576C9.38524 7.02139 9.18895 7.013 9.01175 7.00582L8.5347 7C8.36874 7 8.09908 7.06227 7.87111 7.31135C7.64315 7.56044 7 8.16243 7 9.38686C7 10.6113 7.89182 11.7944 8.0161 11.9607C8.14037 12.1269 9.73774 14.7197 12.2674 15.7172C14.3696 16.5462 14.7974 16.3813 15.2538 16.3399C15.7103 16.2985 16.7263 15.7379 16.9335 15.1568C17.1408 14.5756 17.1409 14.0777 17.0788 13.9736C17.0166 13.8695 16.8507 13.8077 16.6016 13.6831C16.3525 13.5586 15.1292 12.9566 14.9011 12.8735C14.673 12.7904 14.5071 12.7491 14.341 12.9982C14.1749 13.2472 13.6986 13.8075 13.5533 13.9736C13.4081 14.1397 13.2631 14.1606 13.014 14.0362C12.7649 13.9118 11.9635 13.6489 11.0127 12.8011C10.2729 12.1414 9.77348 11.3267 9.62809 11.0778C9.48271 10.8288 9.61266 10.694 9.73747 10.57C9.84915 10.4585 9.98629 10.2794 10.111 10.1341C10.2356 9.98886 10.2767 9.88503 10.3595 9.7192C10.4424 9.55337 10.4011 9.40771 10.3388 9.2833C10.2765 9.1589 9.79298 7.92797 9.57178 7.43576Z" fill="white"/>
    <defs>
        <linearGradient id="paint0_linear_2_714" x1="11.8168" y1="4.08025" x2="11.908" y2="19.4631" gradientUnits="userSpaceOnUse">
            <stop stop-color="#57D163"/>
            <stop offset="1" stop-color="#23B33A"/>
        </linearGradient>
    </defs>
</svg>
