<svg width="282" height="80" viewBox="0 0 282 80" fill="none" xmlns="http://www.w3.org/2000/svg">
<path d="M242 1H79C43.2295 1 25.3443 1 13.848 11.6271C13.0789 12.338 12.338 13.0789 11.6271 13.848C1 25.3443 1 43.2295 1 79H242C263.539 79 281 61.5391 281 40C281 18.4609 263.539 1 242 1Z" stroke="url(#paint0_linear_2815_28571)"/>
<path d="M63.5 40C63.5 52.4163 53.2127 62.5 40.5 62.5C27.7873 62.5 17.5 52.4163 17.5 40C17.5 27.5837 27.7873 17.5 40.5 17.5C53.2127 17.5 63.5 27.5837 63.5 40Z" stroke="#141416"/>
<path opacity="0.3" d="M114.5 40C114.5 52.4163 104.213 62.5 91.5 62.5C78.7873 62.5 68.5 52.4163 68.5 40C68.5 27.5837 78.7873 17.5 91.5 17.5C104.213 17.5 114.5 27.5837 114.5 40Z" stroke="#141416"/>
<path opacity="0.2" d="M165.5 40C165.5 52.4163 155.213 62.5 142.5 62.5C129.787 62.5 119.5 52.4163 119.5 40C119.5 27.5837 129.787 17.5 142.5 17.5C155.213 17.5 165.5 27.5837 165.5 40Z" stroke="#141416"/>
<path opacity="0.1" d="M216.5 40C216.5 52.4163 206.213 62.5 193.5 62.5C180.787 62.5 170.5 52.4163 170.5 40C170.5 27.5837 180.787 17.5 193.5 17.5C206.213 17.5 216.5 27.5837 216.5 40Z" stroke="#141416"/>
<path opacity="0.05" d="M267.5 40C267.5 52.4163 257.213 62.5 244.5 62.5C231.787 62.5 221.5 52.4163 221.5 40C221.5 27.5837 231.787 17.5 244.5 17.5C257.213 17.5 267.5 27.5837 267.5 40Z" stroke="#141416"/>
<defs>
<linearGradient id="paint0_linear_2815_28571" x1="0.999998" y1="40" x2="266" y2="40" gradientUnits="userSpaceOnUse">
<stop stop-color="#141416"/>
<stop offset="1" stop-color="#141416" stop-opacity="0"/>
</linearGradient>
</defs>
</svg>
