<svg xmlns="http://www.w3.org/2000/svg" width="20" height="20" fill="none"><path fill="#3AA830" d="M4.583 3.667a8.317 8.317 0 0 1 2.876 5.5h1.707v-7.46a8.434 8.434 0 0 1 1.667 0v7.46h1.708a8.317 8.317 0 0 1 2.875-5.5c.424.363.81.767 1.154 1.207a6.656 6.656 0 0 0-2.352 4.292h4.074a8.437 8.437 0 0 1 0 1.667h-4.074a6.656 6.656 0 0 0 2.352 4.293c-.343.44-.73.844-1.154 1.207a8.317 8.317 0 0 1-2.875-5.5h-1.708v7.459a8.437 8.437 0 0 1-1.667 0v-7.459H7.46a8.317 8.317 0 0 1-2.876 5.5 8.38 8.38 0 0 1-1.154-1.207 6.657 6.657 0 0 0 2.353-4.293H1.708a8.434 8.434 0 0 1 0-1.667h4.074a6.657 6.657 0 0 0-2.353-4.292c.344-.44.73-.844 1.154-1.207Z"/><path fill="#3AA830" fill-rule="evenodd" d="M10 16.666a6.667 6.667 0 1 0 0-13.333 6.667 6.667 0 0 0 0 13.333Zm0 1.667a8.333 8.333 0 1 0 0-16.667 8.333 8.333 0 0 0 0 16.667Z" clip-rule="evenodd"/></svg>