<svg xmlns="http://www.w3.org/2000/svg" width="20" height="20" fill="none"><path fill="#777E91" fill-rule="evenodd" d="M16.666 15V9.167c0-.92-.746-1.667-1.666-1.667H5c-.92 0-1.667.746-1.667 1.667V15c0 .92.746 1.667 1.667 1.667h10c.92 0 1.666-.746 1.666-1.667ZM5 5.834a3.333 3.333 0 0 0-3.333 3.333V15A3.333 3.333 0 0 0 5 18.334h10A3.333 3.333 0 0 0 18.333 15V9.167A3.333 3.333 0 0 0 15 5.834H5Z" clip-rule="evenodd"/><path fill="#777E91" fill-rule="evenodd" d="M7.5 3.333a.833.833 0 0 0-.833.833v2.5a.833.833 0 0 1-1.667 0v-2.5a2.5 2.5 0 0 1 2.5-2.5h5a2.5 2.5 0 0 1 2.5 2.5v2.5a.833.833 0 1 1-1.667 0v-2.5a.833.833 0 0 0-.833-.833h-5Z" clip-rule="evenodd"/></svg>