<svg xmlns="http://www.w3.org/2000/svg" width="20" height="20" fill="none"><path fill="#B2461A" d="M10 1.667a.833.833 0 0 0-.834.833v1.667a.833.833 0 0 0 1.667 0V2.5A.833.833 0 0 0 10 1.667ZM10 15a.833.833 0 0 0-.834.833V17.5a.833.833 0 1 0 1.667 0v-1.667A.833.833 0 0 0 10 15ZM17.5 9.166a.833.833 0 1 1 0 1.667h-1.667a.833.833 0 1 1 0-1.667H17.5ZM5 10a.833.833 0 0 0-.833-.834H2.5a.833.833 0 0 0 0 1.667h1.667c.46 0 .833-.373.833-.833ZM14.714 4.107a.833.833 0 0 1 1.178 1.179l-1.178 1.178a.833.833 0 1 1-1.179-1.178l1.179-1.179ZM6.464 13.536a.833.833 0 0 0-1.178 0l-1.179 1.178a.833.833 0 1 0 1.179 1.178l1.178-1.178a.833.833 0 0 0 0-1.178ZM15.892 14.714a.833.833 0 1 1-1.178 1.178l-1.179-1.178a.833.833 0 0 1 1.179-1.179l1.178 1.179ZM6.464 6.464a.833.833 0 0 0 0-1.178L5.286 4.107a.833.833 0 0 0-1.179 1.179l1.179 1.178a.833.833 0 0 0 1.178 0Z"/><path fill="#B2461A" fill-rule="evenodd" d="M10 11.666a1.667 1.667 0 1 0 0-3.333 1.667 1.667 0 0 0 0 3.333Zm0 1.667a3.333 3.333 0 1 0 0-6.667 3.333 3.333 0 0 0 0 6.667Z" clip-rule="evenodd"/></svg>