<svg xmlns="http://www.w3.org/2000/svg" width="20" height="20" fill="none"><path fill="#6439DF" fill-rule="evenodd" d="M15.833 10h-4.166v6.667h4.166c.46 0 .834-.373.834-.834v-5a.833.833 0 0 0-.834-.833ZM10 8.334v10h5.833a2.5 2.5 0 0 0 2.5-2.5v-5a2.5 2.5 0 0 0-2.5-2.5H10Z" clip-rule="evenodd"/><path fill="#6439DF" d="M15 12.5a.833.833 0 1 0-1.666 0 .833.833 0 0 0 1.666 0ZM15 15a.833.833 0 1 0-1.666 0A.833.833 0 0 0 15 15Z"/><path fill="#6439DF" fill-rule="evenodd" d="M4.167 18.333a2.5 2.5 0 0 1-2.5-2.5V4.167a2.5 2.5 0 0 1 2.5-2.5h5a2.5 2.5 0 0 1 2.5 2.5v14.166h-7.5Zm0-15h5c.46 0 .833.373.833.833v12.5H8.333v-.833A.833.833 0 0 0 7.5 15H5.833a.833.833 0 0 0-.833.833v.833h-.833a.833.833 0 0 1-.834-.833V4.167c0-.46.373-.834.833-.834Z" clip-rule="evenodd"/><path fill="#6439DF" d="M7.5 5a.833.833 0 0 1 0 1.667H5.833a.833.833 0 0 1 0-1.667H7.5ZM7.5 8.333A.833.833 0 0 1 7.5 10H5.833a.833.833 0 0 1 0-1.667H7.5ZM8.333 12.5a.833.833 0 0 0-.833-.833H5.833a.833.833 0 0 0 0 1.666H7.5c.46 0 .833-.373.833-.833Z"/></svg>