<svg width="180" height="133" viewBox="0 0 180 133" fill="none" xmlns="http://www.w3.org/2000/svg">
<g id="Group 8804">
<path id="Vector" d="M6.02497 106.718C7.21215 106.575 8.35928 106.199 9.40031 105.61C11.4658 104.331 13.5212 103.041 15.3953 101.751L33.9546 89.6605C36.3929 88.008 36.3929 87.8267 34.5188 85.6302C34.3274 85.4488 34.136 85.0861 33.9546 84.8947C33.2988 83.969 32.3547 83.2869 31.2699 82.9551C30.1852 82.6233 29.021 82.6605 27.9596 83.0609C23.9595 84.1315 20.2465 86.0758 17.088 88.7537C12.734 92.4387 9.05516 96.854 6.21641 101.802C5.44245 103.027 4.93125 104.399 4.71515 105.832C4.52371 106.567 4.8965 106.94 6.02497 106.759M38.267 85.9929C38.8312 85.8115 39.0126 85.2574 39.204 85.076C42.0151 80.1087 45.199 75.5143 48.3829 70.9198C52.8867 64.1187 57.5719 57.5091 62.257 50.7081C64.2722 47.5846 66.5694 44.6627 68.4435 41.5191C71.8188 36.5619 75.5669 31.5946 79.1236 26.6374C82.499 21.4888 86.4385 16.7129 90.2068 11.7557C91.8894 9.36781 93.3907 6.78845 95.2446 4.58189C96.4333 3.06154 97.8191 1.70622 99.3655 0.55164C100.494 -0.18388 101.381 -0.18388 101.995 0.55164C102.741 1.28716 102.549 2.02268 101.995 2.93956C101.373 4.02294 100.683 5.06615 99.9298 6.06301C97.4915 8.82373 95.436 11.7658 93.1791 14.7079L90.9323 17.4585C85.3101 24.6223 80.0607 31.7961 74.8113 39.1413C70.8818 44.6526 66.9422 50.164 63.0026 55.8668C58.1361 62.2951 53.8237 69.0961 49.1386 75.7057C45.7632 80.3002 42.7607 85.0861 39.7682 89.6705L25.6624 111.726C21.9142 117.973 17.7933 124.038 13.8537 130.104C13.4474 130.998 12.8766 131.808 12.1711 132.492C12.0644 132.633 11.9295 132.75 11.7751 132.837C11.6206 132.923 11.45 132.977 11.2739 132.994C11.0977 133.011 10.92 132.991 10.7519 132.936C10.5838 132.881 10.4289 132.791 10.2971 132.673C9.73282 132.311 9.92425 131.575 10.1056 131.021C11.2341 129.55 12.3625 128.079 13.2996 126.608C16.3223 121.651 19.345 116.532 22.4785 111.545C26.418 105.298 30.3475 98.8595 34.0957 92.6126C34.6943 92.0139 35.0891 91.2418 35.2241 90.406C32.7858 92.0685 30.539 93.7209 28.2921 95.3733C23.4155 98.8595 18.7303 102.356 13.8537 105.842C12.2433 106.936 10.5601 107.919 8.81593 108.784C7.94148 109.256 6.98927 109.566 6.00483 109.701C2.44813 110.255 -0.181619 108.048 0.009818 104.562C0.204141 102.871 0.579095 101.206 1.12823 99.595C3.44415 93.8962 7.27733 88.9409 12.2114 85.2675C15.3419 82.71 18.8949 80.7188 22.7102 79.3833C24.8848 78.6876 27.1773 78.4375 29.4508 78.6478C30.6738 78.6553 31.8766 78.9611 32.9547 79.5388C34.0328 80.1165 34.9536 80.9485 35.6372 81.9627C36.5743 83.2423 37.3299 84.5319 38.267 85.9929Z" fill="currentColor"/>
<path id="Vector_2" d="M73.1265 88.7029C72.7537 88.3401 73.1265 87.9673 73.3078 87.4233C74.0635 85.0353 72.9351 83.5643 70.4968 83.1915C68.7467 83.0807 67.0009 83.4648 65.4589 84.2998C60.8861 86.5208 56.9048 89.7942 53.8418 93.8515C51.9677 96.6022 50.275 99.5442 50.0936 102.859C50.0936 103.222 49.9022 103.585 49.9022 103.957C50.0936 106.718 51.0307 107.635 53.8418 107.635C55.5978 107.598 57.3217 107.157 58.8796 106.345C62.4363 104.693 65.8116 102.668 67.6856 99.0001C67.8771 98.6273 68.2499 98.2646 68.2499 97.8918C68.8141 96.7936 68.4413 96.2394 67.1315 96.0581H64.1088C63.59 96.0251 63.0815 95.8988 62.6075 95.6853C61.4891 95.1412 61.2977 94.2142 62.4161 93.4787C63.3627 92.784 64.4987 92.3945 65.6724 92.3621C66.8462 92.3297 68.0019 92.6559 68.9854 93.2973C69.7839 93.927 70.7803 94.2521 71.7965 94.2142C81.1668 94.0329 90.3457 94.0328 99.5347 93.6701C102.154 93.6701 104.572 93.4787 107.222 93.4787C107.777 93.4787 108.714 93.2973 108.714 94.2142C108.905 94.9497 107.777 94.9497 107.222 94.9497C106.354 95.1019 105.473 95.166 104.593 95.1412L86.2953 95.6853C81.8016 95.8767 77.2978 96.2394 72.6126 96.0581C72.1459 95.995 71.6727 96.112 71.289 96.3852C70.9054 96.6584 70.6402 97.0674 70.5471 97.5291C70.068 99.5119 69.1018 101.344 67.736 102.859C65.3469 105.458 62.4848 107.578 59.3027 109.106C56.28 110.386 52.9349 111.121 49.5596 110.023C48.3934 109.737 47.3255 109.143 46.4676 108.302C45.6097 107.462 44.9933 106.407 44.683 105.247C43.3732 100.471 44.5016 96.0581 47.3127 92.0177C49.1323 89.2494 51.4897 86.8749 54.2448 85.0353C57.9929 82.6474 61.741 80.8036 66.2448 80.2494C67.5357 80.0386 68.8569 80.1095 70.1178 80.4574C71.3787 80.8052 72.5494 81.4217 73.5497 82.2645C73.9936 82.674 74.3478 83.171 74.5901 83.7242C74.8324 84.2774 74.9575 84.8748 74.9575 85.4787C74.9575 86.0826 74.8324 86.68 74.5901 87.2331C74.3478 87.7863 73.9936 88.2833 73.5497 88.6928C73.5497 88.8741 73.3582 88.6928 73.1769 88.6928" fill="currentColor"/>
<path id="Vector_3" d="M143.851 87.3294C141.344 87.8575 138.939 88.7863 136.727 90.08C128.525 94.3204 121.008 99.772 114.43 106.251C112.929 107.722 112.173 108.095 111.407 107.541C109.906 106.433 110.843 105.335 111.216 104.236C112.842 100.649 114.659 97.1515 116.657 93.7576C118.687 90.5747 120.501 87.259 122.088 83.8332C122.46 83.279 123.025 82.5535 122.46 81.818C121.906 81.2639 121.151 81.9994 120.445 82.1807C116.802 83.6746 113.343 85.5849 110.138 87.8735C98.7532 95.064 88.4097 103.784 79.3972 113.788C78.7931 114.335 78.3417 115.029 78.0873 115.803C77.922 116.091 77.6675 116.318 77.3622 116.449C77.0569 116.58 76.7173 116.608 76.3947 116.529C76.0594 116.421 75.7768 116.192 75.6032 115.885C75.4295 115.579 75.3775 115.219 75.4576 114.876C75.8439 113.493 76.3461 112.145 76.9589 110.846C79.9816 105.335 83.3367 100.005 86.702 94.4931C89.3317 90.2614 91.9514 86.0397 94.9539 81.9994C96.0723 80.5283 97.2008 79.2386 98.3293 77.7676C98.8279 77.1807 99.4752 76.7387 100.203 76.488C100.638 76.3785 101.095 76.3891 101.524 76.5186C101.954 76.6482 102.34 76.8918 102.642 77.2235C102.931 77.5016 103.123 77.865 103.19 78.2604C103.257 78.6557 103.195 79.0622 103.014 79.42C102.5 80.4665 101.871 81.4531 101.14 82.3621C97.765 86.9566 94.1983 91.5511 90.833 96.1456C89.5372 97.8483 88.346 99.6283 87.2662 101.476C88.1341 101.027 88.8993 100.402 89.5131 99.6418C97.3478 92.2695 105.886 85.6821 115.004 79.9742C117.297 78.4115 119.829 77.2339 122.501 76.488C123.931 76.0463 125.477 76.1763 126.813 76.8508C127.85 77.2878 128.691 78.0904 129.176 79.1063C129.661 80.1223 129.756 81.2808 129.443 82.3621C129.021 84.2375 128.188 85.996 127.004 87.5107C125.13 90.08 123.065 92.8407 121.191 95.5712C120.818 96.1254 120.445 96.8609 119.881 97.5864C120.13 97.6339 120.387 97.6067 120.62 97.508C120.853 97.4094 121.052 97.2438 121.191 97.0322C126.569 92.5078 132.412 88.5663 138.622 85.274C139.932 84.7198 141.251 84.1757 142.37 83.8029C143.135 83.4503 143.966 83.2615 144.808 83.2487C148.183 83.0674 150.058 85.4553 149.493 88.5788C148.925 90.6623 148.042 92.6467 146.874 94.4629C145.937 96.2967 145 98.1405 144.063 99.7929C143.871 100.347 143.69 100.891 143.498 101.627C142.934 103.642 143.69 104.75 145.937 104.75C147.649 104.865 149.366 104.615 150.974 104.015C159.972 101.073 168.778 97.5864 177.594 93.7274C178.111 93.5242 178.61 93.2782 179.085 92.9919C179.277 92.9919 179.65 92.8105 179.841 93.1732C180.214 93.546 179.841 93.9088 179.65 94.0901C178.701 94.694 177.687 95.1875 176.627 95.5612C168.238 99.5591 159.595 102.999 150.753 105.858C148.906 106.593 146.936 106.966 144.949 106.957C143.529 106.988 142.152 106.47 141.104 105.511C140.057 104.552 139.42 103.225 139.327 101.808C139.189 100.238 139.445 98.6591 140.073 97.2136C140.737 94.7853 141.68 92.4422 142.884 90.2312C143.494 89.3755 143.822 88.3503 143.821 87.2992" fill="currentColor"/>
</g>
</svg>
