<svg xmlns="http://www.w3.org/2000/svg" width="20" height="20" fill="none"><path fill="#DE4242" fill-rule="evenodd" d="M14.167 1.667a4.167 4.167 0 0 1 4.167 4.166v5.833c0 .383-.26.716-.632.809L15 13.15v4.35a.833.833 0 1 1-1.666 0v-15c0-.46.373-.833.833-.833ZM15 11.431l1.667-.416V5.833A2.501 2.501 0 0 0 15 3.475v7.957Z" clip-rule="evenodd"/><path fill="#DE4242" d="M3.333 2.5a.833.833 0 1 0-1.667 0v3.333A4.168 4.168 0 0 0 5 9.916V17.5a.833.833 0 1 0 1.667 0V9.916A4.168 4.168 0 0 0 10 5.833V2.5a.833.833 0 0 0-1.667 0v3.333a2.501 2.501 0 0 1-1.667 2.358V2.5A.833.833 0 1 0 5 2.5v5.69a2.501 2.501 0 0 1-1.667-2.357V2.5Z"/></svg>