<svg xmlns="http://www.w3.org/2000/svg" width="20" height="20" fill="none"><path fill="#141416" fill-rule="evenodd" d="M10 16.666a6.667 6.667 0 1 0 0-13.333 6.667 6.667 0 0 0 0 13.333Zm0 1.667a8.333 8.333 0 1 0 0-16.667 8.333 8.333 0 0 0 0 16.667Z" clip-rule="evenodd"/><path fill="#141416" fill-rule="evenodd" d="M11.456 15.147C12.07 13.916 12.5 12.098 12.5 10c0-2.099-.429-3.916-1.044-5.147-.666-1.331-1.277-1.52-1.456-1.52-.18 0-.79.189-1.455 1.52C7.929 6.083 7.5 7.9 7.5 10c0 2.098.429 3.916 1.045 5.147.665 1.33 1.276 1.52 1.455 1.52.18 0 .79-.19 1.456-1.52ZM10 18.333c2.301 0 4.167-3.73 4.167-8.333S12.3 1.667 10 1.667C7.7 1.667 5.833 5.397 5.833 10c0 4.602 1.866 8.333 4.167 8.333Z" clip-rule="evenodd"/><path fill="#141416" fill-rule="evenodd" d="M18.292 10.833a8.437 8.437 0 0 0 0-1.667H1.708a8.434 8.434 0 0 0 0 1.667h16.584Z" clip-rule="evenodd"/></svg>