<svg width="282" height="99" viewBox="0 0 282 99" fill="none" xmlns="http://www.w3.org/2000/svg">
<path d="M70.6083 83.495C72.333 81.7703 72.2704 79.1741 71.1967 75.641C70.116 72.0849 67.9342 67.3402 65.0566 61.0821L65.0368 61.0389L61.8085 54.018C60.6334 51.4625 60.1203 50.321 60.1203 49.1174C60.1203 47.9139 60.6334 46.7723 61.8085 44.2168L65.0368 37.196L65.0567 37.1528C67.9342 30.8947 70.116 26.1499 71.1967 22.5938C72.2704 19.0607 72.333 16.4646 70.6083 14.7399C68.8836 13.0151 66.2874 13.0777 62.7543 14.1515C59.1982 15.2322 54.4534 17.4139 48.1953 20.2915L48.1522 20.3113L41.1313 23.5397C38.5758 24.7147 37.4342 25.2279 36.2307 25.2279C35.0272 25.2279 33.8856 24.7147 31.3301 23.5397L24.3092 20.3113L24.2662 20.2915C18.008 17.4139 13.2632 15.2322 9.70711 14.1515C6.17398 13.0777 3.57785 13.0151 1.85314 14.7399C0.128429 16.4646 0.191 19.0607 1.26473 22.5938C2.34545 26.1499 4.5272 30.8947 7.4048 37.1529L7.42462 37.196L10.6529 44.2168C11.828 46.7723 12.3412 47.9139 12.3412 49.1174C12.3412 50.321 11.828 51.4625 10.6529 54.018L7.42463 61.0389L7.40482 61.0819C4.52721 67.3401 2.34545 72.0849 1.26474 75.641C0.191002 79.1741 0.12843 81.7703 1.85314 83.495C3.57785 85.2197 6.17399 85.1571 9.70712 84.0834C13.2632 83.0027 18.008 80.821 24.266 77.9434L24.3093 77.9235L31.3301 74.6952C33.8856 73.5201 35.0272 73.007 36.2307 73.007C37.4343 73.007 38.5758 73.5201 41.1313 74.6952L48.1522 77.9235L48.1954 77.9434C54.4535 80.821 59.1982 83.0027 62.7543 84.0834C66.2874 85.1571 68.8836 85.2197 70.6083 83.495Z" stroke="#141416"/>
<path opacity="0.5" d="M106.946 63.7382L114.193 61.0564L114.238 61.0401C120.698 58.6496 125.595 56.8373 128.874 55.0869C132.132 53.3478 134.012 51.5563 134.012 49.1172C134.012 46.6781 132.132 44.8866 128.874 43.1476C125.596 41.3972 120.698 39.5848 114.238 37.1944L114.193 37.178L106.946 34.4963C104.308 33.5201 103.138 33.0758 102.287 32.2248C101.436 31.3737 100.992 30.2037 100.016 27.5658L97.3338 20.3185L97.3173 20.2741C94.927 13.8141 93.1146 8.91627 91.3642 5.63753C89.6252 2.37999 87.8337 0.5 85.3946 0.5C82.9555 0.5 81.164 2.37999 79.4249 5.63753C77.6745 8.91625 75.8622 13.8141 73.4718 20.274L73.4553 20.3185L70.7736 27.5658C69.7975 30.2037 69.3531 31.3737 68.5021 32.2248C67.6511 33.0758 66.481 33.5201 63.8431 34.4963L56.5958 37.178L56.5513 37.1945C50.0914 39.5848 45.1936 41.3972 41.9149 43.1476C38.6573 44.8866 36.7773 46.6781 36.7773 49.1172C36.7773 51.5563 38.6573 53.3478 41.9149 55.0869C45.1936 56.8373 50.0915 58.6496 56.5514 61.04L56.5958 61.0564L63.8431 63.7382C66.481 64.7143 67.6511 65.1586 68.5021 66.0097C69.3531 66.8607 69.7975 68.0308 70.7736 70.6687L73.4553 77.9159L73.4718 77.9604C75.8622 84.4203 77.6745 89.3182 79.4249 92.5969C81.164 95.8545 82.9555 97.7344 85.3946 97.7344C87.8337 97.7344 89.6252 95.8545 91.3642 92.5969C93.1146 89.3181 94.927 84.4203 97.3174 77.9602L97.3338 77.9159L100.016 70.6687C100.992 68.0308 101.436 66.8607 102.287 66.0097C103.138 65.1586 104.308 64.7143 106.946 63.7382Z" stroke="#141416"/>
<path opacity="0.3" d="M156.106 63.7382L163.353 61.0564L163.398 61.0401C169.858 58.6496 174.756 56.8373 178.034 55.0869C181.292 53.3478 183.172 51.5563 183.172 49.1172C183.172 46.6781 181.292 44.8866 178.034 43.1476C174.756 41.3972 169.858 39.5848 163.398 37.1944L163.353 37.178L156.106 34.4963C153.468 33.5201 152.298 33.0758 151.447 32.2248C150.596 31.3737 150.152 30.2037 149.176 27.5658L146.494 20.3185L146.478 20.2741C144.087 13.8141 142.275 8.91627 140.524 5.63753C138.785 2.37999 136.994 0.5 134.555 0.5C132.116 0.5 130.324 2.37999 128.585 5.63753C126.835 8.91625 125.022 13.8141 122.632 20.274L122.615 20.3185L119.934 27.5658C118.958 30.2037 118.513 31.3737 117.662 32.2248C116.811 33.0758 115.641 33.5201 113.003 34.4963L105.756 37.178L105.711 37.1945C99.2516 39.5848 94.3538 41.3972 91.075 43.1476C87.8175 44.8866 85.9375 46.6781 85.9375 49.1172C85.9375 51.5563 87.8175 53.3478 91.075 55.0869C94.3538 56.8373 99.2516 58.6496 105.712 61.04L105.756 61.0564L113.003 63.7382C115.641 64.7143 116.811 65.1586 117.662 66.0097C118.513 66.8607 118.958 68.0308 119.934 70.6687L122.615 77.9159L122.632 77.9604C125.022 84.4203 126.835 89.3182 128.585 92.5969C130.324 95.8545 132.116 97.7344 134.555 97.7344C136.994 97.7344 138.785 95.8545 140.524 92.5969C142.275 89.3181 144.087 84.4203 146.478 77.9602L146.494 77.9159L149.176 70.6687C150.152 68.0308 150.596 66.8607 151.447 66.0097C152.298 65.1586 153.468 64.7143 156.106 63.7382Z" stroke="#141416"/>
<path opacity="0.2" d="M205.27 63.7382L212.517 61.0564L212.562 61.0401C219.022 58.6496 223.92 56.8373 227.198 55.0869C230.456 53.3478 232.336 51.5563 232.336 49.1172C232.336 46.6781 230.456 44.8866 227.198 43.1476C223.92 41.3972 219.022 39.5848 212.562 37.1944L212.517 37.178L205.27 34.4963C202.632 33.5201 201.462 33.0758 200.611 32.2248C199.76 31.3737 199.316 30.2037 198.34 27.5658L195.658 20.3185L195.642 20.2741C193.251 13.8141 191.439 8.91627 189.688 5.63753C187.949 2.37999 186.158 0.5 183.719 0.5C181.28 0.5 179.488 2.37999 177.749 5.63753C175.999 8.91625 174.186 13.8141 171.796 20.274L171.78 20.3185L169.098 27.5658C168.122 30.2037 167.677 31.3737 166.826 32.2248C165.975 33.0758 164.805 33.5201 162.167 34.4963L154.92 37.178L154.876 37.1945C148.416 39.5848 143.518 41.3972 140.239 43.1476C136.982 44.8866 135.102 46.6781 135.102 49.1172C135.102 51.5563 136.982 53.3478 140.239 55.0869C143.518 56.8373 148.416 58.6496 154.876 61.04L154.92 61.0564L162.167 63.7382C164.805 64.7143 165.975 65.1586 166.826 66.0097C167.677 66.8607 168.122 68.0308 169.098 70.6687L171.78 77.9159L171.796 77.9604C174.186 84.4203 175.999 89.3182 177.749 92.5969C179.488 95.8545 181.28 97.7344 183.719 97.7344C186.158 97.7344 187.949 95.8545 189.688 92.5969C191.439 89.3181 193.251 84.4203 195.642 77.9602L195.658 77.9159L198.34 70.6687C199.316 68.0308 199.76 66.8607 200.611 66.0097C201.462 65.1586 202.632 64.7143 205.27 63.7382Z" stroke="#141416"/>
<path opacity="0.1" d="M254.434 63.7382L261.682 61.0564L261.726 61.0401C268.186 58.6496 273.084 56.8373 276.363 55.0869C279.62 53.3478 281.5 51.5563 281.5 49.1172C281.5 46.6781 279.62 44.8866 276.363 43.1476C273.084 41.3972 268.186 39.5848 261.726 37.1944L261.682 37.178L254.434 34.4963C251.796 33.5201 250.626 33.0758 249.775 32.2248C248.924 31.3737 248.48 30.2037 247.504 27.5658L244.822 20.3185L244.806 20.2741C242.415 13.8141 240.603 8.91627 238.853 5.63753C237.113 2.37999 235.322 0.5 232.883 0.5C230.444 0.5 228.652 2.37999 226.913 5.63753C225.163 8.91625 223.35 13.8141 220.96 20.274L220.944 20.3185L218.262 27.5658C217.286 30.2037 216.841 31.3737 215.99 32.2248C215.139 33.0758 213.969 33.5201 211.331 34.4963L204.084 37.178L204.04 37.1945C197.58 39.5848 192.682 41.3972 189.403 43.1476C186.146 44.8866 184.266 46.6781 184.266 49.1172C184.266 51.5563 186.146 53.3478 189.403 55.0869C192.682 56.8373 197.58 58.6496 204.04 61.04L204.084 61.0564L211.331 63.7382C213.969 64.7143 215.139 65.1586 215.99 66.0097C216.841 66.8607 217.286 68.0308 218.262 70.6687L220.944 77.9159L220.96 77.9604C223.35 84.4203 225.163 89.3182 226.913 92.5969C228.652 95.8545 230.444 97.7344 232.883 97.7344C235.322 97.7344 237.113 95.8545 238.853 92.5969C240.603 89.3181 242.415 84.4203 244.806 77.9602L244.822 77.9159L247.504 70.6687C248.48 68.0308 248.924 66.8607 249.775 66.0097C250.626 65.1586 251.796 64.7143 254.434 63.7382Z" stroke="#141416"/>
</svg>
