<svg width="40" height="40" viewBox="0 0 40 40" fill="none" xmlns="http://www.w3.org/2000/svg">
<path fill-rule="evenodd" clip-rule="evenodd" d="M31.667 33.3337C32.5875 33.3337 33.3337 32.5875 33.3337 31.667C33.3337 30.7465 32.5875 30.0003 31.667 30.0003C30.7465 30.0003 30.0003 30.7465 30.0003 31.667C30.0003 32.5875 30.7465 33.3337 31.667 33.3337ZM31.667 36.667C34.4284 36.667 36.667 34.4284 36.667 31.667C36.667 28.9056 34.4284 26.667 31.667 26.667C28.9056 26.667 26.667 28.9056 26.667 31.667C26.667 34.4284 28.9056 36.667 31.667 36.667Z" fill="#141416"/>
<path fill-rule="evenodd" clip-rule="evenodd" d="M25.8337 6.66634C23.5325 6.66634 21.667 8.53182 21.667 10.833V29.1663C21.667 33.3085 18.3091 36.6663 14.167 36.6663C10.0249 36.6663 6.66699 33.3085 6.66699 29.1663V16.6663C6.66699 15.7459 7.41318 14.9997 8.33366 14.9997C9.25413 14.9997 10.0003 15.7459 10.0003 16.6663V29.1663C10.0003 31.4675 11.8658 33.333 14.167 33.333C16.4682 33.333 18.3337 31.4675 18.3337 29.1663V10.833C18.3337 6.69087 21.6915 3.33301 25.8337 3.33301C29.9758 3.33301 33.3337 6.69087 33.3337 10.833V21.6663C33.3337 22.5868 32.5875 23.333 31.667 23.333C30.7465 23.333 30.0003 22.5868 30.0003 21.6663V10.833C30.0003 8.53182 28.1348 6.66634 25.8337 6.66634Z" fill="#141416"/>
<path d="M6.89357 4.1345C7.5367 3.03199 9.1297 3.03199 9.77284 4.1345L12.7044 9.16011C13.3526 10.2712 12.5511 11.6666 11.2648 11.6666H5.4016C4.11528 11.6666 3.31383 10.2712 3.96197 9.16011L6.89357 4.1345Z" fill="#141416"/>
</svg>
