<svg width="40" height="40" viewBox="0 0 40 40" fill="none" xmlns="http://www.w3.org/2000/svg">
<path fill-rule="evenodd" clip-rule="evenodd" d="M23.333 20.0003C23.333 18.1594 24.8254 16.667 26.6663 16.667H33.333C35.174 16.667 36.6663 18.1594 36.6663 20.0003V33.3337C36.6663 35.1746 35.174 36.667 33.333 36.667H26.6663C24.8254 36.667 23.333 35.1746 23.333 33.3337V20.0003ZM29.9997 23.3337C30.9201 23.3337 31.6663 24.0799 31.6663 25.0003C31.6663 25.9208 30.9201 26.667 29.9997 26.667C29.0792 26.667 28.333 25.9208 28.333 25.0003C28.333 24.0799 29.0792 23.3337 29.9997 23.3337ZM31.6663 30.0003C31.6663 29.0799 30.9201 28.3337 29.9997 28.3337C29.0792 28.3337 28.333 29.0799 28.333 30.0003C28.333 30.9208 29.0792 31.667 29.9997 31.667C30.9201 31.667 31.6663 30.9208 31.6663 30.0003Z" fill="#141416"/>
<path fill-rule="evenodd" clip-rule="evenodd" d="M6.66634 3.33301C4.82539 3.33301 3.33301 4.82539 3.33301 6.66634V33.333C3.33301 35.174 4.82539 36.6663 6.66634 36.6663C7.58682 36.6663 8.33301 35.9202 8.33301 34.9997V31.6663C8.33301 30.7459 9.0792 29.9997 9.99967 29.9997H13.333C14.2535 29.9997 14.9997 30.7459 14.9997 31.6663V34.9997C14.9997 35.9202 15.7459 36.6663 16.6663 36.6663C18.5073 36.6663 19.9997 35.174 19.9997 33.333V6.66634C19.9997 4.82539 18.5073 3.33301 16.6663 3.33301H6.66634ZM13.333 9.99967C14.2535 9.99967 14.9997 10.7459 14.9997 11.6663C14.9997 12.5868 14.2535 13.333 13.333 13.333H9.99967C9.0792 13.333 8.33301 12.5868 8.33301 11.6663C8.33301 10.7459 9.0792 9.99967 9.99967 9.99967H13.333ZM13.333 16.6663C14.2535 16.6663 14.9997 17.4125 14.9997 18.333C14.9997 19.2535 14.2535 19.9997 13.333 19.9997H9.99967C9.0792 19.9997 8.33301 19.2535 8.33301 18.333C8.33301 17.4125 9.0792 16.6663 9.99967 16.6663H13.333ZM13.333 23.333C14.2535 23.333 14.9997 24.0792 14.9997 24.9997C14.9997 25.9202 14.2535 26.6663 13.333 26.6663H9.99967C9.0792 26.6663 8.33301 25.9202 8.33301 24.9997C8.33301 24.0792 9.0792 23.333 9.99967 23.333H13.333Z" fill="#141416"/>
</svg>
