<svg xmlns="http://www.w3.org/2000/svg" width="40" height="40" viewBox="0 0 40 40" fill="none">
  <path fill-rule="evenodd" clip-rule="evenodd" d="M22.6507 37.1599C26.9577 33.6322 35 25.8198 35 16.667C35 8.38272 28.2843 1.66699 20 1.66699C11.7157 1.66699 5 8.38272 5 16.667C5 25.8198 13.0423 33.6322 17.3493 37.1599C18.9109 38.4389 21.0891 38.4389 22.6507 37.1599ZM20 20.0003C22.7614 20.0003 25 17.7617 25 15.0003C25 12.2389 22.7614 10.0003 20 10.0003C17.2386 10.0003 15 12.2389 15 15.0003C15 17.7617 17.2386 20.0003 20 20.0003Z" fill="#141416"/>
</svg>