<svg width="40" height="40" viewBox="0 0 40 40" fill="none" xmlns="http://www.w3.org/2000/svg">
<path d="M10.0003 21.6666C11.8914 21.6666 13.427 21.0354 14.5964 20.2619C14.8409 20.1002 15.1597 20.1002 15.4042 20.2619C16.5737 21.0354 18.1092 21.6666 20.0003 21.6666C21.8914 21.6666 23.427 21.0354 24.5964 20.2619C24.8409 20.1002 25.1597 20.1002 25.4042 20.2619C26.5737 21.0354 28.1092 21.6666 30.0003 21.6666C30.736 21.6666 31.4794 21.6043 32.206 21.4572C32.7671 21.3437 33.3337 21.7486 33.3337 22.3211V30C33.3337 32.7614 31.0951 35 28.3337 35H25.0003C24.0799 35 23.3337 34.2538 23.3337 33.3333V28.3333C23.3337 26.4923 21.8413 25 20.0003 25C18.1594 25 16.667 26.4923 16.667 28.3333V33.3333C16.667 34.2538 15.9208 35 15.0003 35H11.667C8.90557 35 6.66699 32.7614 6.66699 30V22.3211C6.66699 21.7486 7.23357 21.3437 7.79469 21.4572C8.52126 21.6043 9.26462 21.6666 10.0003 21.6666Z" fill="#141416"/>
<path d="M8.16691 7.06302C9.28133 5.69033 10.9933 5 12.7614 5H27.2386C29.0067 5 30.7187 5.69033 31.8331 7.06302C33.2602 8.82079 35 11.367 35 13.3333C35 16.6667 33.3333 18.3333 30 18.3333C27.5417 18.3333 25.9899 16.5203 25.3445 15.5685C25.1904 15.3411 24.8096 15.3411 24.6555 15.5685C24.0101 16.5203 22.4583 18.3333 20 18.3333C17.5417 18.3333 15.9899 16.5203 15.3445 15.5685C15.1904 15.3411 14.8096 15.3411 14.6555 15.5685C14.0101 16.5203 12.4583 18.3333 10 18.3333C6.66667 18.3333 5 16.6667 5 13.3333C5 11.367 6.73985 8.82079 8.16691 7.06302Z" fill="#141416"/>
</svg>
