<svg xmlns="http://www.w3.org/2000/svg" width="40" height="40" viewBox="0 0 40 40" fill="none">
  <path d="M32.6451 15.7369C32.5715 15.2954 32.1617 14.9963 31.7141 14.9995C31.698 14.9996 31.6819 14.9997 31.6658 14.9997C28.2656 14.9997 25.4599 12.4541 25.0505 9.16469C24.9937 8.70797 24.6261 8.33301 24.1658 8.33301H15.8325C15.3723 8.33301 15.0046 8.70797 14.9478 9.16469C14.5384 12.4541 11.7328 14.9997 8.3325 14.9997C8.31644 14.9997 8.3004 14.9996 8.28437 14.9995C7.83677 14.9963 7.42696 15.2954 7.35337 15.7369L5.94503 24.187C5.8669 24.6557 6.19835 25.0899 6.65868 25.2079C9.2769 25.8786 11.2741 28.0996 11.6145 30.8347C11.6713 31.2915 12.0389 31.6663 12.4992 31.6663H27.4992C27.9594 31.6663 28.327 31.2915 28.3839 30.8347C28.7242 28.0995 30.7215 25.8786 33.3398 25.2078C33.8001 25.0899 34.1316 24.6557 34.0534 24.1869L32.6451 15.7369Z" fill="#141416"/>
  <path d="M31.666 11.6667C33.507 11.6667 34.9993 10.1743 34.9993 8.33333C34.9993 6.49238 33.507 5 31.666 5C29.8251 5 28.3327 6.49238 28.3327 8.33333C28.3327 10.1743 29.8251 11.6667 31.666 11.6667Z" fill="#141416"/>
  <path d="M34.9993 35C36.8403 35 38.3327 33.5076 38.3327 31.6667C38.3327 29.8257 36.8403 28.3333 34.9993 28.3333C33.1584 28.3333 31.666 29.8257 31.666 31.6667C31.666 33.5076 33.1584 35 34.9993 35Z" fill="#141416"/>
  <path d="M8.33268 31.6667C8.33268 33.5076 6.8403 35 4.99935 35C3.1584 35 1.66602 33.5076 1.66602 31.6667C1.66602 29.8257 3.1584 28.3333 4.99935 28.3333C6.8403 28.3333 8.33268 29.8257 8.33268 31.6667Z" fill="#141416"/>
  <path d="M8.33268 11.6667C10.1736 11.6667 11.666 10.1743 11.666 8.33333C11.666 6.49238 10.1736 5 8.33268 5C6.49173 5 4.99935 6.49238 4.99935 8.33333C4.99935 10.1743 6.49173 11.6667 8.33268 11.6667Z" fill="#141416"/>
</svg>