<svg width="40" height="40" viewBox="0 0 40 40" fill="none" xmlns="http://www.w3.org/2000/svg">
<path d="M3.33301 6.66634C3.33301 4.82539 4.82539 3.33301 6.66634 3.33301H10.833C11.2932 3.33301 11.6663 3.7061 11.6663 4.16634V10.833C11.6663 11.2932 11.2932 11.6663 10.833 11.6663H4.16634C3.7061 11.6663 3.33301 11.2932 3.33301 10.833V6.66634Z" fill="#141416"/>
<path d="M3.33301 15.833C3.33301 15.3728 3.7061 14.9997 4.16634 14.9997H10.833C11.2932 14.9997 11.6663 15.3728 11.6663 15.833V24.1663C11.6663 24.6266 11.2932 24.9997 10.833 24.9997H4.16634C3.7061 24.9997 3.33301 24.6266 3.33301 24.1663V15.833Z" fill="#141416"/>
<path d="M4.16634 28.333C3.7061 28.333 3.33301 28.7061 3.33301 29.1663V33.333C3.33301 35.174 4.82539 36.6663 6.66634 36.6663H10.833C11.2932 36.6663 11.6663 36.2932 11.6663 35.833V29.1663C11.6663 28.7061 11.2932 28.333 10.833 28.333H4.16634Z" fill="#141416"/>
<path d="M15.833 28.333C15.3728 28.333 14.9997 28.7061 14.9997 29.1663V35.833C14.9997 36.2932 15.3728 36.6663 15.833 36.6663H24.1663C24.6266 36.6663 24.9997 36.2932 24.9997 35.833V29.1663C24.9997 28.7061 24.6266 28.333 24.1663 28.333L15.833 28.333Z" fill="#141416"/>
<path d="M29.1663 28.333C28.7061 28.333 28.333 28.7061 28.333 29.1663V35.833C28.333 36.2932 28.7061 36.6663 29.1663 36.6663H33.333C35.174 36.6663 36.6663 35.174 36.6663 33.333V29.1663C36.6663 28.7061 36.2932 28.333 35.833 28.333H29.1663Z" fill="#141416"/>
<path d="M36.6663 24.1663C36.6663 24.6266 36.2932 24.9997 35.833 24.9997H29.1663C28.7061 24.9997 28.333 24.6266 28.333 24.1663V15.833C28.333 15.3728 28.7061 14.9997 29.1663 14.9997H35.833C36.2932 14.9997 36.6663 15.3728 36.6663 15.833V24.1663Z" fill="#141416"/>
<path d="M24.9997 24.1663C24.9997 24.6266 24.6266 24.9997 24.1663 24.9997L15.833 24.9997C15.3728 24.9997 14.9997 24.6266 14.9997 24.1663V15.833C14.9997 15.3728 15.3728 14.9997 15.833 14.9997H24.1663C24.6266 14.9997 24.9997 15.3728 24.9997 15.833V24.1663Z" fill="#141416"/>
<path d="M14.9997 10.833C14.9997 11.2932 15.3728 11.6663 15.833 11.6663H24.1663C24.6266 11.6663 24.9997 11.2932 24.9997 10.833V4.16634C24.9997 3.7061 24.6266 3.33301 24.1663 3.33301H15.833C15.3728 3.33301 14.9997 3.7061 14.9997 4.16634V10.833Z" fill="#141416"/>
<path d="M28.333 10.833C28.333 11.2932 28.7061 11.6663 29.1663 11.6663H35.833C36.2932 11.6663 36.6663 11.2932 36.6663 10.833V6.66634C36.6663 4.82539 35.174 3.33301 33.333 3.33301H29.1663C28.7061 3.33301 28.333 3.7061 28.333 4.16634V10.833Z" fill="#141416"/>
</svg>
