<svg width="40" height="40" viewBox="0 0 40 40" fill="none" xmlns="http://www.w3.org/2000/svg">
<path d="M29.9997 5C29.0792 5 28.333 5.74619 28.333 6.66667C28.333 7.58714 29.0792 8.33333 29.9997 8.33333H36.6663C37.5868 8.33333 38.333 7.58714 38.333 6.66667C38.333 5.74619 37.5868 5 36.6663 5H29.9997Z" fill="#141416"/>
<path d="M28.333 13.3333C28.333 12.4129 29.0792 11.6667 29.9997 11.6667H36.6663C37.5868 11.6667 38.333 12.4129 38.333 13.3333C38.333 14.2538 37.5868 15 36.6663 15H29.9997C29.0792 15 28.333 14.2538 28.333 13.3333Z" fill="#141416"/>
<path d="M29.9997 18.3333C29.0792 18.3333 28.333 19.0795 28.333 20C28.333 20.9205 29.0792 21.6667 29.9997 21.6667H36.6663C37.5868 21.6667 38.333 20.9205 38.333 20C38.333 19.0795 37.5868 18.3333 36.6663 18.3333H29.9997Z" fill="#141416"/>
<path d="M28.333 26.6667C28.333 25.7462 29.0792 25 29.9997 25H36.6663C37.5868 25 38.333 25.7462 38.333 26.6667C38.333 27.5871 37.5868 28.3333 36.6663 28.3333H29.9997C29.0792 28.3333 28.333 27.5871 28.333 26.6667Z" fill="#141416"/>
<path d="M28.333 33.3333C28.333 32.4129 29.0792 31.6667 29.9997 31.6667H36.6663C37.5868 31.6667 38.333 32.4129 38.333 33.3333C38.333 34.2538 37.5868 35 36.6663 35H29.9997C29.0792 35 28.333 34.2538 28.333 33.3333Z" fill="#141416"/>
<path d="M16.6667 11.667C15.7462 11.667 15 12.4132 15 13.3337C15 14.2541 15.7462 15.0003 16.6667 15.0003H23.3333C24.2538 15.0003 25 14.2541 25 13.3337C25 12.4132 24.2538 11.667 23.3333 11.667H16.6667Z" fill="#141416"/>
<path d="M15 20.0003C15 19.0799 15.7462 18.3337 16.6667 18.3337H23.3333C24.2538 18.3337 25 19.0799 25 20.0003C25 20.9208 24.2538 21.667 23.3333 21.667H16.6667C15.7462 21.667 15 20.9208 15 20.0003Z" fill="#141416"/>
<path d="M16.6667 25.0003C15.7462 25.0003 15 25.7465 15 26.667C15 27.5875 15.7462 28.3337 16.6667 28.3337H23.3333C24.2538 28.3337 25 27.5875 25 26.667C25 25.7465 24.2538 25.0003 23.3333 25.0003H16.6667Z" fill="#141416"/>
<path d="M16.6667 31.667C15.7462 31.667 15 32.4132 15 33.3337C15 34.2541 15.7462 35.0003 16.6667 35.0003H23.3333C24.2538 35.0003 25 34.2541 25 33.3337C25 32.4132 24.2538 31.667 23.3333 31.667H16.6667Z" fill="#141416"/>
<path d="M3.33366 18.333C2.41318 18.333 1.66699 19.0792 1.66699 19.9997C1.66699 20.9201 2.41318 21.6663 3.33366 21.6663H10.0003C10.9208 21.6663 11.667 20.9201 11.667 19.9997C11.667 19.0792 10.9208 18.333 10.0003 18.333H3.33366Z" fill="#141416"/>
<path d="M1.66699 26.6663C1.66699 25.7459 2.41318 24.9997 3.33366 24.9997H10.0003C10.9208 24.9997 11.667 25.7459 11.667 26.6663C11.667 27.5868 10.9208 28.333 10.0003 28.333H3.33366C2.41318 28.333 1.66699 27.5868 1.66699 26.6663Z" fill="#141416"/>
<path d="M1.66699 33.333C1.66699 32.4125 2.41318 31.6663 3.33366 31.6663H10.0003C10.9208 31.6663 11.667 32.4125 11.667 33.333C11.667 34.2535 10.9208 34.9997 10.0003 34.9997H3.33366C2.41318 34.9997 1.66699 34.2535 1.66699 33.333Z" fill="#141416"/>
</svg>
