<svg width="40" height="40" viewBox="0 0 40 40" fill="none" xmlns="http://www.w3.org/2000/svg">
<path fill-rule="evenodd" clip-rule="evenodd" d="M6.66634 3.33301C4.82539 3.33301 3.33301 4.82539 3.33301 6.66634V33.333C3.33301 35.174 4.82539 36.6663 6.66634 36.6663H33.333C35.174 36.6663 36.6663 35.174 36.6663 33.333V6.66634C36.6663 4.82539 35.174 3.33301 33.333 3.33301H6.66634ZM8.33301 28.333C7.41253 28.333 6.66634 29.0792 6.66634 29.9997C6.66634 30.9201 7.41253 31.6663 8.33301 31.6663H11.6663C12.5868 31.6663 13.333 30.9201 13.333 29.9997C13.333 29.0792 12.5868 28.333 11.6663 28.333H8.33301ZM6.66634 23.333C6.66634 22.4125 7.41253 21.6663 8.33301 21.6663H11.6663C12.5868 21.6663 13.333 22.4125 13.333 23.333C13.333 24.2535 12.5868 24.9997 11.6663 24.9997H8.33301C7.41253 24.9997 6.66634 24.2535 6.66634 23.333ZM18.333 28.333C17.4125 28.333 16.6663 29.0792 16.6663 29.9997C16.6663 30.9201 17.4125 31.6663 18.333 31.6663H21.6663C22.5868 31.6663 23.333 30.9201 23.333 29.9997C23.333 29.0792 22.5868 28.333 21.6663 28.333H18.333ZM16.6663 23.333C16.6663 22.4125 17.4125 21.6663 18.333 21.6663H21.6663C22.5868 21.6663 23.333 22.4125 23.333 23.333C23.333 24.2535 22.5868 24.9997 21.6663 24.9997H18.333C17.4125 24.9997 16.6663 24.2535 16.6663 23.333ZM18.333 14.9997C17.4125 14.9997 16.6663 15.7459 16.6663 16.6663C16.6663 17.5868 17.4125 18.333 18.333 18.333H21.6663C22.5868 18.333 23.333 17.5868 23.333 16.6663C23.333 15.7459 22.5868 14.9997 21.6663 14.9997H18.333ZM26.6663 29.9997C26.6663 29.0792 27.4125 28.333 28.333 28.333H31.6663C32.5868 28.333 33.333 29.0792 33.333 29.9997C33.333 30.9201 32.5868 31.6663 31.6663 31.6663H28.333C27.4125 31.6663 26.6663 30.9201 26.6663 29.9997ZM28.333 21.6663C27.4125 21.6663 26.6663 22.4125 26.6663 23.333C26.6663 24.2535 27.4125 24.9997 28.333 24.9997H31.6663C32.5868 24.9997 33.333 24.2535 33.333 23.333C33.333 22.4125 32.5868 21.6663 31.6663 21.6663H28.333ZM26.6663 16.6663C26.6663 15.7459 27.4125 14.9997 28.333 14.9997H31.6663C32.5868 14.9997 33.333 15.7459 33.333 16.6663C33.333 17.5868 32.5868 18.333 31.6663 18.333H28.333C27.4125 18.333 26.6663 17.5868 26.6663 16.6663ZM28.333 8.33301C27.4125 8.33301 26.6663 9.0792 26.6663 9.99967C26.6663 10.9201 27.4125 11.6663 28.333 11.6663H31.6663C32.5868 11.6663 33.333 10.9201 33.333 9.99967C33.333 9.0792 32.5868 8.33301 31.6663 8.33301H28.333Z" fill="#141416"/>
</svg>
