<svg width="40" height="40" viewBox="0 0 40 40" fill="none" xmlns="http://www.w3.org/2000/svg">
<path fill-rule="evenodd" clip-rule="evenodd" d="M3.33366 5C4.25413 5 5.00033 5.74619 5.00033 6.66667V30C5.00033 30.9205 5.74652 31.6667 6.66699 31.6667H36.667C37.5875 31.6667 38.3337 32.4129 38.3337 33.3333C38.3337 34.2538 37.5875 35 36.667 35H6.66699C3.90557 35 1.66699 32.7614 1.66699 30V6.66667C1.66699 5.74619 2.41318 5 3.33366 5Z" fill="#141416"/>
<path d="M32.3043 6.79346C32.1093 6.71257 31.8955 6.66766 31.6713 6.667L31.6663 6.66699L31.6613 6.667C31.2086 6.66833 30.7984 6.85016 30.4988 7.14432C30.4947 7.1483 30.4907 7.15231 30.4866 7.15634L27.1545 10.4885C26.5036 11.1394 26.5036 12.1946 27.1545 12.8455C27.8054 13.4964 28.8606 13.4964 29.5115 12.8455L29.9812 12.3759C29.6127 19.4101 23.7923 25.0003 16.6663 25.0003H9.99967C9.0792 25.0003 8.33301 25.7465 8.33301 26.667C8.33301 27.5875 9.0792 28.3337 9.99967 28.3337H16.6663C25.6444 28.3337 32.9644 21.2348 33.3195 12.3439L33.8212 12.8455C34.472 13.4964 35.5273 13.4964 36.1782 12.8455C36.8291 12.1946 36.8291 11.1394 36.1782 10.4885L32.8461 7.15636C32.842 7.15233 32.838 7.14831 32.8339 7.14432C32.6767 6.9899 32.4964 6.87294 32.3043 6.79346Z" fill="#141416"/>
</svg>
