<svg width="40" height="40" viewBox="0 0 40 40" fill="none" xmlns="http://www.w3.org/2000/svg">
<path d="M34.6197 15.26L32.3397 8.41834C32.0089 7.42247 31.3728 6.55617 30.5215 5.94251C29.6703 5.32886 28.6474 4.99907 27.598 5H12.4013C11.352 4.99907 10.329 5.32886 9.47782 5.94251C8.6266 6.55617 7.99042 7.42247 7.65968 8.41834L5.37967 15.26C4.77403 15.5141 4.2568 15.9413 3.89275 16.4879C3.5287 17.0346 3.33399 17.6765 3.33301 18.3333V26.6667C3.33301 27.9217 4.03801 29.0033 5.06467 29.5717C5.04301 29.6817 4.99967 29.7817 4.99967 29.8967V33.3333C4.99967 33.7754 5.17527 34.1993 5.48783 34.5118C5.80039 34.8244 6.22431 35 6.66634 35H8.33301C8.77504 35 9.19896 34.8244 9.51152 34.5118C9.82408 34.1993 9.99967 33.7754 9.99967 33.3333V30H29.9997V33.3333C29.9997 33.7754 30.1753 34.1993 30.4878 34.5118C30.8004 34.8244 31.2243 35 31.6663 35H33.333C33.775 35 34.199 34.8244 34.5115 34.5118C34.8241 34.1993 34.9997 33.7754 34.9997 33.3333V29.8967C34.9997 29.7817 34.9563 29.68 34.9347 29.5717C35.457 29.2869 35.8933 28.8671 36.1979 28.3561C36.5025 27.845 36.6643 27.2616 36.6663 26.6667V18.3333C36.6663 16.9517 35.8197 15.765 34.6197 15.26ZM12.4013 8.33334H27.5963C28.3147 8.33334 28.9513 8.79 29.178 9.47334L31.0213 15H8.97801L10.8197 9.47334C10.9303 9.14133 11.1425 8.85255 11.4264 8.64793C11.7103 8.44332 12.0514 8.33325 12.4013 8.33334Z" fill="#141416"/>
</svg>
