<svg width="40" height="40" viewBox="0 0 40 40" fill="none" xmlns="http://www.w3.org/2000/svg">
<path d="M38.5641 23.1043C38.1603 23.0792 37.7246 23.0664 37.2691 23.0664C36.4011 23.0664 35.3649 23.1107 34.1628 23.2333L34.0594 18.7015C34.5312 18.8691 35.0346 18.9572 35.5526 18.9572C38.0029 18.9572 39.9963 16.9638 39.9963 14.5136C39.9963 13.1034 39.3362 11.7956 38.2158 10.9574C38.2537 10.7394 38.2727 10.5175 38.2727 10.2948C38.2727 8.62991 37.2064 7.17622 35.67 6.65204C35.8362 6.21587 35.9225 5.75033 35.9225 5.28084C35.9225 3.15799 34.1954 1.43091 32.0725 1.43091C29.9496 1.43091 28.2225 3.15799 28.2225 5.28084C28.2225 5.3202 28.2231 5.35964 28.2243 5.39935C26.2959 5.60692 24.7894 7.24433 24.7894 9.22702C24.7894 10.1961 25.1515 11.1178 25.797 11.8234C24.9186 12.659 24.4237 13.8046 24.4237 15.0358C24.4237 17.486 26.4171 19.4793 28.8674 19.4793C29.3932 19.4793 29.9054 19.386 30.3843 19.2119L30.2772 23.828C27.8818 24.3076 25.0776 25.0643 21.8694 26.2359C15.2947 28.6367 10.0867 31.5829 7.56735 33.1256C5.83939 34.1836 4.35642 35.1982 3.2787 36.0596C1.67082 37.3447 1.59334 37.7757 1.64698 38.0789C1.68836 38.3122 1.88514 38.5616 2.31387 38.5616H38.3004C38.3348 38.5651 38.3878 38.5689 38.4545 38.5689C38.6566 38.5689 39.0467 38.5307 39.389 38.2749C39.6676 38.0668 39.9998 37.6471 39.9998 36.8306V24.5842C39.9998 23.9499 39.7507 23.1782 38.5641 23.1043Z" fill="#141416"/>
<path d="M19.9505 24.0785C20.1829 23.9898 20.3561 23.7564 20.3811 23.4976C20.4022 23.2795 20.3103 23.0842 20.1355 22.9753C18.0862 21.6982 14.9226 20.569 11.7391 19.7746L11.6519 15.9541C11.9721 16.0512 12.3089 16.1026 12.6544 16.1026C14.5475 16.1026 16.0875 14.5626 16.0875 12.6695C16.0875 11.6026 15.5984 10.6114 14.7654 9.9627C14.7876 9.81483 14.7989 9.66511 14.7989 9.51496C14.7989 8.26078 14.0194 7.16105 12.8835 6.72487C12.9876 6.4172 13.0415 6.09278 13.0415 5.76609C13.0415 4.11781 11.7005 2.77676 10.0522 2.77676C8.4069 2.77676 7.06778 4.1129 7.06287 5.75706C5.61374 5.96279 4.49587 7.21162 4.49587 8.71668C4.49587 9.433 4.75068 10.1159 5.20755 10.6526C4.57651 11.2909 4.22256 12.1448 4.22256 13.0601C4.22256 14.9532 5.76258 16.4932 7.65569 16.4932C8.00701 16.4932 8.35001 16.4385 8.67574 16.337L8.61158 19.1028C6.7396 18.7668 4.99437 18.5776 3.62247 18.5776C1.21877 18.5776 0 19.1315 0 20.2238V33.7439C0 34.275 0.321785 34.5127 0.640764 34.5127C0.88997 34.5127 1.08571 34.3728 1.1582 34.3128C1.31124 34.1861 1.45877 34.0682 1.59823 33.9567C2.76169 33.0267 4.33975 31.9454 6.16186 30.8297C8.58449 29.3463 13.5974 26.4967 19.9505 24.0785Z" fill="#141416"/>
</svg>
