<svg width="40" height="40" viewBox="0 0 40 40" fill="none" xmlns="http://www.w3.org/2000/svg">
<path d="M21.6143 15.8405L21.6077 15.8581H11.7248C10.2902 15.8581 8.95477 16.2899 7.84086 17.0299H4.6875C3.39516 17.0299 2.34375 15.9785 2.34375 14.6862C2.34375 13.3938 3.39516 12.3424 4.6875 12.3424H8.20312C8.85031 12.3424 9.375 11.8178 9.375 11.1706C9.375 10.5234 8.85031 9.99869 8.20312 9.99869H4.6875C2.10281 9.99869 0 12.1015 0 14.6862C0 17.2709 2.10281 19.3737 4.6875 19.3737H5.63398C5.03242 20.4101 4.6875 21.6131 4.6875 22.8953V37.5768C4.6875 38.224 5.21219 38.7487 5.85938 38.7487H10.5469C11.1941 38.7487 11.7188 38.224 11.7188 37.5768V27.6868L22.4219 28.6481V37.6549C22.4219 38.3021 22.9466 38.8268 23.5938 38.8268H28.2812C28.9284 38.8268 29.4531 38.3021 29.4531 37.6549V26.521L30.8971 19.301L21.6143 15.8405Z" fill="#141416"/>
<path d="M38.8277 8.8268H35.2916C35.1012 7.03797 33.5872 5.62368 31.7222 5.62368H29.7559L29.0384 2.10805C28.8036 0.95813 27.2018 0.832974 26.7919 1.93352L22.4316 13.644L31.3622 16.9731L31.5852 15.8581H34.1402C37.371 15.8581 39.9995 13.2295 39.9995 9.99868C39.9995 9.35149 39.4748 8.8268 38.8277 8.8268Z" fill="#141416"/>
</svg>
