<svg width="12" height="12" viewBox="0 0 12 12" fill="none" xmlns="http://www.w3.org/2000/svg">
<path fill-rule="evenodd" clip-rule="evenodd" d="M9.5 6H7V10H9.5C9.77614 10 10 9.77614 10 9.5V6.5C10 6.22386 9.77614 6 9.5 6ZM6 5V11H9.5C10.3284 11 11 10.3284 11 9.5V6.5C11 5.67157 10.3284 5 9.5 5H6Z" fill="#3AA830"/>
<path d="M9 7.5C9 7.22386 8.77614 7 8.5 7C8.22386 7 8 7.22386 8 7.5C8 7.77614 8.22386 8 8.5 8C8.77614 8 9 7.77614 9 7.5Z" fill="#3AA830"/>
<path d="M9 9C9 8.72386 8.77614 8.5 8.5 8.5C8.22386 8.5 8 8.72386 8 9C8 9.27614 8.22386 9.5 8.5 9.5C8.77614 9.5 9 9.27614 9 9Z" fill="#3AA830"/>
<path fill-rule="evenodd" clip-rule="evenodd" d="M2.5 11C1.67157 11 1 10.3284 1 9.5V2.5C1 1.67157 1.67157 1 2.5 1H5.5C6.32843 1 7 1.67157 7 2.5V11H2.5ZM2.5 2H5.5C5.77614 2 6 2.22386 6 2.5V10H5V9.5C5 9.22386 4.77614 9 4.5 9H3.5C3.22386 9 3 9.22386 3 9.5V10H2.5C2.22386 10 2 9.77614 2 9.5V2.5C2 2.22386 2.22386 2 2.5 2Z" fill="#3AA830"/>
<path d="M4.5 3C4.77614 3 5 3.22386 5 3.5C5 3.77614 4.77614 4 4.5 4H3.5C3.22386 4 3 3.77614 3 3.5C3 3.22386 3.22386 3 3.5 3H4.5Z" fill="#3AA830"/>
<path d="M4.5 5C4.77614 5 5 5.22386 5 5.5C5 5.77614 4.77614 6 4.5 6H3.5C3.22386 6 3 5.77614 3 5.5C3 5.22386 3.22386 5 3.5 5H4.5Z" fill="#3AA830"/>
<path d="M5 7.5C5 7.22386 4.77614 7 4.5 7H3.5C3.22386 7 3 7.22386 3 7.5C3 7.77614 3.22386 8 3.5 8H4.5C4.77614 8 5 7.77614 5 7.5Z" fill="#3AA830"/>
</svg>
