<svg width="12" height="12" viewBox="0 0 12 12" fill="none" xmlns="http://www.w3.org/2000/svg">
<path d="M9 1.5C8.72386 1.5 8.5 1.72386 8.5 2C8.5 2.27614 8.72386 2.5 9 2.5H11C11.2761 2.5 11.5 2.27614 11.5 2C11.5 1.72386 11.2761 1.5 11 1.5H9Z" fill="#6439DF"/>
<path d="M8.5 4C8.5 3.72386 8.72386 3.5 9 3.5H11C11.2761 3.5 11.5 3.72386 11.5 4C11.5 4.27614 11.2761 4.5 11 4.5H9C8.72386 4.5 8.5 4.27614 8.5 4Z" fill="#6439DF"/>
<path d="M9 5.5C8.72386 5.5 8.5 5.72386 8.5 6C8.5 6.27614 8.72386 6.5 9 6.5H11C11.2761 6.5 11.5 6.27614 11.5 6C11.5 5.72386 11.2761 5.5 11 5.5H9Z" fill="#6439DF"/>
<path d="M8.5 8C8.5 7.72386 8.72386 7.5 9 7.5H11C11.2761 7.5 11.5 7.72386 11.5 8C11.5 8.27614 11.2761 8.5 11 8.5H9C8.72386 8.5 8.5 8.27614 8.5 8Z" fill="#6439DF"/>
<path d="M8.5 10C8.5 9.72386 8.72386 9.5 9 9.5H11C11.2761 9.5 11.5 9.72386 11.5 10C11.5 10.2761 11.2761 10.5 11 10.5H9C8.72386 10.5 8.5 10.2761 8.5 10Z" fill="#6439DF"/>
<path d="M5 3.5C4.72386 3.5 4.5 3.72386 4.5 4C4.5 4.27614 4.72386 4.5 5 4.5H7C7.27614 4.5 7.5 4.27614 7.5 4C7.5 3.72386 7.27614 3.5 7 3.5H5Z" fill="#6439DF"/>
<path d="M4.5 6C4.5 5.72386 4.72386 5.5 5 5.5H7C7.27614 5.5 7.5 5.72386 7.5 6C7.5 6.27614 7.27614 6.5 7 6.5H5C4.72386 6.5 4.5 6.27614 4.5 6Z" fill="#6439DF"/>
<path d="M5 7.5C4.72386 7.5 4.5 7.72386 4.5 8C4.5 8.27614 4.72386 8.5 5 8.5H7C7.27614 8.5 7.5 8.27614 7.5 8C7.5 7.72386 7.27614 7.5 7 7.5H5Z" fill="#6439DF"/>
<path d="M5 9.5C4.72386 9.5 4.5 9.72386 4.5 10C4.5 10.2761 4.72386 10.5 5 10.5H7C7.27614 10.5 7.5 10.2761 7.5 10C7.5 9.72386 7.27614 9.5 7 9.5H5Z" fill="#6439DF"/>
<path d="M1 5.5C0.723858 5.5 0.5 5.72386 0.5 6C0.5 6.27614 0.723858 6.5 1 6.5H3C3.27614 6.5 3.5 6.27614 3.5 6C3.5 5.72386 3.27614 5.5 3 5.5H1Z" fill="#6439DF"/>
<path d="M0.5 8C0.5 7.72386 0.723858 7.5 1 7.5H3C3.27614 7.5 3.5 7.72386 3.5 8C3.5 8.27614 3.27614 8.5 3 8.5H1C0.723858 8.5 0.5 8.27614 0.5 8Z" fill="#6439DF"/>
<path d="M0.5 10C0.5 9.72386 0.723858 9.5 1 9.5H3C3.27614 9.5 3.5 9.72386 3.5 10C3.5 10.2761 3.27614 10.5 3 10.5H1C0.723858 10.5 0.5 10.2761 0.5 10Z" fill="#6439DF"/>
</svg>
