<svg width="12" height="12" viewBox="0 0 12 12" fill="none" xmlns="http://www.w3.org/2000/svg">
<path fill-rule="evenodd" clip-rule="evenodd" d="M1 1.5C1.27614 1.5 1.5 1.72386 1.5 2V9C1.5 9.27614 1.72386 9.5 2 9.5H11C11.2761 9.5 11.5 9.72386 11.5 10C11.5 10.2761 11.2761 10.5 11 10.5H2C1.17157 10.5 0.5 9.82843 0.5 9V2C0.5 1.72386 0.723858 1.5 1 1.5Z" fill="#015FF9"/>
<path d="M9.69139 2.03794C9.63287 2.01367 9.56875 2.0002 9.5015 2L9.5 2L9.4985 2C9.36268 2.0004 9.23961 2.05495 9.14973 2.1432C9.14851 2.14439 9.1473 2.1456 9.14609 2.1468L8.14645 3.14645C7.95118 3.34171 7.95118 3.65829 8.14645 3.85355C8.34171 4.04882 8.65829 4.04882 8.85355 3.85355L8.99444 3.71266C8.8839 5.82294 7.1378 7.5 5 7.5H3C2.72386 7.5 2.5 7.72386 2.5 8C2.5 8.27614 2.72386 8.5 3 8.5H5C7.69341 8.5 9.88941 6.37033 9.99595 3.70306L10.1464 3.85355C10.3417 4.04882 10.6583 4.04882 10.8536 3.85355C11.0488 3.65829 11.0488 3.34171 10.8536 3.14645L9.85392 2.14681C9.85271 2.1456 9.8515 2.1444 9.85027 2.1432C9.8031 2.09687 9.74902 2.06179 9.69139 2.03794Z" fill="#015FF9"/>
</svg>
