<svg xmlns="http://www.w3.org/2000/svg" width="20" height="20" fill="none"><path fill="#141416" d="M15.834 7.5c.46 0 .833.373.833.833V17.5a.833.833 0 1 1-1.667 0V8.333c0-.46.373-.833.834-.833ZM15.834 1.667c.46 0 .833.373.833.833V5A.833.833 0 0 1 15 5V2.5c0-.46.373-.833.834-.833ZM10.834 2.5a.833.833 0 1 0-1.667 0v9.166a.833.833 0 0 0 1.667 0V2.5ZM10.834 15a.833.833 0 0 0-1.667 0v2.5a.833.833 0 1 0 1.667 0V15ZM5 2.5a.833.833 0 1 0-1.667 0v5.833a.833.833 0 1 0 1.667 0V2.5ZM5 11.666a.833.833 0 0 0-1.667 0V17.5A.833.833 0 1 0 5 17.5v-5.834Z"/><path fill="#141416" fill-rule="evenodd" d="M15.833 9.166a2.5 2.5 0 1 1 0-5 2.5 2.5 0 0 1 0 5Zm0-1.666a.833.833 0 1 1 0-1.667.833.833 0 0 1 0 1.667ZM7.5 13.333a2.5 2.5 0 1 0 5 0 2.5 2.5 0 0 0-5 0Zm1.666 0a.833.833 0 1 0 1.667 0 .833.833 0 0 0-1.667 0ZM1.667 10a2.5 2.5 0 1 0 5 0 2.5 2.5 0 0 0-5 0Zm1.666 0A.833.833 0 1 0 5 10a.833.833 0 0 0-1.667 0Z" clip-rule="evenodd"/></svg>