<svg width="337" height="34" viewBox="0 0 337 34" fill="none" xmlns="http://www.w3.org/2000/svg">
<path d="M199.256 29.4C200.941 29.4201 202.613 29.1155 204.182 28.5026C205.64 27.9356 206.963 27.0707 208.068 25.9633C209.177 24.8399 210.044 23.5015 210.616 22.0303C211.826 18.7395 211.826 15.1259 210.616 11.8351C210.044 10.361 209.177 9.01941 208.068 7.89254C206.963 6.78515 205.64 5.9203 204.182 5.35327C201.004 4.15682 197.499 4.15682 194.321 5.35327C192.864 5.9203 191.54 6.78515 190.436 7.89254C189.327 9.01756 188.462 10.3599 187.897 11.8351C186.674 15.1236 186.674 18.7418 187.897 22.0303C188.463 23.5022 189.328 24.8411 190.436 25.9633C191.54 27.0707 192.864 27.9356 194.321 28.5026C195.893 29.1155 197.569 29.4202 199.256 29.4ZM199.256 33.1229C197.026 33.1462 194.812 32.7377 192.736 31.9201C190.807 31.1585 189.053 30.012 187.582 28.5503C186.123 27.0832 184.971 25.3406 184.193 23.4241C182.55 19.249 182.55 14.6069 184.193 10.4318C184.971 8.51805 186.123 6.77859 187.582 5.31507C189.05 3.84944 190.805 2.7023 192.736 1.94529C194.811 1.12467 197.025 0.713006 199.256 0.732948C201.478 0.711873 203.683 1.12364 205.748 1.94529C207.678 2.70694 209.435 3.85149 210.911 5.30998C212.388 6.76846 213.554 8.51072 214.339 10.4318C215.968 14.6094 215.968 19.2465 214.339 23.4241C213.556 25.3475 212.391 27.0921 210.914 28.5524C209.437 30.0127 207.68 31.1584 205.748 31.9201C203.683 32.7385 201.478 33.147 199.256 33.1229Z" fill="white"/>
<path d="M220.359 1.61133H241.561V5.33431H224.378V15.835H237.991V19.5581H224.378V32.2448H220.359V1.61133Z" fill="white"/>
<path d="M245.008 1.61133H266.21V5.33431H249.027V15.835H262.64V19.5581H249.027V32.2448H245.008V1.61133Z" fill="white"/>
<path d="M273.66 1.61133H269.641V32.2448H273.66V1.61133Z" fill="white"/>
<path d="M294.811 33.1522C292.581 33.1745 290.367 32.7661 288.291 31.9494C286.362 31.1878 284.608 30.0413 283.136 28.5796C281.678 27.1125 280.526 25.3699 279.747 23.4534C278.105 19.2783 278.105 14.6362 279.747 10.4611C280.526 8.54735 281.678 6.80789 283.136 5.34437C284.605 3.87874 286.36 2.7316 288.291 1.97459C291.74 0.660772 295.504 0.40811 299.097 1.24908C300.293 1.54078 301.453 1.96671 302.553 2.51873C303.523 3.00555 304.43 3.60817 305.255 4.3134C305.982 4.93665 306.653 5.6235 307.259 6.36581C308.607 8.0003 309.61 9.89002 310.209 11.9217H306.267C305.701 10.5545 304.9 9.29745 303.899 8.20821C303.429 7.7182 302.921 7.26503 302.381 6.85267C301.773 6.38963 301.117 5.99279 300.424 5.66893C299.624 5.29612 298.785 5.01127 297.923 4.81935C296.928 4.59041 295.909 4.47827 294.887 4.48523C293.2 4.47015 291.526 4.77463 289.952 5.38256C288.496 5.95208 287.173 6.81661 286.067 7.92183C284.964 9.05174 284.1 10.3927 283.528 11.8644C282.306 15.1529 282.306 18.7711 283.528 22.0596C284.1 23.5284 284.964 24.8662 286.067 25.9926C287.173 27.0979 288.496 27.9624 289.952 28.5319C291.525 29.1439 293.2 29.4485 294.887 29.4292C295.939 29.4395 296.987 29.3209 298.009 29.076C298.899 28.859 299.761 28.5387 300.577 28.1214C301.293 27.7706 301.965 27.3381 302.582 26.8327C303.131 26.3792 303.647 25.8879 304.128 25.3626C305.158 24.1622 305.96 22.7841 306.496 21.2959H310.505C309.833 23.4394 308.775 25.4419 307.383 27.205C306.759 27.9935 306.066 28.725 305.312 29.3911C304.478 30.1302 303.562 30.7709 302.582 31.3003C301.488 31.8831 300.327 32.3319 299.126 32.6367C297.741 32.9854 296.316 33.1554 294.887 33.1427" fill="white"/>
<path d="M314.852 1.61133H336.722V5.33431H318.871V14.9664H333.371V18.6798H318.871V28.5314H336.722V32.2448H314.852V1.61133Z" fill="white"/>
<path d="M16.1902 33.0375C14.5671 33.0549 12.947 32.8916 11.3599 32.5506C10.0438 32.2798 8.76277 31.8603 7.54146 31.3001C6.51112 30.8401 5.54776 30.2428 4.67762 29.5245C3.941 28.8991 3.27514 28.1948 2.69201 27.4243C1.37955 25.7823 0.458858 23.8626 0 21.8112H11.3981C11.5735 22.4185 11.8653 22.9859 12.2572 23.4818C12.6605 23.9443 13.1501 24.3237 13.6987 24.5987C14.4724 24.9674 15.3245 25.1411 16.1807 25.1046C17.1025 25.1852 18.0278 24.9962 18.844 24.5605C19.0584 24.4345 19.2391 24.2584 19.3705 24.0472C19.5018 23.8361 19.58 23.5962 19.5982 23.3482C19.5906 23.0915 19.5127 22.8418 19.373 22.6264C19.2333 22.4109 19.0371 22.2379 18.8059 22.1263C18.1397 21.7446 17.4275 21.4495 16.6866 21.248C15.7988 20.9807 14.7774 20.723 13.6701 20.4557C12.5627 20.1884 11.4076 19.8925 10.2525 19.5583C9.0885 19.2204 7.94709 18.8091 6.83506 18.3269C5.75 17.8714 4.73701 17.2604 3.828 16.5131C2.95404 15.7839 2.23365 14.8883 1.70874 13.8784C1.14662 12.7333 0.871453 11.4687 0.906893 10.1936C0.923541 8.95477 1.25184 7.74007 1.86151 6.66152C2.55177 5.438 3.50354 4.38191 4.64896 3.56859C6.03312 2.58912 7.57255 1.85007 9.20248 1.38252C11.2518 0.787542 13.3789 0.504347 15.5125 0.542454C17.0067 0.530153 18.498 0.677353 19.961 0.981568C21.1705 1.24217 22.3483 1.63264 23.4739 2.1462C24.4223 2.5893 25.3107 3.15062 26.1182 3.81677C26.814 4.39089 27.4533 5.03021 28.0274 5.72599C29.2331 7.24757 30.1019 9.0079 30.5763 10.8904H19.1495C19.0612 10.4417 18.8572 10.0238 18.5577 9.6781C18.2763 9.32055 17.9215 9.02758 17.5172 8.81896C16.9622 8.54879 16.3487 8.42084 15.732 8.44664C14.9361 8.37748 14.1371 8.53991 13.4314 8.91439C13.2401 9.02234 13.0794 9.17707 12.9642 9.36405C12.849 9.55104 12.7831 9.76421 12.7727 9.98358C12.7727 10.5086 13.231 10.9382 14.1665 11.1864C15.102 11.4346 16.2475 11.7496 17.6222 12.0455C18.9968 12.3415 20.486 12.6851 22.1184 13.0956C23.6824 13.4883 25.1901 14.0785 26.605 14.8521C27.9547 15.5848 29.1353 16.593 30.0703 17.8114C31.0431 19.1681 31.5338 20.8115 31.464 22.4795C31.4697 23.8607 31.1422 25.2229 30.5094 26.4506C29.8167 27.7698 28.8383 28.9178 27.6456 29.8109C26.2021 30.8567 24.5867 31.6418 22.8725 32.1306C20.7258 32.7468 18.4998 33.0428 16.2666 33.0088" fill="white"/>
<path d="M40.981 10.9194H31.4062V1.46875H61.9443V10.9194H52.3791V32.1595H40.981V10.9194Z" fill="white"/>
<path d="M101.031 1.46875H113.794L122.319 15.9311V1.46875H133.622V32.1595H120.859L112.343 17.6876V32.1595H101.031V1.46875Z" fill="white"/>
<path d="M137.531 1.46875H164.318V10.2321H148.929V13.0864H164.318V20.5419H148.929V23.3866H164.318V32.1595H137.531V1.46875Z" fill="white"/>
<path d="M80.3452 23.3381C79.0688 23.2894 77.835 22.8663 76.7973 22.1216C75.7596 21.3768 74.9639 20.3433 74.5093 19.1496C74.0546 17.956 73.9612 16.655 74.2405 15.4086C74.5198 14.1623 75.1596 13.0256 76.0802 12.1402C77.0007 11.2547 78.1613 10.6596 79.4176 10.4289C80.6739 10.1983 81.9703 10.3422 83.1454 10.8429C84.3204 11.3436 85.3223 12.1788 86.0261 13.2447C86.73 14.3105 87.1048 15.5599 87.1038 16.8372C87.0687 18.5952 86.3372 20.2674 85.0699 21.4863C83.8026 22.7053 82.1033 23.3713 80.3452 23.3381ZM97.2991 10.4699C96.4612 8.51611 95.2183 6.76238 93.6525 5.32454C91.9906 3.80291 90.044 2.6252 87.9248 1.85929C83.0255 0.153348 77.6935 0.153348 72.7942 1.85929C70.6745 2.62406 68.7277 3.80189 67.0665 5.32454C65.5007 6.76238 64.2578 8.51611 63.4199 10.4699C62.5755 12.4765 62.1406 14.6315 62.1406 16.8085C62.1406 18.9855 62.5755 21.1405 63.4199 23.1471C64.255 25.1052 65.4983 26.8626 67.0665 28.3021C68.7325 29.8183 70.678 30.9953 72.7942 31.7673C77.6957 33.4598 83.0233 33.4598 87.9248 31.7673C90.0404 30.994 91.9857 29.8171 93.6525 28.3021C95.2208 26.8626 96.4639 25.1052 97.2991 23.1471C98.1434 21.1405 98.5784 18.9855 98.5784 16.8085C98.5784 14.6315 98.1434 12.4765 97.2991 10.4699Z" fill="white"/>
</svg>
