<svg width="352" height="128" viewBox="0 0 352 128" fill="none" xmlns="http://www.w3.org/2000/svg">
<path d="M16.281 106.566C14.652 106.583 13.0261 106.42 11.4326 106.081C10.1269 105.804 8.85554 105.384 7.64113 104.83C6.5969 104.366 5.6187 103.766 4.73207 103.046C3.98148 102.432 3.2988 101.74 2.69573 100.98C1.3849 99.3327 0.463369 97.4101 0 95.3562H11.4811C11.6616 95.9633 11.958 96.5297 12.3538 97.0241C12.7549 97.4884 13.2423 97.8703 13.7889 98.1489C14.566 98.518 15.4216 98.6912 16.281 98.6532C17.2081 98.7356 18.1388 98.5433 18.9574 98.1004C19.1722 97.9773 19.3536 97.8032 19.4855 97.5935C19.6173 97.3839 19.6957 97.1451 19.7137 96.898C19.7053 96.6387 19.6258 96.3867 19.4838 96.1695C19.3419 95.9523 19.143 95.7783 18.9089 95.6665C18.242 95.282 17.5282 94.9854 16.7853 94.7841C15.9029 94.5223 14.8459 94.2605 13.7695 93.989C12.6932 93.7175 11.5005 93.4265 10.3466 93.0871C9.17668 92.752 8.03 92.3406 6.91386 91.8557C5.82377 91.4009 4.8074 90.7865 3.89814 90.0326C3.01831 89.307 2.29573 88.4095 1.77453 87.3951C1.2157 86.2456 0.942912 84.9782 0.979385 83.7006C1.0015 82.4583 1.3349 81.2414 1.94907 80.1612C2.63696 78.9343 3.59128 77.8773 4.74177 77.0679C6.12768 76.0794 7.67231 75.335 9.30899 74.8668C11.3661 74.2738 13.5005 73.9927 15.641 74.0328C17.136 74.0183 18.6282 74.1646 20.0919 74.4692C21.3057 74.7219 22.4866 75.1122 23.6119 75.6328C24.5625 76.0762 25.4522 76.64 26.2591 77.3104C28.4754 79.1227 30.0412 81.6076 30.7197 84.3891H19.258C19.1639 83.9405 18.9569 83.5233 18.6568 83.177C18.3715 82.8196 18.0148 82.5257 17.6095 82.3139C17.0537 82.0476 16.4412 81.9211 15.8253 81.9455C15.0274 81.8784 14.2269 82.0399 13.5174 82.4109C13.3251 82.5195 13.1636 82.6753 13.0483 82.8637C12.9329 83.052 12.8674 83.2666 12.858 83.4873C12.858 84.0109 13.3235 84.457 14.2544 84.6897C15.1853 84.9224 16.3392 85.2618 17.7259 85.5527C19.1125 85.8436 20.6349 86.1927 22.2252 86.6097C23.7948 86.9971 25.3072 87.5871 26.7246 88.3648C28.0773 89.0991 29.2601 90.1101 30.196 91.332C31.173 92.6927 31.6648 94.3421 31.5924 96.0156C31.5922 97.3994 31.2596 98.7629 30.6227 99.9913C29.9211 101.319 28.9262 102.47 27.7136 103.356C26.249 104.415 24.6071 105.203 22.8652 105.683C20.7105 106.306 18.475 106.603 16.2325 106.566" fill="white"/>
<path d="M41.1293 84.3991H31.5391V74.9155H62.1521V84.3991H52.5619V105.693H41.1293V84.3991Z" fill="white"/>
<path d="M101.328 74.9155H114.118L122.661 89.422V74.9155H133.997V105.693H121.207L112.673 91.1772V105.693H101.328V74.9155Z" fill="white"/>
<path d="M137.945 74.9155H164.796V83.7106H149.368V86.5615H164.796V94.0377H149.368V96.8983H164.796V105.693H137.945V74.9155Z" fill="white"/>
<path d="M80.6027 96.8397C79.3268 96.7865 78.0947 96.3596 77.0594 95.612C76.0241 94.8644 75.2313 93.8291 74.7795 92.6347C74.3276 91.4403 74.2367 90.1395 74.518 88.8938C74.7992 87.6482 75.4403 86.5127 76.3615 85.6283C77.2827 84.744 78.4435 84.1497 79.6995 83.9195C80.9556 83.6893 82.2517 83.8333 83.4266 84.3335C84.6016 84.8337 85.6037 85.668 86.3084 86.733C87.0131 87.7979 87.3894 89.0464 87.3905 90.3234C87.3729 91.197 87.1833 92.0586 86.8326 92.8589C86.4819 93.6593 85.9769 94.3826 85.3466 94.9878C84.7162 95.5929 83.9729 96.0679 83.1589 96.3857C82.3449 96.7034 81.4763 96.8577 80.6027 96.8397ZM97.5916 83.9429C96.7512 81.9815 95.5054 80.2201 93.9359 78.7745C92.262 77.2559 90.3091 76.0769 88.1857 75.303C83.2692 73.6073 77.9265 73.6073 73.0101 75.303C70.8832 76.0758 68.9269 77.2549 67.2502 78.7745C65.7047 80.2285 64.4795 81.9887 63.6526 83.9429C62.8093 85.9542 62.375 88.1134 62.375 90.2943C62.375 92.4753 62.8093 94.6344 63.6526 96.6458C64.4942 98.6037 65.74 100.362 67.3083 101.805C68.9814 103.331 70.9386 104.514 73.0683 105.286C77.9847 106.981 83.3274 106.981 88.2439 105.286C90.3696 104.512 92.3231 103.329 93.9941 101.805C95.5443 100.358 96.7704 98.6002 97.5916 96.6458C98.4363 94.6331 98.8713 92.4722 98.8713 90.2895C98.8713 88.1067 98.4363 85.9459 97.5916 83.9332" fill="white"/>
<path d="M184.205 102.707C185.347 102.569 186.451 102.206 187.453 101.64C189.441 100.409 191.419 99.1674 193.223 97.9262L211.084 86.2899C213.431 84.6997 213.431 84.5251 211.627 82.4112C211.443 82.2367 211.259 81.8876 211.084 81.7033C210.453 80.8125 209.545 80.156 208.501 79.8367C207.457 79.5173 206.336 79.5531 205.315 79.9385C201.465 80.9689 197.892 82.84 194.852 85.4172C190.662 88.9638 187.121 93.2131 184.389 97.9747C183.644 99.1536 183.152 100.474 182.944 101.853C182.76 102.561 183.119 102.92 184.205 102.746M215.235 82.7603C215.778 82.5857 215.952 82.0524 216.137 81.8779C218.842 77.0973 221.906 72.6756 224.97 68.2538C229.305 61.7084 233.814 55.3473 238.323 48.8019C240.262 45.7959 242.473 42.9838 244.277 39.9583C247.525 35.1875 251.132 30.4069 254.555 25.6361C257.804 20.681 261.595 16.0847 265.222 11.3138C266.841 9.01565 268.286 6.53326 270.07 4.40965C271.214 2.94645 272.548 1.64208 274.036 0.530903C275.123 -0.176968 275.976 -0.176968 276.567 0.530903C277.285 1.23877 277.101 1.94664 276.567 2.82905C275.968 3.87171 275.304 4.87571 274.579 5.83509C272.233 8.49203 270.255 11.3235 268.083 14.155L265.92 16.8022C260.509 23.6967 255.457 30.6009 250.405 37.6699C246.623 42.9741 242.832 48.2782 239.041 53.7667C234.357 59.9533 230.207 66.4986 225.698 72.8598C222.449 77.2816 219.56 81.8876 216.68 86.2996L203.104 107.526C199.497 113.538 195.531 119.376 191.739 125.213C191.348 126.074 190.799 126.853 190.12 127.511C190.017 127.647 189.887 127.76 189.739 127.843C189.59 127.926 189.426 127.978 189.256 127.994C189.087 128.011 188.916 127.992 188.754 127.939C188.592 127.885 188.443 127.799 188.316 127.686C187.773 127.337 187.957 126.629 188.132 126.096C189.218 124.68 190.304 123.264 191.206 121.848C194.115 117.077 197.024 112.151 200.04 107.352C203.831 101.339 207.613 95.1432 211.22 89.1311C211.796 88.5549 212.176 87.8119 212.306 87.0075C209.96 88.6075 207.797 90.1978 205.635 91.7881C200.942 95.1432 196.432 98.508 191.739 101.863C190.189 102.916 188.569 103.862 186.891 104.695C186.049 105.149 185.133 105.448 184.185 105.577C180.762 106.11 178.231 103.987 178.416 100.632C178.603 99.0042 178.964 97.4015 179.492 95.851C181.721 90.3665 185.41 85.5975 190.159 82.0621C193.171 79.6008 196.591 77.6844 200.263 76.3991C202.356 75.7296 204.562 75.4889 206.75 75.6913C207.927 75.6985 209.085 75.9928 210.122 76.5488C211.16 77.1047 212.046 77.9055 212.704 78.8815C213.606 80.113 214.333 81.3542 215.235 82.7603Z" fill="white"/>
<path d="M248.803 85.3684C248.445 85.0193 248.803 84.6605 248.978 84.1369C249.705 81.8388 248.619 80.423 246.273 80.0642C244.588 79.9576 242.908 80.3273 241.424 81.1309C237.023 83.2684 233.192 86.4187 230.244 90.3235C228.44 92.9708 226.811 95.8022 226.636 98.9925C226.636 99.3416 226.452 99.6907 226.452 100.049C226.636 102.706 227.538 103.589 230.244 103.589C231.934 103.553 233.593 103.129 235.092 102.348C238.515 100.757 241.763 98.8083 243.567 95.2786C243.751 94.9198 244.11 94.5707 244.11 94.2119C244.653 93.155 244.294 92.6217 243.034 92.4471H240.125C239.625 92.4154 239.136 92.2938 238.68 92.0883C237.604 91.5647 237.419 90.6726 238.496 89.9647C239.407 89.2961 240.5 88.9213 241.63 88.8901C242.759 88.8589 243.871 89.1729 244.818 89.7902C245.586 90.3962 246.545 90.709 247.523 90.6726C256.542 90.498 265.375 90.498 274.219 90.149C276.74 90.149 279.067 89.9647 281.618 89.9647C282.151 89.9647 283.053 89.7902 283.053 90.6726C283.237 91.3805 282.151 91.3805 281.618 91.3805C280.782 91.5269 279.934 91.5886 279.087 91.5647L261.477 92.0883C257.152 92.2726 252.818 92.6217 248.309 92.4471C247.86 92.3865 247.404 92.499 247.035 92.762C246.666 93.0249 246.411 93.4185 246.321 93.8629C245.86 95.7712 244.93 97.5343 243.616 98.9925C241.316 101.494 238.562 103.534 235.499 105.005C232.59 106.236 229.371 106.944 226.122 105.887C225 105.612 223.972 105.04 223.147 104.231C222.321 103.423 221.728 102.407 221.429 101.291C220.169 96.6944 221.255 92.4471 223.96 88.5587C225.711 85.8944 227.98 83.6092 230.632 81.8388C234.239 79.5406 237.846 77.7661 242.18 77.2328C243.423 77.0299 244.694 77.0981 245.908 77.4329C247.121 77.7676 248.248 78.361 249.211 79.1721C249.638 79.5662 249.979 80.0445 250.212 80.5769C250.445 81.1093 250.566 81.6842 250.566 82.2654C250.566 82.8466 250.445 83.4216 250.212 83.9539C249.979 84.4863 249.638 84.9646 249.211 85.3587C249.211 85.5332 249.026 85.3587 248.852 85.3587" fill="white"/>
<path d="M316.608 84.1375C314.195 84.6458 311.88 85.5397 309.752 86.7847C301.858 90.8657 294.624 96.1124 288.293 102.348C286.848 103.764 286.121 104.123 285.384 103.589C283.939 102.523 284.841 101.466 285.2 100.409C286.765 96.9567 288.513 93.5904 290.436 90.3241C292.39 87.2608 294.136 84.0698 295.662 80.7727C296.021 80.2394 296.564 79.5412 296.021 78.8333C295.488 78.3 294.761 79.0079 294.082 79.1824C290.575 80.6201 287.246 82.4586 284.162 84.6611C273.205 91.5814 263.251 99.9731 254.577 109.601C253.995 110.128 253.561 110.796 253.316 111.541C253.157 111.818 252.912 112.036 252.618 112.162C252.324 112.288 251.998 112.315 251.687 112.239C251.364 112.136 251.093 111.915 250.925 111.62C250.758 111.325 250.708 110.979 250.785 110.649C251.157 109.318 251.64 108.02 252.23 106.77C255.139 101.466 258.368 96.3361 261.607 91.032C264.138 86.9593 266.659 82.8963 269.549 79.0079C270.625 77.5921 271.711 76.3509 272.797 74.9352C273.277 74.3703 273.9 73.9449 274.601 73.7037C275.019 73.5983 275.459 73.6085 275.872 73.7331C276.285 73.8578 276.657 74.0923 276.947 74.4116C277.226 74.6792 277.41 75.0289 277.475 75.4094C277.54 75.7899 277.48 76.1811 277.306 76.5255C276.811 77.5326 276.206 78.4821 275.503 79.357C272.254 83.7787 268.821 88.2005 265.583 92.6223C264.336 94.261 263.189 95.974 262.15 97.7519C262.985 97.3198 263.722 96.7188 264.312 95.9871C271.853 88.8919 280.069 82.5522 288.846 77.0588C291.051 75.5548 293.488 74.4215 296.06 73.7037C297.436 73.2786 298.924 73.4037 300.21 74.0528C301.209 74.4733 302.018 75.2458 302.484 76.2236C302.951 77.2013 303.042 78.3163 302.741 79.357C302.335 81.1619 301.533 82.8542 300.394 84.312C298.591 86.7847 296.603 89.4417 294.799 92.0695C294.441 92.6029 294.082 93.3107 293.539 94.0089C293.778 94.0547 294.026 94.0284 294.25 93.9335C294.474 93.8386 294.666 93.6792 294.799 93.4756C299.976 89.1212 305.599 85.328 311.575 82.1593C312.836 81.626 314.106 81.1024 315.182 80.7436C315.919 80.4042 316.718 80.2226 317.529 80.2103C320.777 80.0357 322.581 82.3339 322.038 85.3399C321.491 87.3452 320.641 89.2549 319.517 91.0029C318.615 92.7677 317.713 94.5422 316.811 96.1325C316.627 96.6658 316.452 97.1895 316.268 97.8974C315.725 99.8367 316.452 100.903 318.615 100.903C320.263 101.014 321.916 100.773 323.463 100.196C332.123 97.364 340.598 94.0089 349.082 90.295C349.58 90.0995 350.06 89.8627 350.518 89.5871C350.702 89.5871 351.061 89.4126 351.245 89.7617C351.604 90.1205 351.245 90.4695 351.061 90.6441C350.148 91.2252 349.172 91.7002 348.152 92.0598C340.078 95.9075 331.759 99.2181 323.25 101.97C321.473 102.677 319.577 103.036 317.665 103.027C316.298 103.057 314.972 102.559 313.964 101.636C312.956 100.713 312.343 99.4359 312.254 98.0719C312.121 96.5612 312.368 95.0413 312.971 93.6501C313.61 91.3131 314.518 89.0581 315.677 86.9302C316.264 86.1067 316.58 85.1201 316.579 84.1084" fill="white"/>
</svg>
