<svg width="89" height="16" viewBox="0 0 89 16" fill="none" xmlns="http://www.w3.org/2000/svg">
<g clip-path="url(#clip0_65_851)">
<path d="M8.00543 16.0043C7.19479 16.0139 6.38561 15.9333 5.59291 15.7639C4.94868 15.6258 4.32108 15.4195 3.7208 15.1486C3.21548 14.9183 2.74197 14.6242 2.31189 14.2736C1.94146 13.9709 1.60496 13.6291 1.30828 13.2543C0.660168 12.4451 0.204824 11.4999 -0.0234375 10.4899H5.61703C5.70384 10.7887 5.84805 11.0679 6.04164 11.312C6.24186 11.539 6.4844 11.7251 6.75577 11.8601C7.13708 12.0436 7.55829 12.1296 7.98131 12.1101C8.43883 12.1491 8.89791 12.0556 9.30337 11.8409C9.40884 11.7786 9.4977 11.6919 9.56238 11.5881C9.62706 11.4843 9.66565 11.3665 9.67491 11.2447C9.67082 11.1174 9.63178 10.9936 9.56203 10.8868C9.49227 10.78 9.39447 10.6943 9.27925 10.639C8.94964 10.4519 8.59792 10.3066 8.23223 10.2063C7.79315 10.0765 7.30098 9.94664 6.74128 9.81684C6.18157 9.68703 5.62187 9.5428 5.05251 9.37453C4.47522 9.20996 3.90946 9.0076 3.35892 8.76876C2.82213 8.54303 2.32146 8.24012 1.87283 7.86972C1.43687 7.5151 1.0788 7.07488 0.820944 6.57645C0.545153 6.01091 0.409502 5.38772 0.425317 4.75914C0.435839 4.14769 0.601851 3.54889 0.907821 3.01876C1.24645 2.41496 1.71628 1.89424 2.28295 1.49472C2.96953 1.01066 3.73286 0.644992 4.54106 0.412991C5.55524 0.121275 6.60743 -0.0180789 7.66287 -0.000470858C8.40199 -0.00819093 9.13975 0.064351 9.86309 0.215874C10.4616 0.341754 11.0442 0.533642 11.6001 0.78799C12.0688 1.00642 12.5081 1.28261 12.9077 1.6101C13.2504 1.89944 13.5639 2.22149 13.8437 2.57164C14.443 3.31943 14.8741 4.18675 15.1079 5.11491H9.47226C9.42891 4.89467 9.32917 4.68931 9.18274 4.51876C9.04051 4.34311 8.86301 4.19901 8.66163 4.09569C8.38835 3.96403 8.08682 3.90129 7.7835 3.91299C7.39019 3.88065 6.99564 3.95894 6.64477 4.13895C6.54944 4.19201 6.4693 4.26843 6.41188 4.36097C6.35447 4.45351 6.32169 4.55911 6.31667 4.66779C6.31667 4.92741 6.54344 5.14857 7.00182 5.26395C7.4602 5.37934 8.03437 5.5428 8.71953 5.68703C9.40469 5.83126 10.1429 6.00434 10.9391 6.20626C11.7143 6.39972 12.4617 6.6905 13.1634 7.07164C13.8283 7.42918 14.4116 7.9203 14.8763 8.51395C15.3559 9.18404 15.597 9.99458 15.5615 10.8168C15.5615 11.4983 15.396 12.1697 15.079 12.7736C14.7309 13.4287 14.2355 13.9947 13.6314 14.4274C12.9178 14.949 12.1175 15.3413 11.2672 15.5861C10.2041 15.8905 9.1017 16.0364 7.99577 16.0188" fill="#141416"/>
<path d="M20.2694 5.09706H15.5312V0.433594H30.6481V5.09706H25.9099V15.5682H20.2694V5.09706Z" fill="#141416"/>
<path d="M49.9844 0.433594H56.3004L60.5174 7.56821V0.433594H66.1097V15.5682H59.7937L55.5862 8.43359V15.5682H49.9844V0.433594Z" fill="#141416"/>
<path d="M68.0547 0.433594H81.3091V4.75571H73.6952V6.16436H81.3091V9.83744H73.6952V11.2461H81.3091V15.5682H68.0547V0.433594Z" fill="#141416"/>
<path d="M39.7368 11.2211C39.1062 11.1966 38.4967 10.9879 37.9843 10.621C37.4718 10.2541 37.0789 9.7451 36.8544 9.15741C36.6299 8.56973 36.5838 7.92926 36.7218 7.31567C36.8598 6.70208 37.1758 6.14245 37.6304 5.7064C38.0851 5.27034 38.6584 4.97712 39.2791 4.86318C39.8997 4.74924 40.5403 4.81963 41.1211 5.06559C41.7019 5.31154 42.1973 5.7222 42.5457 6.2465C42.8941 6.7708 43.08 7.38559 43.0805 8.01439C43.0724 8.44374 42.9794 8.86727 42.8069 9.26081C42.6345 9.65434 42.3859 10.0102 42.0753 10.308C41.7648 10.6057 41.3985 10.8397 40.9972 10.9963C40.596 11.153 40.1677 11.2294 39.7368 11.2211ZM48.1324 4.87497C47.7155 3.91245 47.1007 3.0477 46.3278 2.33651C45.4993 1.59089 44.5344 1.01141 43.4858 0.629774C41.0608 -0.209925 38.4224 -0.209925 35.9974 0.629774C34.9475 1.00864 33.982 1.58843 33.1554 2.33651C32.3795 3.0451 31.7643 3.91052 31.3509 4.87497C30.9336 5.86437 30.7188 6.92678 30.7188 7.99997C30.7188 9.07316 30.9336 10.1356 31.3509 11.125C31.7629 12.0916 32.3783 12.9588 33.1554 13.6682C33.982 14.4163 34.9475 14.9961 35.9974 15.375C38.4235 16.2083 41.0597 16.2083 43.4858 15.375C44.5344 14.9933 45.4993 14.4138 46.3278 13.6682C47.1019 12.9562 47.7168 12.0896 48.1324 11.125C48.5464 10.1348 48.7596 9.07268 48.7596 7.99997C48.7596 6.92726 48.5464 5.86516 48.1324 4.87497Z" fill="#141416"/>
</g>
<defs>
<clipPath id="clip0_65_851">
<rect width="88.8" height="16" fill="white"/>
</clipPath>
</defs>
</svg>
