<svg width="110" height="20" viewBox="0 0 110 20" fill="none" xmlns="http://www.w3.org/2000/svg">
<g id="Logotype" clip-path="url(#clip0_183_4116)">
<path id="Vector" d="M9.84103 20.0059C8.84446 20.0179 7.84969 19.9171 6.87519 19.7054C6.08319 19.5327 5.31165 19.2749 4.57369 18.9362C3.95247 18.6483 3.37036 18.2807 2.84165 17.8424C2.38626 17.4641 1.97258 17.0369 1.60785 16.5684C0.811097 15.5569 0.251317 14.3754 -0.0292969 13.1129H6.90484C7.01156 13.4864 7.18884 13.8354 7.42683 14.1405C7.67298 14.4243 7.97114 14.6569 8.30474 14.8256C8.77352 15.055 9.29133 15.1624 9.81138 15.1381C10.3738 15.1869 10.9382 15.07 11.4367 14.8016C11.5663 14.7237 11.6756 14.6154 11.7551 14.4856C11.8346 14.3559 11.882 14.2087 11.8934 14.0564C11.8884 13.8972 11.8404 13.7424 11.7546 13.6089C11.6689 13.4754 11.5486 13.3683 11.407 13.2992C11.0018 13.0654 10.5694 12.8837 10.1198 12.7583C9.58005 12.5961 8.97501 12.4338 8.28693 12.2715C7.59886 12.1093 6.91078 11.929 6.21084 11.7186C5.50115 11.5129 4.80562 11.26 4.12882 10.9614C3.46892 10.6793 2.85342 10.3006 2.30189 9.83764C1.76594 9.39437 1.32574 8.84409 1.00875 8.22105C0.669703 7.51412 0.502939 6.73513 0.522381 5.94942C0.535316 5.1851 0.739403 4.4366 1.11555 3.77394C1.53185 3.01919 2.10943 2.36829 2.80606 1.86889C3.65012 1.26381 4.58852 0.806728 5.58209 0.516727C6.82887 0.152082 8.12239 -0.0221103 9.4199 -0.000100291C10.3285 -0.00975039 11.2355 0.0809271 12.1247 0.270331C12.8605 0.427681 13.5767 0.667541 14.2601 0.985476C14.8363 1.25851 15.3764 1.60375 15.8676 2.01312C16.289 2.37479 16.6744 2.77735 17.0184 3.21504C17.7551 4.14978 18.2851 5.23392 18.5725 6.39413H11.6443C11.591 6.11882 11.4684 5.86213 11.2884 5.64893C11.1135 5.42937 10.8953 5.24925 10.6477 5.12009C10.3118 4.95553 9.94108 4.8771 9.56819 4.89173C9.08467 4.85129 8.59963 4.94916 8.16829 5.17418C8.0511 5.2405 7.95257 5.33602 7.88199 5.4517C7.81141 5.56738 7.77111 5.69938 7.76494 5.83523C7.76494 6.15975 8.04372 6.4362 8.60723 6.58043C9.17074 6.72466 9.87661 6.92899 10.7189 7.10928C11.5612 7.28956 12.4688 7.50591 13.4475 7.75832C14.4005 8.00014 15.3194 8.36362 16.182 8.84004C16.9994 9.28697 17.7165 9.90087 18.2877 10.6429C18.8773 11.4805 19.1738 12.4937 19.1301 13.5215C19.1301 14.3734 18.9266 15.2126 18.5369 15.9674C18.109 16.7863 17.4999 17.4938 16.7574 18.0348C15.8801 18.6868 14.8962 19.1771 13.8508 19.4831C12.544 19.8637 11.1887 20.0459 9.82915 20.0239" fill="white"/>
<path id="Vector_2" d="M24.9187 6.37132H19.0938V0.541992H37.6777V6.37132H31.8528V19.4603H24.9187V6.37132Z" fill="white"/>
<path id="Vector_3" d="M61.4492 0.541992H69.2138L74.3981 9.46026V0.541992H81.2729V19.4603H73.5083L68.3359 10.542V19.4603H61.4492V0.541992Z" fill="white"/>
<path id="Vector_4" d="M83.6641 0.541992H99.9584V5.94464H90.5982V7.70545H99.9584V12.2968H90.5982V14.0576H99.9584V19.4603H83.6641V0.541992Z" fill="white"/>
<path id="Vector_5" d="M48.85 14.0264C48.0748 13.9958 47.3256 13.7349 46.6956 13.2762C46.0655 12.8176 45.5825 12.1814 45.3065 11.4468C45.0306 10.7122 44.9739 9.91157 45.1436 9.14459C45.3132 8.3776 45.7016 7.67806 46.2606 7.13299C46.8196 6.58793 47.5244 6.2214 48.2873 6.07897C49.0503 5.93655 49.8378 6.02454 50.5518 6.33198C51.2658 6.63942 51.8748 7.15275 52.3031 7.80812C52.7314 8.46349 52.9601 9.23198 52.9607 10.018C52.9506 10.5547 52.8364 11.0841 52.6243 11.576C52.4123 12.0679 52.1067 12.5127 51.725 12.8849C51.3432 13.2572 50.8928 13.5496 50.3996 13.7454C49.9063 13.9413 49.3797 14.0368 48.85 14.0264ZM59.1712 6.09371C58.6587 4.89056 57.9029 3.80962 56.9527 2.92063C55.9343 1.98862 54.748 1.26426 53.4589 0.787218C50.4777 -0.262406 47.2342 -0.262406 44.253 0.787218C42.9622 1.2608 41.7754 1.98554 40.7592 2.92063C39.8053 3.80637 39.049 4.88815 38.5408 6.09371C38.0278 7.33046 37.7637 8.65847 37.7637 9.99996C37.7637 11.3414 38.0278 12.6695 38.5408 13.9062C39.0473 15.1145 39.8038 16.1986 40.7592 17.0853C41.7754 18.0204 42.9622 18.7451 44.253 19.2187C47.2355 20.2604 50.4764 20.2604 53.4589 19.2187C54.748 18.7417 55.9343 18.0173 56.9527 17.0853C57.9044 16.1953 58.6603 15.112 59.1712 13.9062C59.6802 12.6685 59.9423 11.3408 59.9423 9.99996C59.9423 8.65907 59.6802 7.33145 59.1712 6.09371Z" fill="white"/>
</g>
<defs>
<clipPath id="clip0_183_4116">
<rect width="109.167" height="20" fill="white"/>
</clipPath>
</defs>
</svg>
