<svg width="40" height="40" viewBox="0 0 40 40" fill="none" xmlns="http://www.w3.org/2000/svg">
<path d="M32.3281 14.6696C32.1308 14.5866 31.9134 14.564 31.7032 14.6045C31.4931 14.645 31.2996 14.7468 31.1473 14.8971L29.2081 16.8471L22.9355 10.5637C22.8348 10.4622 22.715 10.3816 22.583 10.3266C22.451 10.2716 22.3094 10.2433 22.1663 10.2433C22.0233 10.2433 21.8817 10.2716 21.7497 10.3266C21.6177 10.3816 21.4979 10.4622 21.3972 10.5637L17.833 14.1388L8.85207 5.14703C8.75106 5.04602 8.63114 4.9659 8.49917 4.91123C8.36719 4.85657 8.22574 4.82843 8.08289 4.82843C7.94004 4.82843 7.79859 4.85657 7.66662 4.91123C7.53464 4.9659 7.41473 5.04602 7.31372 5.14703C7.10972 5.35103 6.99512 5.62771 6.99512 5.91621C6.99512 6.05905 7.02325 6.2005 7.07792 6.33248C7.13259 6.46445 7.21271 6.58437 7.31372 6.68538L17.0638 16.4355C17.1645 16.537 17.2843 16.6176 17.4163 16.6726C17.5484 16.7276 17.69 16.7559 17.833 16.7559C17.976 16.7559 18.1176 16.7276 18.2496 16.6726C18.3816 16.6176 18.5014 16.537 18.6021 16.4355L22.1663 12.8604L27.6806 18.3746L25.7305 20.3138C25.5802 20.4662 25.4784 20.6596 25.4379 20.8698C25.3974 21.0799 25.4201 21.2974 25.503 21.4947C25.5843 21.6925 25.7223 21.8619 25.8997 21.9814C26.0771 22.1009 26.2858 22.1653 26.4997 22.1663H31.9164C32.2037 22.1663 32.4793 22.0522 32.6825 21.849C32.8856 21.6459 32.9998 21.3703 32.9998 21.083V15.6663C32.9987 15.4524 32.9343 15.2436 32.8148 15.0663C32.6953 14.8889 32.5259 14.7509 32.3281 14.6696Z" fill="#DEC185"/>
<path d="M31.9167 25.4164H27.5833C26.985 25.4164 26.5 25.9014 26.5 26.4997V34.0831C26.5 34.6814 26.985 35.1665 27.5833 35.1665H31.9167C32.515 35.1665 33.0001 34.6814 33.0001 34.0831V26.4997C33.0001 25.9014 32.515 25.4164 31.9167 25.4164Z" fill="#DEC185"/>
<path d="M22.1657 21.083H17.8324C17.2341 21.083 16.749 21.568 16.749 22.1664V34.0831C16.749 34.6814 17.2341 35.1665 17.8324 35.1665H22.1657C22.764 35.1665 23.2491 34.6814 23.2491 34.0831V22.1664C23.2491 21.568 22.764 21.083 22.1657 21.083Z" fill="#DEC185"/>
<path d="M12.4157 16.7496H8.08237C7.48405 16.7496 6.99902 17.2347 6.99902 17.833V34.0831C6.99902 34.6814 7.48405 35.1665 8.08237 35.1665H12.4157C13.014 35.1665 13.4991 34.6814 13.4991 34.0831V17.833C13.4991 17.2347 13.014 16.7496 12.4157 16.7496Z" fill="#DEC185"/>
</svg>
