<svg width="32" height="32" viewBox="0 0 32 32" fill="none" xmlns="http://www.w3.org/2000/svg">
<path d="M10.6868 4.47363V7.37861C10.692 9.51317 9.51218 11.1733 7.03115 11.1733H4.16211L4.16574 24.7768C4.16574 26.7756 4.86462 27.5239 6.80138 27.5239H15.1217C14.0332 26.4736 13.3514 25.0053 13.3514 23.3843V19.1986C13.3514 18.1305 14.045 17.4458 14.8814 16.9902V16.4532C14.8814 13.4586 17.3456 10.995 20.3399 10.995H21.5488C22.0123 10.995 22.4606 11.0599 22.8912 11.1717V7.2207C22.8912 5.22394 22.1906 4.47363 20.2558 4.47363H10.6868Z" fill="#777E91"/>
<path d="M9.12978 4.47363V7.19136C9.12978 8.28353 8.93066 8.85351 8.65737 9.14032C8.38276 9.4268 7.87805 9.62459 6.83237 9.62459H4.16211C4.16211 9.15911 4.44364 8.94648 4.73209 8.64912L8.36859 4.9078C8.60595 4.63484 8.89077 4.47693 9.12978 4.47363Z" fill="#777E91"/>
<path d="M20.9439 20.8845C21.5603 20.8845 22.0548 21.379 22.0548 21.9955V23.3672C22.0548 23.982 21.5603 24.4765 20.9439 24.4765C20.3294 24.4765 19.8349 23.982 19.8349 23.3672V21.9955C19.8349 21.379 20.3294 20.8845 20.9439 20.8845ZM20.338 14.7241H21.5501C22.4758 14.7241 23.1866 15.4346 23.1866 16.3602V17.907H18.7032V16.3602C18.7032 15.4346 19.4123 14.7241 20.338 14.7241ZM20.338 12.4406C18.1866 12.4406 16.418 14.2089 16.418 16.3606V17.9074H16.2479C15.487 17.9469 14.8896 18.4655 14.8896 19.106V23.2917C14.8896 25.6369 16.7766 27.5239 19.1202 27.5239H22.7689C25.1124 27.5239 26.9994 25.6369 26.9994 23.2917V19.1057C26.9994 18.4651 26.4018 17.9463 25.6412 17.907H25.4698V16.3602C25.4698 14.2085 23.7015 12.4402 21.5498 12.4402L20.338 12.4406Z" fill="#777E91"/>
</svg>
