<svg width="32" height="32" viewBox="0 0 32 32" fill="none" xmlns="http://www.w3.org/2000/svg">
<path d="M17.4062 4H16.7031V15.2969H28V14.5938C28 8.77787 23.2221 4 17.4062 4Z" fill="#777E91"/>
<path d="M7.66113 25.3341C9.5171 26.9594 11.9394 28 14.5947 28C20.4106 28 25.1416 23.2221 25.1416 17.4062V16.7031H16.2921L7.66113 25.3341Z" fill="#777E91"/>
<path d="M15.2967 6.85938H14.5935C12.2974 6.85938 10.1769 7.60506 8.44336 8.85555L15.2967 15.7089V6.85938Z" fill="#777E91"/>
<path d="M7.35512 9.75568C5.323 11.6793 4 14.3936 4 17.4063C4 20.0616 5.04063 22.4838 6.66592 24.3398L14.3026 16.7032L7.35512 9.75568Z" fill="#777E91"/>
</svg>
