<svg width="32" height="32" viewBox="0 0 32 32" fill="none" xmlns="http://www.w3.org/2000/svg">
<path d="M26.8427 16.3239C26.7421 16.118 26.7421 15.8819 26.8427 15.676L27.7756 13.7677C28.295 12.7051 27.8835 11.4386 26.8387 10.8843L24.9624 9.88873C24.7599 9.78136 24.6211 9.59025 24.5815 9.36461L24.2146 7.27236C24.0102 6.10746 22.9326 5.32467 21.7618 5.49032L19.6586 5.78782C19.4316 5.81987 19.2072 5.74689 19.0425 5.58758L17.5158 4.11072C16.6658 3.28836 15.3341 3.28831 14.4841 4.11072L12.9574 5.58773C12.7927 5.74708 12.5682 5.81992 12.3412 5.78797L10.238 5.49047C9.06684 5.32472 7.98967 6.1076 7.78533 7.27251L7.41836 9.36466C7.37874 9.59035 7.23995 9.7814 7.03756 9.88883L5.16119 10.8844C4.11646 11.4387 3.70494 12.7052 4.22432 13.7678L5.15714 15.6761C5.25777 15.882 5.25777 16.1182 5.15714 16.324L4.22428 18.2324C3.70489 19.2949 4.11641 20.5614 5.16114 21.1157L7.03752 22.1113C7.23995 22.2187 7.37874 22.4098 7.41836 22.6354L7.78533 24.7277C7.97135 25.7881 8.88067 26.5318 9.92574 26.5317C10.0287 26.5317 10.1331 26.5245 10.2381 26.5096L12.3413 26.2121C12.5681 26.18 12.7927 26.2531 12.9574 26.4124L14.4841 27.8893C14.9092 28.3005 15.4545 28.506 15.9999 28.506C16.5453 28.506 17.0909 28.3004 17.5158 27.8893L19.0425 26.4124C19.2072 26.2531 19.4317 26.1803 19.6586 26.2121L21.7618 26.5096C22.9332 26.6754 24.0102 25.8925 24.2146 24.7276L24.5816 22.6355C24.6212 22.4098 24.76 22.2187 24.9624 22.1113L26.8387 21.1157C27.8835 20.5614 28.295 19.2949 27.7756 18.2323L26.8427 16.3239ZM13.1147 9.50838C14.573 9.50838 15.7595 10.6948 15.7595 12.1531C15.7595 13.6114 14.573 14.7979 13.1147 14.7979C11.6564 14.7979 10.47 13.6114 10.47 12.1531C10.47 10.6948 11.6564 9.50838 13.1147 9.50838ZM11.7496 21.2703C11.6088 21.4111 11.4242 21.4815 11.2396 21.4815C11.0551 21.4815 10.8704 21.4111 10.7296 21.2703C10.448 20.9886 10.448 20.5319 10.7296 20.2502L20.2502 10.7297C20.5318 10.448 20.9886 10.448 21.2702 10.7297C21.5519 11.0113 21.5519 11.468 21.2702 11.7497L11.7496 21.2703ZM18.885 22.4916C17.4267 22.4916 16.2403 21.3052 16.2403 19.8469C16.2403 18.3886 17.4267 17.2021 18.885 17.2021C20.3433 17.2021 21.5298 18.3886 21.5298 19.8469C21.5298 21.3052 20.3433 22.4916 18.885 22.4916Z" fill="#777E91"/>
<path d="M18.8848 18.6448C18.2219 18.6448 17.6826 19.184 17.6826 19.8469C17.6826 20.5098 18.2219 21.049 18.8848 21.049C19.5477 21.049 20.0869 20.5098 20.0869 19.8469C20.0869 19.184 19.5477 18.6448 18.8848 18.6448Z" fill="#777E91"/>
<path d="M13.1142 10.951C12.4514 10.951 11.9121 11.4902 11.9121 12.1531C11.9121 12.8159 12.4514 13.3553 13.1142 13.3553C13.7771 13.3553 14.3164 12.816 14.3164 12.1531C14.3164 11.4903 13.7771 10.951 13.1142 10.951Z" fill="#777E91"/>
</svg>
