<svg width="32" height="32" viewBox="0 0 32 32" fill="none" xmlns="http://www.w3.org/2000/svg">
<path d="M23.7695 15.1875C21.6696 15.1875 19.9609 16.8961 19.9609 18.9961C19.9609 21.0961 21.6696 22.8047 23.7695 22.8047C25.8695 22.8047 27.5781 21.0961 27.5781 18.9961C27.5781 16.8961 25.8695 15.1875 23.7695 15.1875Z" fill="#777E91"/>
<path d="M8.33203 3C6.23207 3 4.52344 4.75942 4.52344 6.85938C4.52344 8.95933 6.23207 10.668 8.33203 10.668C10.432 10.668 12.1406 8.95933 12.1406 6.85938C12.1406 4.75942 10.432 3 8.33203 3Z" fill="#777E91"/>
<path d="M27.4015 9.57597C27.2743 9.31267 27.0079 9.14453 26.7148 9.14453H25.9107C25.5306 5.72127 22.6206 3 19.0977 3H16C15.579 3 15.2383 3.34069 15.2383 3.76172C15.2383 4.18275 15.579 4.52344 16 4.52344C18.6817 4.52344 20.9581 6.56408 21.3285 9.14453H20.6211C20.328 9.14453 20.0617 9.31267 19.9345 9.57597C19.808 9.84003 19.843 10.1532 20.026 10.3823L23.0729 14.1909C23.2179 14.3717 23.4366 14.4766 23.668 14.4766C23.8993 14.4766 24.118 14.3717 24.2631 14.1909L27.3099 10.3823C27.493 10.1532 27.5279 9.84003 27.4015 9.57597Z" fill="#777E91"/>
<path d="M16.1016 27.4258C13.4199 27.4258 11.1435 25.3851 10.7731 22.8047H11.4805C11.7735 22.8047 12.0399 22.6365 12.1671 22.3732C12.2935 22.1092 12.2586 21.796 12.0756 21.5669L9.02872 17.7583C8.7386 17.3968 8.12862 17.3968 7.83851 17.7583L4.79163 21.5669C4.60862 21.796 4.57368 22.1092 4.70012 22.3732C4.82733 22.6365 5.09368 22.8047 5.38674 22.8047H6.19086C6.57096 26.2279 9.48097 28.9492 13.0039 28.9492H16.1016C16.5226 28.9492 16.8633 28.6085 16.8633 28.1875C16.8633 27.7665 16.5226 27.4258 16.1016 27.4258Z" fill="#777E91"/>
<path d="M27.3877 22.8555C26.4261 23.7949 25.1152 24.3789 23.668 24.3789C22.2208 24.3789 20.9099 23.7949 19.9482 22.8555C18.9563 23.8244 18.3359 25.2223 18.3359 26.7148V28.2383C18.3359 28.6593 18.6766 29 19.0977 29H28.2383C28.6593 29 29 28.6593 29 28.2383V26.7148C29 25.2223 28.3796 23.8244 27.3877 22.8555Z" fill="#777E91"/>
<path d="M12.0518 10.668C11.0901 11.6074 9.7792 12.1914 8.33203 12.1914C6.88487 12.1914 5.57395 11.6074 4.61225 10.668C3.62039 11.6369 3 12.984 3 14.4766V16C3 16.421 3.34069 16.7617 3.76172 16.7617H12.9023C13.3234 16.7617 13.6641 16.421 13.6641 16V14.4766C13.6641 12.984 13.0437 11.6369 12.0518 10.668Z" fill="#777E91"/>
</svg>
