<svg width="32" height="32" viewBox="0 0 32 32" fill="none" xmlns="http://www.w3.org/2000/svg">
<path d="M10.961 3.17502C10.4546 3.17502 10.0449 3.58519 10.0449 4.09109V24.5045C10.0449 25.0104 10.4546 25.4206 10.961 25.4206C11.4673 25.4206 11.8771 25.0104 11.8771 24.5045V17.5772C12.5285 17.6983 13.1764 17.7574 13.8192 17.7574C15.4787 17.757 17.1105 17.4206 18.7073 17.091C21.1782 16.5819 23.5104 16.1011 25.7988 16.8494C26.0806 16.9429 26.3839 16.8933 26.6219 16.7206C26.8598 16.5484 27.0003 16.2724 27.0003 15.979V5.93888C27.0003 5.54258 26.7453 5.19145 26.3696 5.06844C23.6169 4.16758 20.934 4.72089 18.3379 5.25675C16.0942 5.71876 13.9646 6.14811 11.8771 5.66352V4.09109C11.8771 3.58519 11.4673 3.17502 10.961 3.17502Z" fill="#777E91"/>
<path d="M7.83499 22.9085C8.24471 22.6124 8.33775 22.0399 8.04253 21.6297C7.74732 21.2195 7.17477 21.1265 6.76326 21.4217C5.62622 22.2416 5 23.3348 5 24.5009C5 26.3478 6.53424 27.9434 8.91119 28.5669C9.57409 28.7382 10.2647 28.825 10.9634 28.825C11.6621 28.825 12.3733 28.7355 13.0192 28.566C15.3872 27.9451 16.9179 26.3492 16.9179 24.5009C16.9179 23.3241 16.2925 22.2327 15.1582 21.4275C14.7449 21.1346 14.1741 21.2321 13.8807 21.6445C13.5882 22.0569 13.6848 22.629 14.0972 22.9215C14.735 23.3737 15.0857 23.9347 15.0857 24.5009C15.0857 25.4752 14.0686 26.3966 12.554 26.7938C11.5619 27.0537 10.3935 27.0581 9.3728 26.7938C7.85288 26.3952 6.83214 25.4738 6.83214 24.5009C6.83214 23.7437 7.46015 23.1783 7.83499 22.9085Z" fill="#777E91"/>
</svg>
