<svg width="32" height="32" viewBox="0 0 32 32" fill="none" xmlns="http://www.w3.org/2000/svg">
<path fill-rule="evenodd" clip-rule="evenodd" d="M28.0003 15.1628H18.936C18.7407 15.7611 18.3321 16.3204 17.7248 16.7256C17.1656 17.1007 16.2971 17.2971 15.442 17.363L17.1142 19.0363C17.4413 19.3623 17.4413 19.8936 17.1142 20.2196C16.7871 20.5467 16.2569 20.5467 15.9298 20.2196L14.0824 18.3721V24.6513H24.9305C25.7443 24.6513 26.5257 24.3276 27.1017 23.7527C27.6766 23.1767 28.0003 22.3953 28.0003 21.5815V15.1628ZM7.48284 15.1628H4V21.5815C4 22.3953 4.32373 23.1767 4.89862 23.7527C5.47462 24.3276 6.25603 24.6513 7.06981 24.6513H12.4079V18.3007L10.489 20.2196C10.1619 20.5467 9.6317 20.5467 9.30463 20.2196C8.97756 19.8936 8.97756 19.3623 9.30463 19.0363L10.9768 17.363C10.1218 17.2971 9.25328 17.1007 8.69402 16.7256C8.08675 16.3204 7.67819 15.7611 7.48284 15.1628ZM9.02109 14.272C9.03337 14.1302 9.08137 13.9918 9.17291 13.8679C9.53124 13.3778 10.2981 13.3667 10.8741 13.7529C11.2336 13.9929 11.5048 14.4841 11.7315 14.963C11.8542 15.2219 11.9603 15.482 12.0474 15.7198C11.7683 15.7243 11.4546 15.7187 11.1354 15.6964C10.5761 15.6551 9.99115 15.5792 9.62389 15.3336C9.27002 15.0969 9.0423 14.7397 9.02109 14.3925C9.02221 14.3702 9.02332 14.3479 9.02332 14.3256C9.02332 14.3077 9.02221 14.2898 9.02109 14.272ZM17.3978 14.3925C17.3766 14.7397 17.1488 15.0969 16.795 15.3336C16.4277 15.5792 15.8428 15.6551 15.2835 15.6964C14.9642 15.7187 14.6506 15.7243 14.3715 15.7198C14.4586 15.482 14.5646 15.2219 14.6874 14.963C14.914 14.4841 15.1853 13.9929 15.5447 13.7529C16.1207 13.3667 16.8876 13.3778 17.2459 13.8679C17.3375 13.9918 17.3855 14.1302 17.3978 14.272C17.3966 14.2898 17.3955 14.3077 17.3955 14.3256C17.3955 14.3479 17.3966 14.3702 17.3978 14.3925ZM14.0824 7.34872V12.8308C14.2509 12.6455 14.4284 12.4848 14.6137 12.3609C15.9711 11.4533 17.7516 11.7246 18.5967 12.8766C18.7362 13.0686 18.8445 13.274 18.9226 13.4883H28.0003V10.4185C28.0003 9.60475 27.6766 8.82335 27.1017 8.24734C26.5257 7.67245 25.7443 7.34872 24.9305 7.34872H14.0824ZM12.4079 7.34872H7.06981C6.25603 7.34872 5.47462 7.67245 4.89862 8.24734C4.32373 8.82335 4 9.60475 4 10.4185V13.4883H7.49623C7.57437 13.274 7.68265 13.0686 7.82219 12.8766C8.66723 11.7246 10.4477 11.4533 11.8051 12.3609C12.0172 12.5027 12.2193 12.6924 12.4079 12.9135V7.34872Z" fill="#777E91"/>
</svg>
