<svg width="40" height="40" viewBox="0 0 40 40" fill="none" xmlns="http://www.w3.org/2000/svg">
<path d="M9.96069 13.349H19.0586V10.8392H20.9409V13.349H30.0388C30.5585 13.349 30.9799 12.9276 30.9799 12.4078V9.89806C30.9799 9.37829 30.5585 8.9569 30.0388 8.9569H25.5817C25.8232 8.48588 25.9604 7.95299 25.9604 7.3883C25.9604 5.48546 24.4123 3.93738 22.5095 3.93738C21.5213 3.93738 20.6294 4.35557 19.9997 5.02348C19.37 4.35557 18.4782 3.93738 17.49 3.93738C15.5871 3.93738 14.0391 5.48546 14.0391 7.3883C14.0391 7.95299 14.1763 8.48588 14.4177 8.9569H9.96069C9.44092 8.9569 9.01953 9.37829 9.01953 9.89806V12.4078C9.01953 12.9276 9.44092 13.349 9.96069 13.349ZM22.5095 5.8197C23.3744 5.8197 24.0781 6.52337 24.0781 7.3883C24.0781 8.25322 23.3744 8.9569 22.5095 8.9569H20.9409V7.3883C20.9409 6.52337 21.6446 5.8197 22.5095 5.8197ZM15.9214 7.3883C15.9214 6.52337 16.625 5.8197 17.49 5.8197C18.3549 5.8197 19.0586 6.52337 19.0586 7.3883V8.9569H17.49C16.625 8.9569 15.9214 8.25322 15.9214 7.3883Z" fill="#DEC185"/>
<path d="M35.4103 23.3577C34.5601 22.4013 33.0982 22.3082 32.1335 23.1489L28.3824 26.4184C28.3841 26.4663 28.3861 26.5141 28.3861 26.5624C28.3861 28.8971 26.4867 30.7965 24.1519 30.7965H19.1074C18.5876 30.7965 18.1662 30.3751 18.1662 29.8554C18.1662 29.3356 18.5876 28.9142 19.1074 28.9142H21.6313H24.1527C25.4512 28.9142 26.5039 27.8616 26.5039 26.5631C26.5039 25.264 25.4504 24.2112 24.1513 24.2119L19.2391 24.215C17.8965 22.6883 16.0413 21.7634 14.0134 21.6107C11.9815 21.4578 10.005 22.0968 8.44755 23.4104L8.00684 23.7821L12.6342 34.5794H24.5846C25.7471 34.5794 26.8637 34.1516 27.7285 33.375L35.2253 26.6436C36.1806 25.7859 36.2633 24.3173 35.4103 23.3577Z" fill="#DEC185"/>
<path d="M20.9414 22.3313L24.1504 22.3293C25.707 22.3293 27.0693 23.1717 27.8055 24.4243L29.7256 22.7507V15.2311H20.9414V22.3313Z" fill="#DEC185"/>
<path d="M13.4225 19.7058C13.6652 19.7058 13.9115 19.7151 14.1544 19.7333C15.9484 19.8685 17.6339 20.49 19.0586 21.5211V15.2311H10.2744V20.2398C11.2806 19.8895 12.3445 19.7058 13.4225 19.7058Z" fill="#DEC185"/>
<path d="M4.57047 25.4717C4.34108 25.57 4.16006 25.7554 4.06732 25.9872C3.97459 26.2189 3.97779 26.478 4.07611 26.7074L7.84075 35.4916C7.99372 35.8485 8.34113 36.0623 8.70624 36.0623C8.82991 36.0623 8.95565 36.0377 9.07655 35.9859L10.8612 35.2211L6.35516 24.7069L4.57047 25.4717Z" fill="#DEC185"/>
</svg>
