<svg width="40" height="40" viewBox="0 0 40 40" fill="none" xmlns="http://www.w3.org/2000/svg">
<path d="M15.1192 10.9945C17.0744 10.8193 18.6638 10.637 19.9994 10.4173C24.0558 9.74972 25.6951 8.61391 27.563 6.29839C27.8748 5.91793 28.4491 5.90133 28.7771 6.24881L33.7562 11.3217C34.0356 11.6035 34.0827 12.0505 33.8567 12.3774C33.2304 13.2833 32.5364 14.1186 31.7832 14.8709C30.293 16.5567 28.7425 17.758 27.2823 18.5723C26.3609 19.086 25.3215 19.3456 24.2687 19.3456H19.3978C17.9089 19.3456 16.6516 18.3457 16.2503 16.9754C16.121 16.5336 16.4181 16.0674 16.8739 16.0385C16.8917 16.0374 16.9096 16.0368 16.9277 16.0368H24.0822C24.5285 16.0368 24.9081 15.6854 24.9211 15.2357C24.935 14.7602 24.5692 14.3824 24.1012 14.3824H15.8977C15.6515 14.3824 15.4219 14.4982 15.2578 14.6802C15.0478 14.8993 14.0479 16.3954 12.1419 18.0129C10.9067 19.061 7.94074 21.0001 6.81921 21.0001C6.11371 21.0001 5.73641 20.1563 6.21215 19.627L13.65 11.3549C13.7813 11.1894 13.9946 11.0901 14.2078 11.0736C14.5201 11.0473 14.8238 11.021 15.1192 10.9945Z" fill="#DEC185"/>
<path d="M24.8808 29.0056C22.9255 29.1808 21.3362 29.3631 20.0006 29.5828C15.9442 30.2504 14.3049 31.3862 12.437 33.7017C12.1252 34.0822 11.5509 34.0988 11.2228 33.7513L6.24383 28.6784C5.96442 28.3966 5.91728 27.9496 6.14331 27.6228C6.76956 26.7169 7.46358 25.8815 8.21676 25.1292C9.70701 23.4434 11.2575 22.2422 12.7177 21.4279C13.639 20.9141 14.6785 20.6545 15.7313 20.6545H20.6022C22.0911 20.6545 23.3484 21.6545 23.7497 23.0247C23.879 23.4665 23.582 23.9327 23.1261 23.9616C23.1084 23.9627 23.0904 23.9633 23.0723 23.9633H15.9178C15.4716 23.9633 15.092 24.3147 15.0789 24.7644C15.0651 25.24 15.4308 25.6177 15.8989 25.6177H24.1023C24.3485 25.6177 24.5781 25.5019 24.7422 25.3199C24.9522 25.1008 25.9521 23.6047 27.8582 21.9873C29.0933 20.9391 32.0593 19.0001 33.1808 19.0001C33.8863 19.0001 34.2636 19.8438 33.7878 20.3732L26.35 28.6452C26.2187 28.8107 26.0054 28.91 25.7923 28.9265C25.4798 28.9528 25.1761 28.9792 24.8808 29.0056Z" fill="#DEC185"/>
</svg>
