<svg width="32" height="32" viewBox="0 0 32 32" fill="none" xmlns="http://www.w3.org/2000/svg">
<path d="M22.4549 15.2207C22.0901 12.2441 19.7408 9.90069 16.7632 9.54342C16.5068 9.51416 16.2491 9.49951 15.991 9.49945C13.3595 9.5035 10.9901 11.0938 9.98947 13.5276C8.9888 15.9613 9.55432 18.7584 11.4219 20.6122C12.415 21.5633 12.9838 22.8739 13 24.2489V25H19V24.2451C19.0045 22.8961 19.5533 21.6061 20.522 20.6672C21.9851 19.2555 22.7008 17.239 22.4548 15.2209V15.2207H22.4549Z" fill="#777E91"/>
<path d="M16.0002 30C16.6357 29.9993 17.202 29.5989 17.4145 29H14.5859C14.7985 29.5989 15.3647 29.9993 16.0002 30Z" fill="#777E91"/>
<path d="M13.5 27.5C13.5004 27.776 13.724 27.9996 14 28H18C18.276 27.9996 18.4996 27.776 18.5 27.5V26H13.5V27.5Z" fill="#777E91"/>
<path d="M16 6.50002C16.5523 6.50002 17 6.05229 17 5.5V3.00002C17 2.44773 16.5523 2 16 2C15.4477 2 15 2.44773 15 3.00002V5.5C15 6.05229 15.4477 6.50002 16 6.50002Z" fill="#777E91"/>
<path d="M7.56057 8.97484C7.95629 9.35279 8.57918 9.35279 8.9749 8.97484C9.16248 8.78732 9.26786 8.53291 9.26786 8.26768C9.26786 8.00245 9.16248 7.74804 8.9749 7.56052L7.20702 5.79296C7.01955 5.60538 6.7652 5.5 6.50002 5.5C6.23484 5.5 5.98048 5.60538 5.79296 5.79296C5.60538 5.98043 5.5 6.23478 5.5 6.50002C5.5 6.76525 5.60538 7.01955 5.79296 7.20707L7.56057 8.97484Z" fill="#777E91"/>
<path d="M6.50002 16C6.50002 15.4477 6.05229 15 5.5 15H3.00002C2.44795 15.0005 2.00055 15.4479 2 16C2.00055 16.5521 2.44795 16.9995 3.00002 17H5.5C6.05229 17 6.50002 16.5523 6.50002 16Z" fill="#777E91"/>
<path d="M8.52723 22.7648C8.1816 22.6725 7.81301 22.7717 7.56052 23.0252L5.79296 24.793C5.60538 24.9805 5.5 25.2348 5.5 25.5001C5.5 25.7653 5.60538 26.0196 5.79296 26.2071C6.18857 26.5851 6.81141 26.5851 7.20702 26.2071L8.97484 24.4396C9.22827 24.1871 9.32758 23.8185 9.23521 23.4729C9.14284 23.1272 8.87285 22.8572 8.52723 22.7648Z" fill="#777E91"/>
<path d="M24.439 23.0252C24.1866 22.7718 23.818 22.6725 23.4723 22.7648C23.1267 22.8572 22.8568 23.1271 22.7644 23.4728C22.672 23.8184 22.7713 24.187 23.0248 24.4395L24.7926 26.207C25.1882 26.585 25.811 26.585 26.2067 26.207C26.3942 26.0196 26.4996 25.7652 26.4996 25.5C26.4996 25.2347 26.3942 24.9804 26.2067 24.7929L24.439 23.0252Z" fill="#777E91"/>
<path d="M29 15H26.5C25.9477 15 25.5 15.4477 25.5 16C25.5 16.5523 25.9477 17 26.5 17H29C29.5523 17 30 16.5523 30 16C30 15.4477 29.5523 15 29 15Z" fill="#777E91"/>
<path d="M24.4398 8.97488L26.2073 7.20705C26.4599 6.95445 26.5586 6.5863 26.4661 6.24122C26.3736 5.89614 26.1041 5.62664 25.759 5.53416C25.414 5.44169 25.0458 5.54034 24.7932 5.79295L23.0254 7.5605C22.8378 7.74802 22.7324 8.00243 22.7324 8.26766C22.7324 8.5329 22.8378 8.78731 23.0254 8.97483C23.4212 9.35283 24.0441 9.35283 24.4398 8.97488Z" fill="#777E91"/>
</svg>
