<svg width="314" height="32" viewBox="0 0 314 32" fill="none" xmlns="http://www.w3.org/2000/svg">
<path d="M40.1132 10.1953H30.8242V0.869873H60.4551V10.1953H51.1684V31.14H40.1132V10.1953Z" fill="white"/>
<path d="M98.3672 0.869873H110.384L119.39 15.14V0.869873H129.992V31.14H117.975L108.985 16.8699V31.14H98.3672V0.869873Z" fill="white"/>
<path d="M133.803 0.870239V31.1404H159.791V22.9225H144.86V19.6807H159.791V12.3299H144.86V9.08815H159.791V0.870239H133.803Z" fill="white"/>
<path d="M94.7641 9.7539C93.9373 7.80614 92.7591 6.11448 91.2249 4.67219C89.6908 3.2299 87.8338 2.09089 85.652 1.25517C83.4701 0.419451 81.023 0.00158691 78.3106 0.00158691C75.5982 0.00158691 73.151 0.419451 70.9692 1.25517C68.7873 2.09089 66.9304 3.2299 65.3962 4.67219C63.8621 6.11448 62.6838 7.80614 61.8571 9.7539C61.0325 11.7017 60.6191 13.7842 60.6191 16.0016C60.6191 18.2189 61.0325 20.306 61.8571 22.2493C62.6838 24.197 63.8621 25.8909 65.3962 27.331C66.9304 28.7733 68.7873 29.91 70.9692 30.7458C73.1533 31.5837 75.5982 31.9993 78.3106 31.9993C81.023 31.9993 83.4723 31.5837 85.652 30.7458C87.8338 29.91 89.6908 28.7733 91.2249 27.331C92.7591 25.8887 93.9373 24.1948 94.7641 22.2493C95.5886 20.3037 96.002 18.2212 96.002 16.0016C96.002 13.782 95.5886 11.6994 94.7641 9.7539ZM78.3062 22.4402C74.6852 22.4402 71.7473 19.5691 71.7473 16.0308C71.7473 12.4925 74.6852 9.61911 78.3062 9.61911C81.9271 9.61911 84.8628 12.4902 84.8628 16.0308C84.8628 19.5714 81.9271 22.4402 78.3062 22.4402Z" fill="white"/>
<path d="M12.5253 9.86239C12.5253 9.86239 12.5164 9.84892 12.5142 9.84218C12.4965 9.81073 12.4833 9.77478 12.47 9.74333C12.4567 9.71412 12.4435 9.68267 12.4346 9.65347C12.4346 9.64897 12.4346 9.64448 12.4302 9.63999C12.3993 9.53665 12.3794 9.43106 12.3794 9.32322C12.3794 9.2401 12.3926 9.15698 12.4103 9.0761C12.4634 8.82898 12.6071 8.60207 12.837 8.39314C12.8856 8.35046 12.9386 8.30553 12.9939 8.26285C13.0028 8.25386 13.0116 8.24487 13.0204 8.23813C13.0249 8.23813 13.0293 8.2314 13.0337 8.22915C13.6018 7.81354 14.4839 7.54394 15.4786 7.54394C18.936 7.54394 18.8056 9.85565 18.8034 10.1904H29.6265C29.1556 8.31676 28.3289 6.60039 27.1506 5.10194C26.6488 4.47065 26.0387 3.84162 25.3158 3.22157C24.5929 2.60152 23.7374 2.05335 22.7493 1.57708C21.7612 1.10306 20.6271 0.721144 19.345 0.433584C18.0628 0.143778 16.6237 0 15.0321 0C12.7021 0 10.6617 0.274081 8.90651 0.822242C7.15129 1.3704 5.67903 2.09155 4.4831 2.98343C3.28937 3.87981 2.39187 4.89525 1.78617 6.03201C1.18046 7.17101 0.879818 8.33024 0.879818 9.51418C0.879818 10.9273 1.13846 12.1382 1.65574 13.1469C2.17081 14.1578 2.8561 15.0205 3.7116 15.7416C4.5671 16.4628 5.53976 17.0604 6.6318 17.5366C7.72163 18.0107 8.82693 18.4151 9.94991 18.7475C11.0685 19.0778 12.1738 19.3743 13.2658 19.6327C14.3579 19.8933 15.3305 20.1539 16.186 20.4122C17.0393 20.6706 17.7268 20.9604 18.2419 21.2772C18.757 21.5939 19.0178 21.9983 19.0178 22.4881C19.0178 22.9194 18.6575 23.4092 18.2021 23.7304C17.5256 24.2044 16.4601 24.5167 15.2576 24.5167C11.336 24.5167 10.8938 21.6029 10.8938 20.9716H0C0.470858 23.0475 1.33962 24.8941 2.61072 26.5072C3.13905 27.1991 3.7956 27.8776 4.57816 28.5403C5.36071 29.203 6.28031 29.7871 7.34361 30.2904C8.40249 30.7958 9.62717 31.2047 11.0132 31.5237C12.3993 31.8405 13.9599 32 15.7019 32C18.1181 32 20.2579 31.7102 22.1126 31.1351C23.9718 30.5577 25.5192 29.7939 26.7571 28.8436C27.9951 27.891 28.9301 26.788 29.5646 25.5344C30.1968 24.2808 30.5151 22.9778 30.5151 21.6209C30.5151 11.5406 14.223 13.0008 12.5275 9.85791" fill="white"/>
<path d="M199.902 0.869873H202.104L190.016 31.1355H187.483L175.002 0.869873H179.613L189.811 25.7752H189.977L199.904 0.869873H199.902ZM217.704 0.869873L231.578 31.1355H227.444L221.699 18.6289H210.201L204.953 31.1355H202.982L215.589 0.869873H217.706H217.704ZM220.812 16.6857L215.794 5.72244H215.628L211.015 16.6857H220.812ZM242.03 0.869873H238.168V31.1355H257.378V28.7497H242.03V0.869873ZM284.214 19.1906C284.214 19.8241 284.201 20.4644 284.172 21.1114C284.144 21.7584 284.058 22.4054 283.912 23.0524C283.766 23.6994 283.545 24.3397 283.246 24.9732C282.948 25.6067 282.517 26.2403 281.949 26.8738C280.925 27.9993 279.776 28.7632 278.502 29.163C277.229 29.5652 275.898 29.7651 274.514 29.7651C273.323 29.7651 272.268 29.5787 271.347 29.2057C270.425 28.8328 269.549 28.2734 268.72 27.5275C268.07 26.9502 267.575 26.3751 267.235 25.7977C266.894 25.2203 266.64 24.6519 266.466 24.0881C266.293 23.5264 266.191 22.9558 266.165 22.3784C266.138 21.8011 266.123 21.2259 266.123 20.6486V0.894582H262.261V19.4894C262.261 20.6711 262.376 21.9763 262.604 23.4051C262.834 24.8339 263.369 26.1594 264.213 27.3838C265.057 28.6082 266.317 29.6281 267.993 30.4436C269.669 31.2591 271.952 31.668 274.846 31.668C276.661 31.668 278.27 31.3826 279.674 30.812C281.08 30.2414 282.256 29.4506 283.204 28.4374C284.153 27.4242 284.869 26.2515 285.353 24.9148C285.837 23.5781 286.08 22.1425 286.08 20.6081V0.894582H284.21V19.1928L284.214 19.1906ZM314 3.25572V0.869873H294.79V31.1355H314V28.7497H298.652V16.0858H311.84V14.1021H298.652V3.25347H314V3.25572Z" fill="url(#paint0_linear_9834_28607)"/>
<defs>
<linearGradient id="paint0_linear_9834_28607" x1="172.491" y1="-9.01948" x2="321.443" y2="37.0965" gradientUnits="userSpaceOnUse">
<stop stop-color="#B49266"/>
<stop offset="0.07" stop-color="#C2A678"/>
<stop offset="0.22" stop-color="#E7DBA8"/>
<stop offset="0.26" stop-color="#DBCB98"/>
<stop offset="0.38" stop-color="#BC9E6D"/>
<stop offset="0.5" stop-color="#E1C588"/>
<stop offset="0.56" stop-color="#D0B079"/>
<stop offset="0.62" stop-color="#C5A370"/>
<stop offset="0.67" stop-color="#D8BE88"/>
<stop offset="0.73" stop-color="#E6D29A"/>
<stop offset="0.76" stop-color="#EBD9A0"/>
<stop offset="0.91" stop-color="#D0BC9A"/>
<stop offset="0.99" stop-color="#C6B198"/>
</linearGradient>
</defs>
</svg>
