<svg width="40" height="40" viewBox="0 0 40 40" fill="none" xmlns="http://www.w3.org/2000/svg">
<path d="M30.6636 18.0727H24.6273C24.3328 18.0726 24.0435 18.1498 23.7882 18.2966C23.533 18.4433 23.3207 18.6546 23.1727 18.9091C22.7609 19.652 22.2365 20.3267 21.6182 20.9091C21.5197 20.9986 21.4505 21.1157 21.4194 21.2451C21.3883 21.3745 21.3968 21.5102 21.4439 21.6347C21.4909 21.7592 21.5743 21.8666 21.6832 21.9431C21.7921 22.0196 21.9215 22.0616 22.0545 22.0636H30.6636C30.9288 22.0636 31.1832 21.9583 31.3707 21.7707C31.5583 21.5832 31.6636 21.3289 31.6636 21.0636V19.0909C31.6661 18.9581 31.642 18.8261 31.5928 18.7026C31.5436 18.5792 31.4703 18.4668 31.3772 18.372C31.2841 18.2772 31.1731 18.2019 31.0506 18.1506C30.928 18.0992 30.7965 18.0727 30.6636 18.0727ZM34 10.7455H20.9545C20.824 10.7462 20.6967 10.7854 20.5883 10.8582C20.48 10.9309 20.3955 11.034 20.3455 11.1545C20.2933 11.2763 20.2793 11.4109 20.3052 11.5408C20.3312 11.6706 20.3959 11.7895 20.4909 11.8818L22.8727 14.2545C23.0272 14.4107 23.2113 14.5346 23.4142 14.6189C23.6172 14.7032 23.8348 14.7462 24.0545 14.7455H34C34.2652 14.7455 34.5196 14.6401 34.7071 14.4526C34.8946 14.265 35 14.0107 35 13.7455V11.7455C35 11.4802 34.8946 11.2259 34.7071 11.0384C34.5196 10.8508 34.2652 10.7455 34 10.7455ZM27.3364 25.4545H18.6364C18.4595 25.4545 18.2898 25.5242 18.1639 25.6484C18.038 25.7726 17.966 25.9413 17.9636 26.1182V28.7909C17.966 28.9678 18.038 29.1365 18.1639 29.2607C18.2898 29.3849 18.4595 29.4546 18.6364 29.4546H27.3364C27.4677 29.4546 27.5977 29.4287 27.719 29.3784C27.8404 29.3282 27.9506 29.2545 28.0435 29.1617C28.1363 29.0688 28.21 28.9586 28.2602 28.8372C28.3105 28.7159 28.3364 28.5859 28.3364 28.4545V26.4545C28.3364 26.1893 28.231 25.935 28.0435 25.7474C27.8559 25.5599 27.6016 25.4545 27.3364 25.4545ZM19.2818 18.3818H14.8364V30.6636C14.8364 30.9289 14.731 31.1832 14.5435 31.3707C14.3559 31.5583 14.1016 31.6636 13.8364 31.6636H11.1636C10.8984 31.6636 10.6441 31.5583 10.4565 31.3707C10.269 31.1832 10.1636 30.9289 10.1636 30.6636V18.3364H5.71818C5.45871 18.3256 5.20792 18.2399 4.99606 18.0897C4.7842 17.9396 4.62033 17.7313 4.52421 17.49C4.4281 17.2488 4.40385 16.9849 4.4544 16.7302C4.50495 16.4755 4.62813 16.2408 4.80909 16.0545L11.1727 9.73637C11.3576 9.54802 11.5783 9.39868 11.8219 9.29718C12.0655 9.19568 12.327 9.14409 12.5909 9.14546C12.8546 9.14561 13.1156 9.19789 13.359 9.2993C13.6024 9.40072 13.8233 9.54925 14.0091 9.73637L20.3727 16.1C20.561 16.288 20.6888 16.5279 20.7399 16.789C20.791 17.05 20.763 17.3204 20.6595 17.5655C20.556 17.8106 20.3817 18.0192 20.159 18.1646C19.9362 18.31 19.6751 18.3857 19.4091 18.3818H19.2818Z" fill="#DEC185"/>
</svg>
