<svg width="32" height="32" viewBox="0 0 32 32" fill="none" xmlns="http://www.w3.org/2000/svg">
<path d="M5.60941 15.9099L3.13876 20.469C2.8454 21.0103 3.03146 21.677 3.56237 21.9869C4.08512 22.2919 4.76701 22.1215 5.08642 21.6073L11.3463 10.8069C10.485 11.0215 9.65632 11.4177 8.95609 11.9621C7.57185 13.0383 6.44583 14.3665 5.60941 15.9099Z" fill="#777E91"/>
<path d="M18.1572 4.08171C17.6774 3.81348 17.0621 3.98258 16.7857 4.45876L16.083 5.67116L17.8645 6.66657L18.543 5.47839C18.6795 5.23987 18.7141 4.96317 18.6411 4.6988C18.5679 4.43443 18.3961 4.21526 18.1572 4.08171Z" fill="#777E91"/>
<path d="M13.6354 26.0226H12.2217V26.7276C12.2217 27.4545 12.8111 28.0458 13.5357 28.0458C14.2603 28.0458 14.8498 27.4545 14.8498 26.7276V26.1454C14.4483 26.0646 14.0412 26.0226 13.6354 26.0226Z" fill="#777E91"/>
<path d="M15.3178 6.99121L7.45508 20.5573C7.64403 20.5161 7.83995 20.4938 8.04104 20.4938H9.96758L17.1078 7.99135L15.3178 6.99121Z" fill="#777E91"/>
<path d="M6.95357 25.7978C6.21876 25.4798 5.64813 24.8503 5.40865 24.0759L4.53115 25.5786C4.49774 25.6358 4.47677 25.6994 4.46961 25.7654L4.31934 27.1445C4.27836 27.5206 4.67405 27.789 5.00672 27.6108L6.21729 26.9625C6.29636 26.9202 6.36166 26.856 6.40548 26.7776L6.95357 25.7978Z" fill="#777E91"/>
<path d="M28.2842 14.4795H27.3225C26.927 14.4795 26.6064 14.801 26.6064 15.1977V25.7858V25.7906V25.8728C26.6064 26.2695 26.927 26.591 27.3225 26.591H28.2842C28.6796 26.591 29.0002 26.2695 29.0002 25.8728V15.1977C29.0002 14.801 28.6796 14.4795 28.2842 14.4795Z" fill="#777E91"/>
<path d="M20.6758 26.3522C22.5187 26.3522 24.3075 25.6505 25.0847 25.3005V15.756H23.3934C23.2602 15.756 23.1292 15.7209 23.0138 15.6542L16.6013 11.9503L11.722 20.4938H13.7345C14.8729 20.4938 15.9882 20.0993 16.8748 19.383L17.6228 18.7786C17.9502 18.5141 18.4292 18.566 18.6927 18.8943C18.9564 19.2226 18.9048 19.7031 18.5775 19.9675L17.8294 20.5719C16.6732 21.506 15.219 22.0204 13.7346 22.0204H8.0416C7.36118 22.0204 6.80762 22.5757 6.80762 23.2583C6.80762 23.9408 7.36118 24.4961 8.0416 24.4961H13.6354C14.3403 24.4961 15.0478 24.5961 15.7335 24.7895C15.7984 24.8 15.8605 24.8184 15.9187 24.8443C16.3785 24.9861 16.8274 25.17 17.2578 25.3947C18.0941 25.8315 19.366 26.3522 20.6758 26.3522Z" fill="#777E91"/>
<path d="M10.6997 26.7276V26.0226H8.57305L8.08301 26.8988C8.16695 27.545 8.71889 28.0458 9.38565 28.0458C10.1102 28.0458 10.6997 27.4545 10.6997 26.7276Z" fill="#777E91"/>
</svg>
