<svg width="282" height="80" viewBox="0 0 282 80" fill="none" xmlns="http://www.w3.org/2000/svg">
<path d="M71 79L40 79C18.4609 79 1 61.5391 1 40V40C1 18.4609 18.4609 1 40 1H102.249C123.788 1 141.249 18.4609 141.249 40V40C141.249 61.5391 158.71 79 180.249 79H242C263.539 79 281 61.5391 281 40V40C281 18.4609 263.539 1 242 1H210.5" stroke="url(#paint0_linear_1103_19283)"/>
<path opacity="0.3" d="M264.5 40C264.5 52.4163 254.213 62.5 241.5 62.5C228.787 62.5 218.5 52.4163 218.5 40C218.5 27.5837 228.787 17.5 241.5 17.5C254.213 17.5 264.5 27.5837 264.5 40Z" stroke="#141416"/>
<path d="M63.5 40C63.5 52.4163 53.2127 62.5 40.5 62.5C27.7873 62.5 17.5 52.4163 17.5 40C17.5 27.5837 27.7873 17.5 40.5 17.5C53.2127 17.5 63.5 27.5837 63.5 40Z" stroke="#141416"/>
<defs>
<linearGradient id="paint0_linear_1103_19283" x1="0.999999" y1="40" x2="326" y2="40" gradientUnits="userSpaceOnUse">
<stop stop-color="#141416"/>
<stop offset="1" stop-color="#141416" stop-opacity="0"/>
</linearGradient>
</defs>
</svg>
