<svg width="124" height="209" viewBox="0 0 124 209" fill="none" xmlns="http://www.w3.org/2000/svg">
<path d="M114.823 198.856C106.627 193.888 97.7883 190.548 88.4373 188.526C87.76 188.378 87.0826 188.239 86.4389 188.101C86.4079 187.982 86.3872 187.941 86.3872 187.897C86.382 187.807 86.3846 187.716 86.3898 187.626C86.5397 183.932 85.8779 180.381 84.5051 176.956C83.9156 175.487 83.0444 174.207 81.9508 173.071C80.3944 171.458 78.5667 170.221 76.5631 169.236C75.9788 168.949 75.3739 168.698 74.7431 168.416C74.6759 168.646 74.606 168.814 74.5828 168.987C74.1407 172.029 74.058 175.071 74.6991 178.097C75.1515 180.228 75.9297 182.23 77.4731 183.821C78.3831 184.76 79.4069 185.588 80.3789 186.464C80.5134 186.586 80.6504 186.705 80.7874 186.824C77.455 186.04 74.2751 184.928 71.1651 183.57C71.9484 180.389 72.0957 177.251 71.708 174.072C71.3951 171.504 70.6066 169.145 68.9934 167.086C67.512 165.195 65.7308 163.646 63.7065 162.366C63.5979 162.298 63.4712 162.257 63.3523 162.203C63.3006 162.291 63.2567 162.345 63.236 162.407C62.1838 165.374 61.5711 168.421 61.6926 171.579C61.7831 173.974 62.3751 176.235 63.8513 178.18C64.5209 179.062 65.2525 179.895 65.9557 180.748C66.0565 180.872 66.1496 181.002 66.297 181.196C64.7406 180.673 57.7706 176.54 57.1425 175.782C58.3085 173.116 58.9315 170.312 59.159 167.399C59.3969 164.355 58.8876 161.502 57.2666 158.88C56.2506 157.232 55.0381 155.75 53.6162 154.441C53.4714 154.309 53.3137 154.193 53.1353 154.048C53.0475 154.172 52.9751 154.258 52.9208 154.353C51.6359 156.632 50.6664 159.037 50.1416 161.606C49.7383 163.574 49.6349 165.555 50.1313 167.526C50.5165 169.055 51.2662 170.426 52.078 171.763C52.2253 172.003 52.3649 172.247 52.5563 172.565C51.3076 171.908 45.3072 166.838 44.6249 165.892C44.6792 165.799 44.7334 165.7 44.7955 165.605C46.4216 163.09 47.5281 160.362 48.1512 157.434C48.5079 155.765 48.7018 154.089 48.4071 152.385C47.8823 149.343 46.4863 146.713 44.6068 144.31C44.5706 144.266 44.5033 144.248 44.4491 144.214C44.3818 144.269 44.3224 144.305 44.281 144.354C42.3007 146.775 40.703 149.408 39.8059 152.424C39.3173 154.067 39.0975 155.735 39.3819 157.447C39.6094 158.818 40.0567 160.116 40.5737 161.397C40.6487 161.585 40.7133 161.779 40.7831 161.971C40.7392 161.992 40.6953 162.012 40.6539 162.03C38.2651 159.514 36.0107 156.881 33.9476 154.139C33.9915 154.033 33.9941 154.01 34.0096 153.994C34.0975 153.891 34.188 153.79 34.2785 153.691C36.6699 151.113 38.3994 148.146 39.4594 144.799C39.7101 144.01 39.8808 143.175 39.9454 142.347C40.1962 139.06 39.2448 136.049 37.7402 133.175C37.6988 133.097 37.6704 133.009 37.6238 132.89C34.9739 135.187 32.7893 137.657 31.3985 140.756C30.6824 142.349 30.2817 144.018 30.46 145.766C30.5893 147.044 30.8452 148.309 31.0443 149.581C31.065 149.718 31.0831 149.855 31.1115 150.065C29.9559 148.753 25.9384 141.912 25.5713 140.652C25.685 140.564 25.8065 140.466 25.9332 140.373C28.821 138.239 31.0805 135.562 32.7196 132.376C33.0893 131.659 33.3608 130.878 33.5676 130.097C34.126 127.979 34.0277 125.84 33.6348 123.706C33.4564 122.731 33.247 121.758 32.8204 120.739C31.9802 121.303 31.1607 121.815 30.3799 122.384C28.4668 123.778 26.7657 125.392 25.4575 127.384C24.6406 128.625 24.0511 129.965 23.8288 131.442C23.5936 132.994 23.622 134.554 23.728 136.113C23.7435 136.325 23.759 136.537 23.7745 136.75C22.0838 133.289 20.7678 129.706 19.7363 126.018C19.8966 125.928 19.9923 125.868 20.0931 125.819C22.5233 124.645 24.6457 123.054 26.5123 121.112C28.048 119.513 29.3328 117.767 29.9248 115.574C30.5065 113.422 30.5763 111.247 30.3954 109.048C30.3695 108.722 30.292 108.399 30.2403 108.091C30.1291 108.091 30.08 108.078 30.0412 108.094C27.0009 109.232 24.2191 110.791 21.9569 113.166C20.716 114.467 19.824 115.977 19.4414 117.747C19.1519 119.092 18.9347 120.452 18.6943 121.743C18.141 120.757 16.5304 112.305 16.5899 110.535C16.7476 110.484 16.913 110.419 17.0837 110.37C20.2868 109.449 23.1151 107.845 25.6226 105.662C26.6955 104.729 27.5434 103.629 28.182 102.359C29.0662 100.601 29.5419 98.7253 29.7668 96.7803C29.834 96.2035 29.8624 95.6215 29.909 95.0085C29.6737 95.0085 29.516 94.9827 29.3712 95.0111C26.6489 95.5646 24.0559 96.457 21.7086 97.983C19.7955 99.2271 18.3529 100.87 17.554 103.024C17.1533 104.103 16.8224 105.207 16.4631 106.301C16.4269 106.407 16.4062 106.521 16.3674 106.627C16.339 106.71 16.2976 106.787 16.264 106.865C15.8659 102.678 15.8478 98.5134 16.1994 94.3671C16.3648 94.3361 16.4321 94.3205 16.4967 94.3128C19.8136 93.9921 22.8849 92.9394 25.7445 91.2349C27.1715 90.3839 28.3271 89.2639 29.2397 87.8853C30.3255 86.2481 31.0597 84.4582 31.5381 82.5572C31.613 82.2545 31.6647 81.9442 31.7345 81.595C31.507 81.5795 31.3312 81.5484 31.1554 81.5562C30.4548 81.5924 29.7542 81.6183 29.0588 81.6907C27.0707 81.9002 25.1395 82.3399 23.2962 83.134C21.2642 84.0108 19.6148 85.3325 18.485 87.2517C17.924 88.2061 17.4224 89.1942 16.8951 90.1666C16.7917 90.358 16.6986 90.5572 16.6004 90.7538C16.9933 86.5067 17.725 82.3399 18.7824 78.2452C18.9323 78.2349 18.9995 78.222 19.0642 78.2271C22.3423 78.4884 25.5041 77.9762 28.57 76.8046C29.8756 76.3028 31.0313 75.5734 32.0395 74.6061C33.7458 72.9611 34.9531 70.9876 35.845 68.8098C35.876 68.7347 35.8709 68.6442 35.8812 68.5744C35.814 68.5304 35.7804 68.4994 35.739 68.4864C35.6537 68.458 35.5658 68.4295 35.4779 68.4166C33.1382 68.07 30.7986 68.0002 28.4566 68.4011C25.8454 68.846 23.6092 69.9659 21.9132 72.0455C21.3419 72.7464 20.7964 73.468 20.2406 74.1793C20.1061 74.3526 19.9769 74.5311 19.7907 74.7846C20.1087 72.7568 23.4411 63.7301 24.1805 62.8455C26.5977 63.5102 29.0615 63.7326 31.5613 63.4973C33.3451 63.3292 35.1057 63.0602 36.7085 62.173C39.1077 60.8461 40.8889 58.8959 42.3186 56.5913C42.3393 56.5577 42.3315 56.506 42.3367 56.4646C42.3264 56.4439 42.3212 56.4154 42.3057 56.4077C42.2281 56.3637 42.148 56.3197 42.0653 56.2887C39.829 55.5102 37.5358 55.0653 35.1597 55.042C32.4167 55.0162 30.0046 55.8568 27.9544 57.6906C27.246 58.3243 26.5635 58.9838 25.8681 59.6305C25.7491 59.7417 25.625 59.8426 25.501 59.9486C27.2951 55.9525 29.4228 52.1711 31.8478 48.5657C31.99 48.6252 32.0546 48.6485 32.1141 48.6769C34.689 49.9418 37.4242 50.5651 40.2784 50.7047C42.0855 50.7953 43.8409 50.5884 45.5058 49.8254C47.5327 48.8968 49.2415 47.5467 50.7332 45.9068C50.8004 45.8318 50.8392 45.7309 50.9116 45.6119C48.8563 44.4377 46.7286 43.5996 44.451 43.1263C41.6098 42.534 38.9676 42.9918 36.5296 44.5593C35.5239 45.2059 34.5492 45.9069 33.5591 46.5793C33.4479 46.6543 33.3212 46.7086 33.2049 46.7733C35.8315 42.9013 38.7891 39.3527 42.1422 36.1327C42.2637 36.2129 42.3413 36.2568 42.4137 36.3086C44.7095 37.9924 47.2688 39.0864 50.0426 39.6865C51.3508 39.9685 52.6693 40.1418 54.011 39.9452C56.5135 39.5779 58.6904 38.4734 60.6969 36.9862C60.8365 36.8827 60.958 36.7586 61.1079 36.6267C61.0174 36.5284 60.9683 36.456 60.9011 36.4017C59.0268 34.8782 56.9869 33.6444 54.6912 32.8607C52.4989 32.1132 50.2963 32.0356 48.1169 32.8711C46.8113 33.3703 45.5446 33.9729 44.2597 34.529C44.1175 34.5911 43.9701 34.6428 43.8279 34.6997C47.15 31.4537 50.6944 28.5283 54.5284 25.8204C54.6318 25.9704 54.6861 26.0764 54.7637 26.1566C56.8267 28.2931 59.2853 29.8165 62.0544 30.8563C63.2514 31.3064 64.4768 31.5883 65.7617 31.5573C68.1609 31.4978 70.3816 30.7917 72.4859 29.6717C72.5402 29.6432 72.5764 29.5786 72.6178 29.532C72.5997 29.4803 72.5945 29.4311 72.5661 29.4001C70.7383 27.261 68.6365 25.4686 66.0382 24.3228C64.4224 23.6089 62.742 23.433 60.9969 23.6787C59.4923 23.8908 58.029 24.2684 56.5813 24.7107C56.4546 24.7495 56.3227 24.7625 56.1909 24.7858C59.937 22.1243 63.8714 19.8352 67.9384 17.8723C68.0289 17.9137 68.0573 17.9189 68.0702 17.9344C68.14 18.0223 68.2124 18.1077 68.2745 18.2034C70.0557 20.8753 72.3929 22.9367 75.2211 24.4343C75.8544 24.7705 76.5396 25.0344 77.2324 25.2206C79.0576 25.712 80.9061 25.6293 82.7416 25.2775C83.5095 25.1301 84.2644 24.9076 85.0322 24.7188C84.996 24.561 84.996 24.4886 84.965 24.4343C83.5301 22.0418 81.7928 19.9209 79.4221 18.3897C78.4836 17.7844 77.4703 17.3525 76.3612 17.1585C74.6264 16.8559 72.8917 16.9619 71.157 17.1481C70.5081 17.218 69.8592 17.3085 69.2103 17.3887C71.7516 16.0877 74.3601 15.0143 77.0205 14.065C77.2894 13.9693 77.4911 14.0418 77.7263 14.1297C78.5071 14.422 79.2827 14.7479 80.0867 14.9651C81.6404 15.3841 83.2097 15.4669 84.7634 14.9393C87.1186 14.1401 89.1661 12.8546 90.8905 11.0595C91.0715 10.8707 91.2292 10.6586 91.436 10.4129C91.2344 10.3249 91.118 10.2577 90.9939 10.2267C89.6625 9.87748 88.3389 9.49466 86.9971 9.19981C84.5669 8.6644 82.3668 9.26705 80.433 10.7801C79.4946 11.5147 78.6518 12.376 77.7883 13.2037C77.5375 13.4443 77.2919 13.6279 76.9558 13.7417C75.353 14.2875 73.7605 14.8668 72.1627 15.4333C71.9999 15.4902 71.8318 15.5316 71.6664 15.5807C71.8008 15.366 71.9766 15.2315 72.1446 15.0867C72.9177 14.4271 73.7113 13.7857 74.461 13.1003C76.1001 11.5975 77.1109 9.75333 77.4548 7.53933C77.8374 5.08476 77.6151 2.67151 77.0747 0.268996C77.0566 0.186228 76.992 0.113802 76.9248 0C75.0194 0.925941 73.3209 2.0925 71.9249 3.68059C71.0174 4.71519 70.3607 5.88685 69.9574 7.20597C69.1095 9.99677 68.8716 12.8342 69.2646 15.7231C69.3008 15.9895 69.3499 16.2508 69.399 16.5611C65.4461 18.2656 61.6794 20.265 58.0214 22.4739C57.993 22.4894 57.9413 22.4661 57.8379 22.4532C57.993 22.2669 58.1326 22.104 58.2645 21.9385C58.9625 21.0487 59.6863 20.1823 60.3482 19.264C61.6434 17.4638 62.0777 15.4205 61.9691 13.2297C61.858 10.9639 61.2788 8.81711 60.4283 6.72983C60.3637 6.56947 60.2706 6.41945 60.1724 6.22805C60.0224 6.32375 59.9087 6.38583 59.8027 6.46343C58.448 7.46697 57.2587 8.63346 56.2764 10.0069C55.3974 11.2356 54.7356 12.5702 54.4951 14.0703C54.1022 16.5042 54.1461 18.9381 54.6787 21.3512C54.8829 22.272 55.1621 23.1773 55.4181 24.1317C54.9243 24.468 54.4202 24.8068 53.9212 25.1508C53.4197 25.4974 52.9181 25.8466 52.4218 26.2009C51.9254 26.5552 51.4316 26.9148 50.9404 27.2795C50.4673 27.6286 49.9993 27.983 49.534 28.3425C49.0506 28.715 48.5697 29.0926 48.094 29.4728C47.6183 29.853 47.1529 30.2514 46.6721 30.6264C46.2145 30.9808 45.8268 31.436 45.1752 31.7618C45.3123 31.5161 45.3821 31.4023 45.4415 31.2833C45.9793 30.241 46.5584 29.2141 47.0444 28.1485C47.8381 26.4052 47.9493 24.574 47.6003 22.7039C47.1297 20.1743 46.0775 17.8879 44.7022 15.7362C44.6324 15.6275 44.5419 15.5344 44.4436 15.4103C44.3428 15.4879 44.2653 15.5318 44.2058 15.5939C42.7865 17.0786 41.6257 18.7365 40.8527 20.6505C40.3718 21.8377 40.0771 23.0714 40.1107 24.3492C40.196 27.5848 40.9457 30.6576 42.4944 33.5159C42.5797 33.671 42.6572 33.8288 42.7581 34.028C39.7514 36.6791 37.0239 39.5786 34.4719 42.6491C34.6684 41.8421 34.9192 41.0739 35.1389 40.2954C35.6818 38.3736 35.6896 36.4596 35.051 34.5533C34.1333 31.8194 32.5459 29.5071 30.5837 27.43C30.532 27.3731 30.4415 27.3524 30.3768 27.3162C29.1902 28.8655 28.0966 31.333 27.7218 33.247C27.471 34.5247 27.396 35.8025 27.6571 37.088C28.3035 40.2642 29.5832 43.1507 31.5687 45.719C31.6747 45.8561 31.7626 46.0113 31.866 46.169C29.4152 49.5599 27.2487 53.0904 25.2424 56.7223C25.2941 56.0265 25.4104 55.3592 25.488 54.6893C25.6354 53.4297 25.7077 52.1649 25.4777 50.9053C25.2088 49.4335 24.5728 48.1145 23.7533 46.8833C22.4606 44.9434 20.8267 43.3243 18.986 41.9121C18.849 41.806 18.6965 41.7232 18.5052 41.6043C18.3888 41.8474 18.288 42.044 18.2001 42.2483C17.6649 43.5027 17.2823 44.8012 17.0625 46.1436C16.729 48.1843 16.7756 50.2018 17.5667 52.1494C18.7947 55.1704 20.5863 57.8035 23.019 59.9865C23.1664 60.1184 23.2983 60.2633 23.4275 60.3926C22.8381 61.7221 22.2538 62.9972 21.7108 64.2853C21.1757 65.5553 20.6742 66.8408 20.1675 68.1236C19.6633 69.3988 19.2729 70.7205 18.6964 71.9775C18.6266 71.1679 18.6447 70.3765 18.624 69.5876C18.5413 66.6467 17.4348 64.1508 15.3485 62.0736C13.7145 60.4467 11.8532 59.1431 9.81597 58.0827C9.66344 58.0025 9.49798 57.9507 9.30667 57.8731C9.24463 58.062 9.16965 58.2068 9.14897 58.3568C8.97834 59.5647 8.72757 60.7674 8.67069 61.9805C8.5466 64.6188 9.10502 67.0888 10.651 69.3052C12.409 71.8244 14.5264 73.9531 17.1452 75.5696C17.2952 75.6627 17.4322 75.7714 17.6106 75.8955C16.5196 79.7054 15.6898 83.5512 14.9866 87.444C14.8004 86.9086 14.6789 86.3731 14.5677 85.8351C14.0145 83.1737 12.7684 80.9363 10.5942 79.2448C8.44064 77.5688 6.02344 76.4333 3.43316 75.6315C3.32975 75.6004 3.21601 75.6108 3.10484 75.6004C3.08157 75.6884 3.05572 75.753 3.05055 75.8203C2.93679 77.5196 3.00143 79.2138 3.35819 80.882C3.80027 82.9512 4.61719 84.8342 6.08308 86.4068C8.30386 88.7916 10.8839 90.6539 13.9059 91.8876C14.0714 91.9548 14.2317 92.0324 14.4514 92.1281C14.0585 95.832 13.9111 99.5408 13.8697 103.273C13.6034 102.823 13.3966 102.36 13.2027 101.892C12.0833 99.166 10.1495 97.2391 7.49961 95.9897C5.35382 94.9784 3.09691 94.3654 0.754886 94.0395C0.522213 94.0059 0.284362 94.0085 0 93.993C0.188728 96.2976 0.74714 98.4055 1.72698 100.392C2.43276 101.827 3.36865 103.097 4.63282 104.101C7.22071 106.155 10.1162 107.585 13.3246 108.374C13.6064 108.444 13.8908 108.508 14.2269 108.586C14.5061 112.238 15.0361 115.836 15.7264 119.418C15.2533 118.797 14.8318 118.158 14.4027 117.527C12.9782 115.422 11.0263 114.043 8.61942 113.267C6.02379 112.432 3.36356 112.178 0.656933 112.303C0.465624 112.31 0.276898 112.359 0.0830016 112.39C0.625908 115.052 2.42787 118.337 4.39781 120.155C5.00794 120.719 5.68527 121.237 6.4066 121.643C8.95312 123.078 11.6909 123.976 14.5994 124.32C15.3827 124.413 16.1713 124.459 17.014 124.534C17.8491 127.925 18.9013 131.264 20.1086 134.446C19.6278 134.019 19.0771 133.582 18.5833 133.086C16.921 131.412 14.9406 130.377 12.6139 129.971C10.3854 129.581 8.15946 129.625 5.93074 129.943C5.06209 130.067 4.20376 130.253 3.3584 130.406C3.35323 130.53 3.33514 130.579 3.35065 130.618C3.39718 130.745 3.44889 130.871 3.50835 130.993C4.36152 132.679 5.40595 134.231 6.7089 135.6C8.07134 137.027 9.63287 138.16 11.5278 138.776C14.1518 139.629 16.8431 140.046 19.6041 139.935C20.5038 139.898 21.4009 139.821 22.236 139.764C23.9345 142.909 25.615 146.015 27.2928 149.119C27.2799 149.124 27.254 149.145 27.2462 149.14C26.7525 148.786 26.2509 148.439 25.7649 148.074C23.4407 146.326 20.8166 145.602 17.9341 145.777C15.1756 145.948 12.5438 146.647 10.01 147.73C9.87812 147.787 9.76437 147.888 9.61184 147.986C10.9122 149.815 12.4117 151.364 14.1904 152.645C16.1707 154.072 18.3811 154.812 20.8114 154.975C24.0042 155.187 27.1298 154.897 30.1776 153.889C30.281 153.855 30.3896 153.845 30.4077 153.842C32.7189 156.736 34.9836 159.571 37.3106 162.486C37.0882 162.373 36.9538 162.298 36.8142 162.233C35.8964 161.796 34.9916 161.333 34.0583 160.935C32.0857 160.091 30.033 159.975 27.9389 160.342C24.8159 160.891 22.0005 162.189 19.3556 163.896C19.247 163.966 19.1514 164.056 19.0195 164.163C19.1772 164.336 19.3013 164.494 19.4461 164.628C21.0128 166.087 22.7398 167.313 24.6942 168.197C26.4496 168.991 28.28 169.436 30.2164 169.341C33.8771 169.162 37.3596 168.293 40.6065 166.563C40.7616 166.48 40.9271 166.421 41.0072 166.384C43.7476 168.844 46.4337 171.257 49.1894 173.733C48.7603 173.593 48.4216 173.479 48.0804 173.368C46.7851 172.954 45.4744 172.615 44.1145 172.504C42.3436 172.362 40.6477 172.721 39.0086 173.358C36.0976 174.483 33.5951 176.244 31.3281 178.36C31.2479 178.435 31.1833 178.526 31.0877 178.637C31.2531 178.766 31.385 178.883 31.5297 178.978C33.2179 180.098 35.0224 180.972 36.9665 181.541C38.9003 182.105 40.8677 182.338 42.8636 181.932C46.6665 181.161 50.1285 179.625 53.2021 177.238C53.3262 177.142 53.4554 177.057 53.5381 177C56.4156 178.841 59.2568 180.662 62.181 182.535C61.439 182.46 60.7901 182.39 60.1412 182.33C58.9209 182.219 57.7033 182.237 56.496 182.491C54.8337 182.84 53.3342 183.562 51.9304 184.493C49.4718 186.125 47.4398 188.202 45.6844 190.561C45.6353 190.625 45.612 190.711 45.5836 190.77C45.6404 190.835 45.6637 190.879 45.6999 190.899C45.7981 190.954 45.9016 191 46.005 191.047C47.9232 191.882 49.9165 192.464 52.0002 192.674C54.1615 192.894 56.2841 192.736 58.3264 191.887C61.3227 190.641 64.0166 188.931 66.3591 186.678C66.8141 186.241 67.2536 185.788 67.7421 185.302C70.7101 186.73 73.7788 187.925 76.8887 189.009C76.9042 189.014 76.9171 189.042 76.9223 189.063C76.9274 189.084 76.9249 189.107 76.9249 189.19C76.5836 189.19 76.2475 189.177 75.9088 189.192C72.8995 189.314 70.2005 190.245 67.9046 192.255C65.3788 194.464 63.4864 197.141 61.9895 200.118C61.9533 200.19 61.9559 200.283 61.9378 200.382C62.049 200.418 62.1317 200.451 62.217 200.472C64.4455 201.057 66.7128 201.264 69.0061 201.088C71.3975 200.904 73.5872 200.154 75.5779 198.783C78.5613 196.729 81.0768 194.236 83.0102 191.168C83.1059 191.018 83.2119 190.874 83.3179 190.718C83.5402 190.752 83.7419 190.773 83.9358 190.814C85.4171 191.127 86.9037 191.412 88.3747 191.766C95.7812 193.54 102.829 196.23 109.388 200.139C113.131 202.368 116.632 204.921 119.708 208.025C120.006 208.325 120.254 208.674 120.525 209H120.797C121.539 208.312 122.278 207.624 123.023 206.939C123.333 206.651 123.651 206.37 124 206.054C123.791 205.824 123.63 205.638 123.46 205.464C120.887 202.883 117.943 200.749 114.822 198.858L114.823 198.856Z" fill="currentColor"/>
</svg>
