<svg width="24" height="24" viewBox="0 0 24 24" fill="none" xmlns="http://www.w3.org/2000/svg">
<g id="Callback">
<path id="Shape" d="M19.5526 18.4474L17.9811 20.0189C17.9811 20.0189 13.8978 21.7689 8.06446 15.9356C2.23112 10.1022 3.98112 6.01888 3.98112 6.01888L5.55262 4.44738C6.26259 3.73741 7.43679 3.82086 8.03922 4.6241L9.53922 6.62411C10.0319 7.28097 9.96655 8.20013 9.38595 8.78072L8.06446 10.1022C8.06446 10.1022 8.06446 11.2689 10.3978 13.6022C12.7311 15.9356 13.8978 15.9356 13.8978 15.9356L15.2193 14.6141C15.7999 14.0335 16.7191 13.9682 17.3759 14.4608L19.3759 15.9608C20.1792 16.5632 20.2626 17.7374 19.5526 18.4474Z" fill="currentColor"/>
<path id="Vector 832 (Stroke)" fill-rule="evenodd" clip-rule="evenodd" d="M13.75 9.1894L18.4697 4.46973L19.5303 5.53039L14.8107 10.2501H18.3333V11.7501H12.25V5.66672H13.75V9.1894Z" fill="currentColor"/>
</g>
</svg>
