<svg xmlns="http://www.w3.org/2000/svg" width="40" height="40" viewBox="0 0 40 40" fill="none">
  <path fill-rule="evenodd" clip-rule="evenodd" d="M20 33.3333C27.3638 33.3333 33.3334 27.3638 33.3334 20C33.3334 12.6362 27.3638 6.66667 20 6.66667C12.6362 6.66667 6.66671 12.6362 6.66671 20C6.66671 27.3638 12.6362 33.3333 20 33.3333ZM20 36.6667C29.2048 36.6667 36.6667 29.2047 36.6667 20C36.6667 10.7953 29.2048 3.33333 20 3.33333C10.7953 3.33333 3.33337 10.7953 3.33337 20C3.33337 29.2047 10.7953 36.6667 20 36.6667Z" fill="white"/>
  <path fill-rule="evenodd" clip-rule="evenodd" d="M13.8215 13.8215C14.4724 13.1706 15.5277 13.1706 16.1786 13.8215L20 17.643L23.8215 13.8215C24.4724 13.1706 25.5277 13.1706 26.1786 13.8215C26.8294 14.4724 26.8294 15.5276 26.1786 16.1785L22.3571 20L26.1786 23.8215C26.8294 24.4724 26.8294 25.5276 26.1786 26.1785C25.5277 26.8294 24.4724 26.8294 23.8215 26.1785L20 22.357L16.1786 26.1785C15.5277 26.8294 14.4724 26.8294 13.8215 26.1785C13.1707 25.5276 13.1707 24.4724 13.8215 23.8215L17.643 20L13.8215 16.1785C13.1707 15.5276 13.1707 14.4724 13.8215 13.8215Z" fill="white"/>
</svg>