<svg width="247" height="184" viewBox="0 0 247 184" fill="none" xmlns="http://www.w3.org/2000/svg">
<path d="M247 161.697H0V161.821H247V161.697Z" fill="#EBEBEB"/>
<path d="M222.252 169.646H214.891V169.77H222.252V169.646Z" fill="#EBEBEB"/>
<path d="M163.622 170.985H159.328V171.109H163.622V170.985Z" fill="#EBEBEB"/>
<path d="M212.804 165.061H195.914V165.185H212.804V165.061Z" fill="#EBEBEB"/>
<path d="M54.1574 167.608H32.8203V167.732H54.1574V167.608Z" fill="#EBEBEB"/>
<path d="M66.2498 167.608H58.5547V167.732H66.2498V167.608Z" fill="#EBEBEB"/>
<path d="M125.848 165.951H79.5723V166.075H125.848V165.951Z" fill="#EBEBEB"/>
<path d="M117.085 139.674H21.6929C20.9453 139.673 20.2285 139.376 19.6998 138.847C19.1712 138.319 18.8738 137.602 18.873 136.855V2.81783C18.8741 2.07065 19.1716 1.35439 19.7002 0.826139C20.2288 0.297893 20.9455 0.000790765 21.6929 0H117.085C117.832 0.00105436 118.548 0.298272 119.077 0.826489C119.605 1.35471 119.903 2.07082 119.904 2.81783V136.853C119.903 137.601 119.606 138.318 119.078 138.846C118.549 139.375 117.833 139.673 117.085 139.674ZM21.6939 0.123555C20.9808 0.125658 20.2975 0.409775 19.7932 0.913847C19.289 1.41792 19.0047 2.10098 19.0026 2.81385V136.853C19.0047 137.566 19.289 138.249 19.7932 138.753C20.2975 139.257 20.9808 139.541 21.6939 139.543H117.086C117.799 139.541 118.482 139.257 118.986 138.753C119.491 138.249 119.775 137.566 119.777 136.853V2.81783C119.775 2.10497 119.491 1.4219 118.986 0.91783C118.482 0.413758 117.799 0.129645 117.086 0.127542L21.6939 0.123555Z" fill="#EBEBEB"/>
<path d="M223.935 139.674H128.544C127.796 139.673 127.08 139.376 126.551 138.847C126.023 138.319 125.725 137.602 125.725 136.855V2.81783C125.725 2.07074 126.023 1.35447 126.551 0.8262C127.08 0.297926 127.796 0.000791272 128.544 0H223.935C224.683 0.000790765 225.399 0.297893 225.928 0.826139C226.457 1.35439 226.754 2.07065 226.755 2.81783V136.853C226.755 137.601 226.458 138.318 225.929 138.847C225.4 139.376 224.683 139.673 223.935 139.674ZM128.544 0.123555C127.83 0.125658 127.147 0.409775 126.643 0.913847C126.139 1.41792 125.854 2.10098 125.852 2.81385V136.853C125.854 137.566 126.139 138.249 126.643 138.753C127.147 139.257 127.83 139.541 128.544 139.543H223.935C224.649 139.543 225.334 139.259 225.839 138.755C226.345 138.251 226.629 137.567 226.632 136.853V2.81783C226.629 2.10411 226.345 1.42029 225.839 0.916078C225.334 0.411864 224.649 0.128329 223.935 0.127542L128.544 0.123555Z" fill="#EBEBEB"/>
<path d="M105.949 161.695H115.148L115.148 98.5512H105.949V161.695Z" fill="#E6E6E6"/>
<path d="M109.188 161.695H105.949V149.698H112.583L109.188 161.695Z" fill="#F0F0F0"/>
<path d="M203.228 161.695H212.428V98.5512H203.228V161.695Z" fill="#E6E6E6"/>
<path d="M105.951 158.42H206.057V98.551L105.951 98.551L105.951 158.42Z" fill="#F0F0F0"/>
<path d="M202.821 161.695H206.059V149.698H199.422L202.821 161.695Z" fill="#F0F0F0"/>
<path d="M173.051 103.508V153.033H202.726V103.508H173.051Z" fill="#E6E6E6"/>
<path d="M184.952 105.25H190.823C193.308 105.275 195.712 104.372 197.565 102.717H178.211C180.064 104.371 182.468 105.275 184.952 105.25V105.25Z" fill="#F0F0F0"/>
<path d="M141.164 103.508V153.033H170.839V103.508H141.164Z" fill="#E6E6E6"/>
<path d="M152.768 105.25H158.639C161.123 105.275 163.527 104.371 165.38 102.717H146.025C147.878 104.372 150.283 105.275 152.768 105.25V105.25Z" fill="#F0F0F0"/>
<path d="M109.279 103.508V153.033H138.954V103.508H109.279Z" fill="#E6E6E6"/>
<path d="M120.883 105.25H126.754C129.239 105.275 131.643 104.372 133.496 102.717H114.141C115.994 104.372 118.398 105.275 120.883 105.25V105.25Z" fill="#F0F0F0"/>
<path d="M34.5687 161.695H97.3359L97.3359 20.6523H34.5687L34.5687 161.695Z" fill="#F0F0F0"/>
<path d="M34.5692 161.695H96.0117L96.0117 20.6523H34.5692L34.5692 161.695Z" fill="#F5F5F5"/>
<path d="M92.2676 158.495L92.2676 23.8525L38.3129 23.8525L38.3129 158.495H92.2676Z" fill="#F0F0F0"/>
<path d="M86.9652 48.8934C86.9652 46.9624 86.5847 45.0504 85.8455 43.2664C85.1063 41.4825 84.0228 39.8615 82.6569 38.4961C81.291 37.1308 79.6694 36.0477 77.8848 35.3087C76.1001 34.5698 74.1874 34.1895 72.2557 34.1895H58.3247C54.4235 34.1895 50.6821 35.7386 47.9235 38.4961C45.165 41.2537 43.6152 44.9937 43.6152 48.8934H86.9652Z" fill="#FAFAFA"/>
<path d="M86.9668 150.127V117.961H43.6168V150.127H86.9668Z" fill="#F5F5F5"/>
<path d="M86.965 57.9629H67.8438V113.81H86.965V57.9629Z" fill="#F5F5F5"/>
<path d="M62.7365 57.9629H43.6152V113.81H62.7365V57.9629Z" fill="#F5F5F5"/>
<path d="M50.5507 85.6353H42.719C42.397 85.6345 42.0884 85.5063 41.8607 85.2787C41.633 85.051 41.5047 84.7426 41.5039 84.4207V84.4207C41.505 84.0989 41.6333 83.7905 41.861 83.563C42.0886 83.3354 42.397 83.2071 42.719 83.2061H50.5507C50.8726 83.2071 51.1811 83.3354 51.4087 83.563C51.6363 83.7905 51.7647 84.0989 51.7658 84.4207V84.4207C51.765 84.7426 51.6367 85.051 51.409 85.2787C51.1813 85.5063 50.8727 85.6345 50.5507 85.6353Z" fill="#E0E0E0"/>
<path d="M39.2832 158.495L39.2832 23.8525H38.3123L38.3123 158.495H39.2832Z" fill="#F0F0F0"/>
<path d="M137.038 83.0703L203.602 83.0703V20.6516L137.038 20.6516V83.0703Z" fill="#E6E6E6"/>
<path d="M135.36 83.0703L201.924 83.0703V20.6516L135.36 20.6516V83.0703Z" fill="#F5F5F5"/>
<path d="M131.474 86.6826L203.602 86.6826V83.0697L131.474 83.0697V86.6826Z" fill="#E6E6E6"/>
<path d="M129.585 86.6826L197.998 86.6826V83.0697L129.585 83.0697V86.6826Z" fill="#F5F5F5"/>
<path d="M198.912 79.8236V23.8984L138.372 23.8984V79.8236H198.912Z" fill="white"/>
<path d="M170.318 79.8236V23.8984H166.962V79.8236H170.318Z" fill="#F5F5F5"/>
<path d="M139.641 79.8236V23.8984H138.372V79.8236H139.641Z" fill="#E6E6E6"/>
<path d="M171.588 79.8236V23.8984H170.319V79.8236H171.588Z" fill="#E6E6E6"/>
<path d="M145.989 84.7264C144.765 72.0471 143.913 51.4724 144.574 44.5912C144.586 44.473 144.622 44.3585 144.682 44.2554C144.741 44.1524 144.821 44.063 144.917 43.9934C145.045 43.8998 145.197 43.8439 145.355 43.8323C145.513 43.8207 145.672 43.8538 145.812 43.9278C145.952 44.0017 146.069 44.1136 146.149 44.2506C146.228 44.3877 146.268 44.5444 146.263 44.7028C146.146 48.1125 146.012 56.6348 146.738 71.3367C147.1 78.6553 147.622 83.6672 147.264 84.7244L145.989 84.7264Z" fill="#E6E6E6"/>
<path d="M141.425 55.5027C137.936 51.6337 130.82 48.8826 123.566 48.8965C120.718 48.9025 132.231 53.3973 137.022 58.3624C140.852 62.4855 144.004 67.1886 146.361 72.2971C145.436 64.7194 144.911 59.3697 141.425 55.5027Z" fill="#E6E6E6"/>
<path d="M148.334 56.681C151.225 52.6515 157.911 49.5527 165.14 49.202C167.978 49.0645 157.18 54.1212 153.15 59.3045C149.935 63.6367 147.491 68.4906 145.926 73.6527C145.715 66.0671 145.44 60.7114 148.334 56.681Z" fill="#E6E6E6"/>
<path d="M141.271 41.3722C138.319 38.096 132.291 35.7664 126.148 35.7784C123.737 35.7784 133.485 39.5906 137.539 43.7905C140.782 47.2817 143.451 51.2641 145.447 55.5899C144.668 49.179 144.22 44.6484 141.271 41.3722Z" fill="#E6E6E6"/>
<path d="M147.12 46.2183C149.571 42.8056 155.23 40.1821 161.351 39.8851C163.754 39.7686 154.611 44.0501 151.198 48.4393C148.475 52.1096 146.405 56.2219 145.081 60.5954C144.903 54.1666 144.669 49.629 147.12 46.2183Z" fill="#E6E6E6"/>
<path d="M146.48 98.552C144.641 98.552 142.871 97.8487 141.533 96.5864C140.196 95.3241 139.392 93.5982 139.286 91.7625L138.65 80.7393H154.31L153.674 91.7625C153.568 93.5982 152.764 95.3241 151.427 96.5864C150.089 97.8487 148.32 98.552 146.48 98.552Z" fill="#E6E6E6"/>
<path d="M155.325 83.2456H137.641L137.135 78.6621H155.835L155.325 83.2456Z" fill="#E6E6E6"/>
<path d="M123.5 184C176.399 184 219.282 181.497 219.282 178.408C219.282 175.32 176.399 172.816 123.5 172.816C70.6016 172.816 27.7188 175.32 27.7188 178.408C27.7188 181.497 70.6016 184 123.5 184Z" fill="#F5F5F5"/>
</svg>
