<svg width="270" height="94" viewBox="0 0 270 94" fill="none" xmlns="http://www.w3.org/2000/svg">
<path d="M67.8813 79.8808C69.5398 78.2223 69.4759 75.7285 68.4493 72.3504C67.4157 68.9494 65.3294 64.4122 62.5791 58.4309L62.5594 58.388L59.4731 51.6761C58.3489 49.2312 57.8612 48.145 57.8612 47.0003C57.8612 45.8557 58.3489 44.7694 59.4731 42.3246L62.5594 35.6126L62.5791 35.5697C65.3294 29.5884 67.4157 25.0513 68.4493 21.6502C69.4759 18.2721 69.5398 15.7783 67.8813 14.1199C66.2228 12.4614 63.729 12.5252 60.3509 13.5519C56.9499 14.5855 52.4128 16.6717 46.4316 19.422L46.3885 19.4418L39.6766 22.528C37.2317 23.6522 36.1455 24.14 35.0008 24.14C33.8562 24.14 32.7699 23.6522 30.325 22.528L23.6131 19.4418L23.5701 19.422C17.5889 16.6717 13.0518 14.5855 9.6507 13.5519C6.27261 12.5252 3.77883 12.4614 2.12036 14.1199C0.46188 15.7783 0.525731 18.2721 1.55235 21.6502C2.58595 25.0513 4.67219 29.5884 7.42245 35.5696L7.44226 35.6126L10.5285 42.3245C11.6527 44.7694 12.1404 45.8557 12.1404 47.0003C12.1404 48.145 11.6527 49.2312 10.5285 51.6761L7.44226 58.388L7.42245 58.4311C4.67219 64.4123 2.58595 68.9494 1.55235 72.3504C0.525732 75.7285 0.461881 78.2223 2.12036 79.8808C3.77884 81.5393 6.27261 81.4754 9.6507 80.4488C13.0518 79.4152 17.5889 77.3289 23.5702 74.5786L23.6131 74.5589L30.325 71.4726C32.7699 70.3484 33.8562 69.8607 35.0008 69.8607C36.1455 69.8607 37.2317 70.3484 39.6766 71.4726L46.3885 74.5589L46.4314 74.5786C52.4127 77.3289 56.9498 79.4152 60.3509 80.4488C63.729 81.4754 66.2228 81.5393 67.8813 79.8808Z" stroke="white"/>
<path opacity="0.5" d="M102.611 60.9982L109.539 58.4345L109.584 58.418C115.758 56.1334 120.441 54.4004 123.577 52.7264C126.691 51.0637 128.5 49.3454 128.5 47C128.5 44.6546 126.691 42.9363 123.577 41.2736C120.441 39.5996 115.758 37.8665 109.584 35.582L109.539 35.5655L102.611 33.0018C100.087 32.0679 98.9741 31.6447 98.1647 30.8353C97.3553 30.0259 96.9321 28.9129 95.9982 26.3892L93.4345 19.4608L93.4181 19.4164C91.1335 13.2423 89.4005 8.55891 87.7264 5.42311C86.0637 2.30852 84.3454 0.5 82 0.5C79.6546 0.5 77.9363 2.30852 76.2736 5.42311C74.5995 8.55891 72.8665 13.2423 70.5819 19.4164L70.5655 19.4608L68.0017 26.3892C67.0679 28.9129 66.6447 30.0259 65.8353 30.8353C65.0259 31.6447 63.9129 32.0679 61.3892 33.0018L54.4608 35.5655L54.4164 35.5819C48.2423 37.8665 43.5589 39.5995 40.4231 41.2736C37.3085 42.9363 35.5 44.6546 35.5 47C35.5 49.3454 37.3085 51.0637 40.4231 52.7264C43.5589 54.4005 48.2423 56.1335 54.4164 58.4181L54.4608 58.4345L61.3892 60.9982C63.9129 61.9321 65.0259 62.3553 65.8353 63.1647C66.6447 63.9741 67.0679 65.0871 68.0017 67.6108L70.5655 74.5392L70.582 74.5837C72.8665 80.7577 74.5995 85.4411 76.2736 88.5769C77.9363 91.6915 79.6546 93.5 82 93.5C84.3454 93.5 86.0637 91.6915 87.7264 88.5769C89.4004 85.4411 91.1334 80.7577 93.418 74.5837L93.4345 74.5392L95.9982 67.6108C96.9321 65.0871 97.3553 63.9741 98.1647 63.1647C98.9741 62.3553 100.087 61.9321 102.611 60.9982Z" stroke="white"/>
<path opacity="0.3" d="M149.611 60.9982L156.539 58.4345L156.584 58.418C162.758 56.1334 167.441 54.4004 170.577 52.7264C173.691 51.0637 175.5 49.3454 175.5 47C175.5 44.6546 173.691 42.9363 170.577 41.2736C167.441 39.5996 162.758 37.8665 156.584 35.582L156.539 35.5655L149.611 33.0018C147.087 32.0679 145.974 31.6447 145.165 30.8353C144.355 30.0259 143.932 28.9129 142.998 26.3892L140.435 19.4608L140.418 19.4164C138.133 13.2423 136.4 8.55891 134.726 5.42311C133.064 2.30852 131.345 0.5 129 0.5C126.655 0.5 124.936 2.30852 123.274 5.42311C121.6 8.55891 119.867 13.2423 117.582 19.4164L117.565 19.4608L115.002 26.3892C114.068 28.9129 113.645 30.0259 112.835 30.8353C112.026 31.6447 110.913 32.0679 108.389 33.0018L101.461 35.5655L101.416 35.5819C95.2423 37.8665 90.5589 39.5995 87.4231 41.2736C84.3085 42.9363 82.5 44.6546 82.5 47C82.5 49.3454 84.3085 51.0637 87.4231 52.7264C90.5589 54.4005 95.2423 56.1335 101.416 58.4181L101.461 58.4345L108.389 60.9982C110.913 61.9321 112.026 62.3553 112.835 63.1647C113.645 63.9741 114.068 65.0871 115.002 67.6108L117.565 74.5392L117.582 74.5837C119.867 80.7577 121.6 85.4411 123.274 88.5769C124.936 91.6915 126.655 93.5 129 93.5C131.345 93.5 133.064 91.6915 134.726 88.5769C136.4 85.4411 138.133 80.7577 140.418 74.5837L140.435 74.5392L142.998 67.6108C143.932 65.0871 144.355 63.9741 145.165 63.1647C145.974 62.3553 147.087 61.9321 149.611 60.9982Z" stroke="white"/>
<path opacity="0.2" d="M196.611 60.9982L203.539 58.4345L203.584 58.418C209.758 56.1334 214.441 54.4004 217.577 52.7264C220.691 51.0637 222.5 49.3454 222.5 47C222.5 44.6546 220.691 42.9363 217.577 41.2736C214.441 39.5996 209.758 37.8665 203.584 35.582L203.539 35.5655L196.611 33.0018C194.087 32.0679 192.974 31.6447 192.165 30.8353C191.355 30.0259 190.932 28.9129 189.998 26.3892L187.435 19.4608L187.418 19.4164C185.133 13.2423 183.4 8.55891 181.726 5.42311C180.064 2.30852 178.345 0.5 176 0.5C173.655 0.5 171.936 2.30852 170.274 5.42311C168.6 8.55891 166.867 13.2423 164.582 19.4164L164.565 19.4608L162.002 26.3892C161.068 28.9129 160.645 30.0259 159.835 30.8353C159.026 31.6447 157.913 32.0679 155.389 33.0018L148.461 35.5655L148.416 35.5819C142.242 37.8665 137.559 39.5995 134.423 41.2736C131.309 42.9363 129.5 44.6546 129.5 47C129.5 49.3454 131.309 51.0637 134.423 52.7264C137.559 54.4005 142.242 56.1335 148.416 58.4181L148.461 58.4345L155.389 60.9982C157.913 61.9321 159.026 62.3553 159.835 63.1647C160.645 63.9741 161.068 65.0871 162.002 67.6108L164.565 74.5392L164.582 74.5837C166.867 80.7577 168.6 85.4411 170.274 88.5769C171.936 91.6915 173.655 93.5 176 93.5C178.345 93.5 180.064 91.6915 181.726 88.5769C183.4 85.4411 185.133 80.7577 187.418 74.5837L187.435 74.5392L189.998 67.6108C190.932 65.0871 191.355 63.9741 192.165 63.1647C192.974 62.3553 194.087 61.9321 196.611 60.9982Z" stroke="white"/>
<path opacity="0.1" d="M243.611 60.9982L250.539 58.4345L250.584 58.418C256.758 56.1334 261.441 54.4004 264.577 52.7264C267.691 51.0637 269.5 49.3454 269.5 47C269.5 44.6546 267.691 42.9363 264.577 41.2736C261.441 39.5996 256.758 37.8665 250.584 35.582L250.539 35.5655L243.611 33.0018C241.087 32.0679 239.974 31.6447 239.165 30.8353C238.355 30.0259 237.932 28.9129 236.998 26.3892L234.435 19.4608L234.418 19.4164C232.133 13.2423 230.4 8.55891 228.726 5.42311C227.064 2.30852 225.345 0.5 223 0.5C220.655 0.5 218.936 2.30852 217.274 5.42311C215.6 8.55891 213.867 13.2423 211.582 19.4164L211.565 19.4608L209.002 26.3892C208.068 28.9129 207.645 30.0259 206.835 30.8353C206.026 31.6447 204.913 32.0679 202.389 33.0018L195.461 35.5655L195.416 35.5819C189.242 37.8665 184.559 39.5995 181.423 41.2736C178.309 42.9363 176.5 44.6546 176.5 47C176.5 49.3454 178.309 51.0637 181.423 52.7264C184.559 54.4005 189.242 56.1335 195.416 58.4181L195.461 58.4345L202.389 60.9982C204.913 61.9321 206.026 62.3553 206.835 63.1647C207.645 63.9741 208.068 65.0871 209.002 67.6108L211.565 74.5392L211.582 74.5837C213.867 80.7577 215.6 85.4411 217.274 88.5769C218.936 91.6915 220.655 93.5 223 93.5C225.345 93.5 227.064 91.6915 228.726 88.5769C230.4 85.4411 232.133 80.7577 234.418 74.5837L234.435 74.5392L236.998 67.6108C237.932 65.0871 238.355 63.9741 239.165 63.1647C239.974 62.3553 241.087 61.9321 243.611 60.9982Z" stroke="white"/>
</svg>
