<svg width="178" height="38" viewBox="0 0 178 38" fill="none" xmlns="http://www.w3.org/2000/svg">
<g id="Group 18305">
<path id="Vector" d="M18.8646 33.1873C20.8144 33.2107 22.7505 32.858 24.5668 32.1485C26.2542 31.4921 27.7862 30.4909 29.0647 29.2089C30.3486 27.9084 31.3528 26.359 32.0154 24.6559C33.4155 20.8463 33.4155 16.6629 32.0154 12.8533C31.353 11.1469 30.3488 9.59374 29.0647 8.28921C27.7862 7.00724 26.2542 6.00605 24.5668 5.34962C20.8876 3.96455 16.8303 3.96455 13.1511 5.34962C11.4637 6.00605 9.9319 7.00724 8.65337 8.28921C7.36925 9.59159 6.36838 11.1455 5.71374 12.8533C4.29901 16.6603 4.29901 20.8489 5.71374 24.6559C6.36973 26.3597 7.37053 27.9098 8.65337 29.2089C9.9319 30.4909 11.4637 31.4921 13.1511 32.1485C14.9713 32.8581 16.9111 33.2107 18.8646 33.1873ZM18.8646 37.4972C16.2824 37.5241 13.7192 37.0513 11.3166 36.1048C9.08314 35.2231 7.05279 33.8958 5.3491 32.2038C3.66081 30.5053 2.32717 28.4881 1.42591 26.2693C-0.475303 21.4361 -0.475303 16.0621 1.42591 11.2288C2.32715 9.01334 3.66088 6.99965 5.3491 5.3054C7.04902 3.60871 9.0804 2.28072 11.3166 1.40437C13.7186 0.454371 16.2817 -0.0221946 18.8646 0.000891307C21.4368 -0.0235062 23.9892 0.453182 26.3792 1.40437C28.6142 2.28609 30.6477 3.61108 32.357 5.2995C34.0663 6.98792 35.4161 9.00485 36.3252 11.2288C38.2112 16.065 38.2112 21.4332 36.3252 26.2693C35.4184 28.496 34.0696 30.5156 32.3601 32.2062C30.6506 33.8967 28.6159 35.2229 26.3792 36.1048C23.9884 37.0522 21.4361 37.5252 18.8646 37.4972Z" fill="white"/>
<path id="Vector_2" d="M43.2861 1.01758H67.8306V5.3275H47.9386V17.4837H63.6975V21.7937H47.9386V36.4805H43.2861V1.01758Z" fill="white"/>
<path id="Vector_3" d="M71.833 1.01758H96.3775V5.3275H76.4855V17.4837H92.2444V21.7937H76.4855V36.4805H71.833V1.01758Z" fill="white"/>
<path id="Vector_4" d="M105.006 1.01758H100.354V36.4805H105.006V1.01758Z" fill="white"/>
<path id="Vector_5" d="M129.477 37.5316C126.895 37.5573 124.332 37.0845 121.929 36.1391C119.696 35.2574 117.665 33.9301 115.961 32.2381C114.273 30.5396 112.939 28.5224 112.038 26.3036C110.137 21.4704 110.137 16.0964 112.038 11.2631C112.939 9.04764 114.273 7.03395 115.961 5.33971C117.661 3.64302 119.693 2.31503 121.929 1.43868C125.922 -0.0822698 130.278 -0.374765 134.439 0.598781C135.823 0.936472 137.165 1.42955 138.439 2.0686C139.562 2.63217 140.612 3.3298 141.567 4.14621C142.409 4.86771 143.186 5.66284 143.888 6.52218C145.447 8.41435 146.609 10.602 147.302 12.9539H142.738C142.084 11.3712 141.156 9.91601 139.998 8.65504C139.453 8.08778 138.865 7.56317 138.24 7.0858C137.536 6.54975 136.777 6.09035 135.975 5.71544C135.048 5.28385 134.077 4.95409 133.08 4.73191C131.927 4.46688 130.748 4.33707 129.565 4.34512C127.612 4.32767 125.674 4.68014 123.852 5.38392C122.166 6.04322 120.635 7.04405 119.354 8.32352C118.077 9.63155 117.077 11.1839 116.415 12.8876C115 16.6946 115 20.8832 116.415 24.6902C117.077 26.3905 118.077 27.9392 119.354 29.2432C120.635 30.5227 122.166 31.5235 123.852 32.1828C125.672 32.8913 127.612 33.2439 129.565 33.2216C130.782 33.2335 131.996 33.0962 133.179 32.8127C134.21 32.5615 135.207 32.1906 136.152 31.7076C136.98 31.3015 137.759 30.8008 138.472 30.2157C139.108 29.6907 139.706 29.122 140.263 28.5139C141.455 27.1242 142.384 25.5289 143.003 23.8061H147.645C146.867 26.2874 145.643 28.6057 144.031 30.6467C143.308 31.5595 142.506 32.4064 141.633 33.1774C140.668 34.0331 139.607 34.7748 138.472 35.3876C137.206 36.0624 135.863 36.5819 134.472 36.9348C132.868 37.3384 131.219 37.5353 129.565 37.5205" fill="white"/>
<path id="Vector_6" d="M152.682 1.01758H178V5.3275H157.334V16.4781H174.121V20.7769H157.334V32.1817H178V36.4805H152.682V1.01758Z" fill="white"/>
</g>
</svg>
