<svg width="20" height="20" viewBox="0 0 20 20" fill="none" xmlns="http://www.w3.org/2000/svg">
<g clip-path="url(#clip0_140_1979)">
<path d="M12.5526 6.67946L12.0836 6.85297L12.5526 6.67946L12.1578 5.61259L12.1429 5.57245C11.8016 4.64997 11.5267 3.90703 11.2553 3.39857C10.9952 2.91146 10.624 2.41669 10.0003 2.41669C9.37664 2.41669 9.00543 2.91146 8.74538 3.39857C8.47394 3.90703 8.19904 4.64997 7.85771 5.57244L7.84286 5.61259L7.44808 6.67946C7.29085 7.10437 7.25593 7.16792 7.21208 7.21178C7.16823 7.25563 7.10468 7.29054 6.67976 7.44777L5.61289 7.84255L5.57274 7.85741C4.65027 8.19874 3.90734 8.47363 3.39887 8.74508C2.91176 9.00512 2.41699 9.37633 2.41699 10C2.41699 10.6237 2.91176 10.9949 3.39887 11.255C3.90734 11.5264 4.65028 11.8013 5.57276 12.1426L5.61289 12.1575L6.67976 12.5523C7.10467 12.7095 7.16823 12.7444 7.21208 12.7883C7.25593 12.8321 7.29085 12.8957 7.44808 13.3206L7.84286 14.3875L7.85771 14.4276C8.19904 15.3501 8.47394 16.093 8.74538 16.6015C9.00543 17.0886 9.37664 17.5834 10.0003 17.5834C10.624 17.5834 10.9952 17.0886 11.2553 16.6015C11.5267 16.093 11.8016 15.3501 12.1429 14.4276L12.1578 14.3875L12.5526 13.3206C12.7098 12.8957 12.7447 12.8321 12.7886 12.7883C12.8324 12.7444 12.896 12.7095 13.3209 12.5523L14.3878 12.1575L14.4279 12.1426C15.3504 11.8013 16.0933 11.5264 16.6018 11.255C17.0889 10.9949 17.5837 10.6237 17.5837 10C17.5837 9.37633 17.0889 9.00512 16.6018 8.74508C16.0933 8.47363 15.3504 8.19874 14.4279 7.85741L14.3878 7.84255L13.3209 7.44777C12.896 7.29054 12.8324 7.25563 12.7886 7.21178C12.7447 7.16792 12.7098 7.10437 12.5526 6.67946Z" stroke="#3AA830"/>
</g>
<defs>
<clipPath id="clip0_140_1979">
<rect width="20" height="20" fill="white"/>
</clipPath>
</defs>
</svg>
