<svg width="24" height="24" viewBox="0 0 24 24" fill="none" xmlns="http://www.w3.org/2000/svg">
<path d="M17.981 20.019L18.178 20.4785L18.2665 20.4406L18.3346 20.3725L19.9061 18.801C20.8312 17.8759 20.7225 16.3459 19.6758 15.5609L17.6758 14.0609C16.8199 13.4189 15.6222 13.504 14.8656 14.2606L13.7311 15.3951C13.6202 15.3622 13.4587 15.3029 13.2463 15.1967C12.7218 14.9345 11.8895 14.387 10.7512 13.2487C9.61297 12.1105 9.06546 11.2781 8.80322 10.7537C8.69703 10.5413 8.63779 10.3797 8.60484 10.2689L9.73939 9.13434C10.4959 8.3778 10.581 7.18009 9.9391 6.32417L8.4391 4.32416C7.6541 3.2775 6.12407 3.16876 5.19894 4.09389L3.62745 5.66538L3.55936 5.73347L3.52143 5.82198L3.981 6.01894C3.52143 5.82198 3.52126 5.82238 3.52108 5.8228L3.52069 5.82372L3.51979 5.82584L3.51755 5.83123L3.51135 5.84658C3.50649 5.85883 3.50024 5.87511 3.49288 5.89535C3.47816 5.93582 3.45901 5.99215 3.4378 6.06374C3.39537 6.20693 3.34465 6.41128 3.30452 6.67208C3.22419 7.19424 3.18673 7.94054 3.34197 8.87197C3.65344 10.7408 4.73279 13.3112 7.71079 16.2892C10.6888 19.2672 13.2592 20.3465 15.128 20.658C16.0594 20.8132 16.8057 20.7758 17.3279 20.6954C17.5887 20.6553 17.793 20.6046 17.9362 20.5622C18.0078 20.5409 18.0641 20.5218 18.1046 20.5071C18.1248 20.4997 18.1411 20.4935 18.1534 20.4886L18.1687 20.4824L18.1741 20.4802L18.1762 20.4793L18.1772 20.4789C18.1776 20.4787 18.178 20.4785 17.981 20.019Z" stroke="white"/>
</svg>
