<svg width="282" height="79" viewBox="0 0 282 79" fill="none" xmlns="http://www.w3.org/2000/svg">
<circle cx="35.9988" cy="22.0772" r="21.5769" stroke="#353945"/>
<path d="M71 78.6156C71 59.583 55.33 44.1541 36 44.1541C16.67 44.1541 1 59.583 1 78.6156" stroke="#353945"/>
<g opacity="0.2">
<circle cx="175.999" cy="22.0772" r="21.5769" stroke="#353945"/>
<path d="M211 78.6156C211 59.583 195.33 44.1541 176 44.1541C156.67 44.1541 141 59.583 141 78.6156" stroke="#353945"/>
</g>
<g opacity="0.4">
<circle cx="106.001" cy="56.5383" r="21.5769" transform="rotate(-180 106.001 56.5383)" stroke="#353945"/>
<path d="M71 -0.000119249C71 19.0325 86.67 34.4614 106 34.4614C125.33 34.4614 141 19.0325 141 -0.00011313" stroke="#353945"/>
</g>
<g opacity="0.1">
<circle cx="246.001" cy="56.5383" r="21.5769" transform="rotate(-180 246.001 56.5383)" stroke="#353945"/>
<path d="M211 -0.000119249C211 19.0325 226.67 34.4614 246 34.4614C265.33 34.4614 281 19.0325 281 -0.00011313" stroke="#353945"/>
</g>
</svg>
