<svg width="280" height="94" viewBox="0 0 280 94" fill="none" xmlns="http://www.w3.org/2000/svg">
<circle cx="23.5" cy="23.5" r="23" stroke="#141416"/>
<circle opacity="0.5" cx="23.5" cy="70.5" r="23" stroke="#141416"/>
<circle opacity="0.3" cx="163.5" cy="23.5" r="23" stroke="#141416"/>
<path opacity="0.5" d="M92.5 23.5C92.5 36.2127 82.4163 46.5 70 46.5C57.5837 46.5 47.5 36.2127 47.5 23.5C47.5 10.7873 57.5837 0.5 70 0.5C82.4163 0.5 92.5 10.7873 92.5 23.5Z" stroke="#141416"/>
<path opacity="0.5" d="M92.5 70.5C92.5 83.2127 82.4163 93.5 70 93.5C57.5837 93.5 47.5 83.2127 47.5 70.5C47.5 57.7873 57.5837 47.5 70 47.5C82.4163 47.5 92.5 57.7873 92.5 70.5Z" stroke="#141416"/>
<path opacity="0.2" d="M232.5 23.5C232.5 36.2127 222.416 46.5 210 46.5C197.584 46.5 187.5 36.2127 187.5 23.5C187.5 10.7873 197.584 0.5 210 0.5C222.416 0.5 232.5 10.7873 232.5 23.5Z" stroke="#141416"/>
<circle opacity="0.4" cx="116.5" cy="23.5" r="23" stroke="#141416"/>
<circle opacity="0.1" cx="256.5" cy="23.5" r="23" stroke="#141416"/>
<path opacity="0.4" d="M139.5 71C139.5 83.4163 129.213 93.5 116.5 93.5C103.787 93.5 93.5 83.4163 93.5 71C93.5 58.5837 103.787 48.5 116.5 48.5C129.213 48.5 139.5 58.5837 139.5 71Z" stroke="#141416"/>
<path opacity="0.3" d="M186.5 71C186.5 83.4163 176.213 93.5 163.5 93.5C150.787 93.5 140.5 83.4163 140.5 71C140.5 58.5837 150.787 48.5 163.5 48.5C176.213 48.5 186.5 58.5837 186.5 71Z" stroke="#141416"/>
<path d="M34.5 24C34.5 29.7783 29.5963 34.5 23.5 34.5C17.4037 34.5 12.5 29.7783 12.5 24C12.5 18.2217 17.4037 13.5 23.5 13.5C29.5963 13.5 34.5 18.2217 34.5 24Z" stroke="#141416"/>
<path opacity="0.2" d="M232.5 71C232.5 83.4163 222.213 93.5 209.5 93.5C196.787 93.5 186.5 83.4163 186.5 71C186.5 58.5837 196.787 48.5 209.5 48.5C222.213 48.5 232.5 58.5837 232.5 71Z" stroke="#141416"/>
<path opacity="0.1" d="M279.5 71C279.5 83.4163 269.213 93.5 256.5 93.5C243.787 93.5 233.5 83.4163 233.5 71C233.5 58.5837 243.787 48.5 256.5 48.5C269.213 48.5 279.5 58.5837 279.5 71Z" stroke="#141416"/>
</svg>
