<svg xmlns="http://www.w3.org/2000/svg" width="20" height="20" fill="none"><g fill="#777E91"><path fill-rule="evenodd" d="M15.834 16.667a.833.833 0 1 0 0-1.667.833.833 0 0 0 0 1.667Zm0 1.666a2.5 2.5 0 1 0 0-5 2.5 2.5 0 0 0 0 5Z" clip-rule="evenodd"/><path fill-rule="evenodd" d="M12.917 3.333c-1.15 0-2.083.933-2.083 2.083v9.167a3.75 3.75 0 0 1-7.5 0v-6.25a.833.833 0 1 1 1.666 0v6.25a2.083 2.083 0 0 0 4.167 0V5.417a3.75 3.75 0 0 1 7.5 0v5.416a.833.833 0 0 1-1.667 0V5.416c0-1.15-.933-2.083-2.083-2.083Z" clip-rule="evenodd"/><path d="M3.447 2.067a.833.833 0 0 1 1.44 0L6.351 4.58a.833.833 0 0 1-.72 1.253H2.701a.833.833 0 0 1-.72-1.253l1.466-2.513Z"/></g></svg>
