<svg width="24" height="24" viewBox="0 0 24 24" fill="none" xmlns="http://www.w3.org/2000/svg">
<path d="M19 9.00003C19.5523 9.00003 20 9.44775 20 10L20 21C20 21.5523 19.5523 22 19 22C18.4477 22 18 21.5523 18 21L18 10C18 9.44775 18.4477 9.00003 19 9.00003Z" fill="currentColor"/>
<path d="M19 2.00003C19.5523 2.00003 20 2.44775 20 3.00003V6.00003C20 6.55231 19.5523 7.00003 19 7.00003C18.4477 7.00003 18 6.55231 18 6.00003V3.00003C18 2.44775 18.4477 2.00003 19 2.00003Z" fill="currentColor"/>
<path d="M13 3.00003C13 2.44775 12.5523 2.00003 12 2.00003C11.4477 2.00003 11 2.44775 11 3.00003L11 14C11 14.5523 11.4477 15 12 15C12.5523 15 13 14.5523 13 14L13 3.00003Z" fill="currentColor"/>
<path d="M13 18C13 17.4477 12.5523 17 12 17C11.4477 17 11 17.4477 11 18V21C11 21.5523 11.4477 22 12 22C12.5523 22 13 21.5523 13 21V18Z" fill="currentColor"/>
<path d="M6 3.00003C6 2.44775 5.55229 2.00003 5 2.00003C4.44772 2.00003 4 2.44775 4 3.00003L4 10C4 10.5523 4.44772 11 5 11C5.55228 11 6 10.5523 6 10L6 3.00003Z" fill="currentColor"/>
<path d="M6 14C6 13.4477 5.55229 13 5 13C4.44772 13 4 13.4477 4 14L4 21C4 21.5523 4.44772 22 5 22C5.55229 22 6 21.5523 6 21L6 14Z" fill="currentColor"/>
<path fill-rule="evenodd" clip-rule="evenodd" d="M19 11C17.3431 11 16 9.65688 16 8.00003C16 6.34318 17.3431 5.00003 19 5.00003C20.6569 5.00003 22 6.34318 22 8.00003C22 9.65689 20.6569 11 19 11ZM19 9.00003C18.4477 9.00003 18 8.55232 18 8.00003C18 7.44775 18.4477 7.00003 19 7.00003C19.5523 7.00003 20 7.44775 20 8.00003C20 8.55232 19.5523 9.00003 19 9.00003Z" fill="currentColor"/>
<path fill-rule="evenodd" clip-rule="evenodd" d="M9 16C9 17.6569 10.3431 19 12 19C13.6569 19 15 17.6569 15 16C15 14.3432 13.6569 13 12 13C10.3431 13 9 14.3432 9 16ZM11 16C11 16.5523 11.4477 17 12 17C12.5523 17 13 16.5523 13 16C13 15.4477 12.5523 15 12 15C11.4477 15 11 15.4477 11 16Z" fill="currentColor"/>
<path fill-rule="evenodd" clip-rule="evenodd" d="M2 12C2 13.6569 3.34315 15 5 15C6.65685 15 8 13.6569 8 12C8 10.3432 6.65685 9.00003 5 9.00003C3.34315 9.00003 2 10.3432 2 12ZM4 12C4 12.5523 4.44772 13 5 13C5.55228 13 6 12.5523 6 12C6 11.4477 5.55228 11 5 11C4.44772 11 4 11.4477 4 12Z" fill="currentColor"/>
</svg>
