<svg width="40" height="40" viewBox="0 0 40 40" fill="none" xmlns="http://www.w3.org/2000/svg">
<path d="M20 3.33337C20.9019 3.33337 21.6339 4.16998 21.6339 5.20265V9.96082C21.6339 10.9935 20.9019 11.8301 20 11.8301C19.098 11.8301 18.366 10.9935 18.366 9.96082V5.20265C18.366 4.16998 19.098 3.33337 20 3.33337Z" fill="white"/>
<path opacity="0.1" d="M31.7843 8.21564C32.4215 8.8529 32.3464 9.96401 31.6176 10.6928L28.2516 14.0588C27.5228 14.7875 26.4117 14.8627 25.7745 14.2254C25.1372 13.5882 25.2124 12.4771 25.9411 11.7483L29.3072 8.38231C30.0359 7.65355 31.147 7.57839 31.7843 8.21564Z" fill="white"/>
<path opacity="0.2" d="M36.6667 20C36.6667 20.9019 35.8301 21.6339 34.7974 21.6339H30.0392C29.0065 21.6339 28.1699 20.9019 28.1699 20C28.1699 19.098 29.0065 18.366 30.0392 18.366H34.7974C35.8301 18.366 36.6667 19.098 36.6667 20Z" fill="white"/>
<path opacity="0.3" d="M31.7843 31.7843C31.147 32.4215 30.0359 32.3464 29.3072 31.6176L25.9411 28.2516C25.2124 27.5228 25.1372 26.4117 25.7745 25.7745C26.4117 25.1372 27.5228 25.2124 28.2516 25.9411L31.6176 29.3072C32.3464 30.0359 32.4215 31.147 31.7843 31.7843Z" fill="white"/>
<path opacity="0.4" d="M20 36.6667C19.098 36.6667 18.366 35.8301 18.366 34.7974V30.0392C18.366 29.0065 19.098 28.1699 20 28.1699C20.9019 28.1699 21.6339 29.0065 21.6339 30.0392V34.7974C21.6339 35.8301 20.9019 36.6667 20 36.6667Z" fill="white"/>
<path opacity="0.5" d="M8.21564 31.7843C7.57839 31.147 7.65355 30.0359 8.38231 29.3072L11.7483 25.9411C12.4771 25.2124 13.5882 25.1372 14.2254 25.7745C14.8627 26.4117 14.7875 27.5228 14.0588 28.2516L10.6928 31.6176C9.96401 32.3464 8.8529 32.4215 8.21564 31.7843Z" fill="white"/>
<path opacity="0.6" d="M3.33337 20C3.33337 19.098 4.16998 18.366 5.20265 18.366H9.96082C10.9935 18.366 11.8301 19.098 11.8301 20C11.8301 20.9019 10.9935 21.6339 9.96082 21.6339H5.20265C4.16998 21.6339 3.33337 20.9019 3.33337 20Z" fill="white"/>
<path opacity="0.7" d="M8.21564 8.21564C8.8529 7.57839 9.96401 7.65355 10.6928 8.38231L14.0588 11.7483C14.7875 12.4771 14.8627 13.5882 14.2254 14.2254C13.5882 14.8627 12.4771 14.7875 11.7483 14.0588L8.38231 10.6928C7.65355 9.96401 7.57839 8.8529 8.21564 8.21564Z" fill="white"/>
</svg>
