<svg width="24" height="24" viewBox="0 0 24 24" fill="none" xmlns="http://www.w3.org/2000/svg">
<path d="M12 21C16.9706 21 21 16.9706 21 12C21 7.02944 16.9706 3 12 3C7.02944 3 3 7.02944 3 12C3 16.9706 7.02944 21 12 21Z" fill="url(#paint0_linear_23_46)"/>
<path d="M9.09082 12.658L10.1586 15.6135C10.1586 15.6135 10.2921 15.89 10.435 15.89C10.578 15.89 12.7042 13.6781 12.7042 13.6781L15.0685 9.11133L9.12892 11.8951L9.09082 12.658Z" fill="#C8DAEA"/>
<path d="M10.5093 13.4158L10.3044 15.5942C10.3044 15.5942 10.2186 16.2617 10.8859 15.5942C11.5533 14.9267 12.192 14.412 12.192 14.412" fill="#A9C6D8"/>
<path d="M9.1119 12.7637L6.91545 12.0481C6.91545 12.0481 6.65295 11.9416 6.73747 11.7001C6.75487 11.6503 6.78997 11.6079 6.89497 11.5351C7.38165 11.1958 15.9029 8.13306 15.9029 8.13306C15.9029 8.13306 16.1435 8.05198 16.2854 8.10591C16.3205 8.11678 16.3521 8.13677 16.377 8.16385C16.4018 8.19093 16.419 8.22413 16.4268 8.26003C16.4421 8.32346 16.4485 8.38871 16.4458 8.45391C16.4452 8.51031 16.4383 8.56258 16.4332 8.64456C16.3813 9.48193 14.8282 15.7315 14.8282 15.7315C14.8282 15.7315 14.7352 16.0972 14.4023 16.1098C14.3205 16.1124 14.239 16.0985 14.1626 16.069C14.0863 16.0395 14.0167 15.9949 13.9579 15.9379C13.3046 15.3759 11.0465 13.8583 10.5475 13.5246C10.5363 13.5169 10.5268 13.5069 10.5197 13.4953C10.5127 13.4836 10.5082 13.4706 10.5066 13.4571C10.4996 13.4219 10.5379 13.3783 10.5379 13.3783C10.5379 13.3783 14.4698 9.88333 14.5744 9.51643C14.5825 9.48801 14.5519 9.47399 14.5108 9.48644C14.2497 9.58251 9.72255 12.4414 9.2229 12.757C9.18693 12.7678 9.14892 12.7702 9.1119 12.7637Z" fill="white"/>
<defs>
<linearGradient id="paint0_linear_23_46" x1="12" y1="21" x2="12" y2="3" gradientUnits="userSpaceOnUse">
<stop stop-color="#1D93D2"/>
<stop offset="1" stop-color="#38B0E3"/>
</linearGradient>
</defs>
</svg>
